<svg xmlns="http://www.w3.org/2000/svg" viewBox="0 0 40 40"><defs><style>.cls-1{fill:#fff}</style></defs><g id="Слой_2" data-name="Слой 2"><g id="Слой_1-2" data-name="Слой 1"><path class="cls-1" d="M30 0H10A10 10 0 000 10v20a10 10 0 0010 10h20a10 10 0 0010-10V10A10 10 0 0030 0zm8.64 31.18a7.5 7.5 0 01-7.5 7.5H8.82a7.5 7.5 0 01-7.5-7.5V8.82a7.5 7.5 0 017.5-7.5h22.36a7.5 7.5 0 017.5 7.5z"/><path class="cls-1" d="M35 13c.22-.72 0-1.24-1-1.24h-3.47a1.47 1.47 0 00-1.48.95 27.94 27.94 0 01-4.19 6.88c-.79.78-1.16 1-1.59 1-.21 0-.54-.25-.54-1V13c0-.86-.25-1.24-1-1.24h-5.32a.82.82 0 00-.87.77c0 .81 1.23 1 1.35 3.28v5c0 1.08-.19 1.28-.63 1.28-1.16 0-4-4.19-5.63-9-.34-.93-.67-1.3-1.54-1.3H5.68c-1 0-1.17.45-1.17.95 0 .89 1.16 5.32 5.39 11.16 2.81 4 6.78 6.16 10.4 6.16 2.17 0 2.43-.48 2.43-1.31 0-3.81-.19-4.17.89-4.17.51 0 1.37.25 3.4 2.17C29.33 29 29.72 30 31 30h3.41c1 0 1.47-.48 1.18-1.43-.65-2-5-6.09-5.22-6.36-.51-.64-.36-.93 0-1.5.01-.01 4.17-5.79 4.63-7.71z"/></g></g></svg>