<svg xmlns="http://www.w3.org/2000/svg" viewBox="0 0 40 40"><defs><style>.cls-1{fill:#fff}</style></defs><g id="Слой_2" data-name="Слой 2"><g id="Слой_1-2" data-name="Слой 1"><path class="cls-1" d="M30 0H10A10 10 0 000 10v20a10 10 0 0010 10h20a10 10 0 0010-10V10A10 10 0 0030 0zm8.28 31A7.35 7.35 0 0131 38.32H9A7.35 7.35 0 011.68 31V9A7.35 7.35 0 019 1.68h22A7.35 7.35 0 0138.32 9z"/><path class="cls-1" d="M20.11 12.63a7.27 7.27 0 107.27 7.27 7.26 7.26 0 00-7.27-7.27zm0 12a4.73 4.73 0 114.73-4.73 4.74 4.74 0 01-4.73 4.73zm9.26-12.29a1.7 1.7 0 11-1.69-1.7 1.69 1.69 0 011.69 1.7zm4.82 1.72a8.39 8.39 0 00-2.29-5.94A8.42 8.42 0 0026 5.83c-2.34-.14-9.35-.14-11.69 0a8.37 8.37 0 00-5.98 2.28A8.38 8.38 0 006 14.05c-.14 2.34-.14 9.35 0 11.7a8.38 8.38 0 002.29 5.94A8.44 8.44 0 0014.27 34c2.34.14 9.35.14 11.69 0a8.37 8.37 0 005.94-2.28 8.51 8.51 0 002.29-5.94c.13-2.38.13-9.38 0-11.72zm-3 14.2A4.78 4.78 0 0128.47 31c-1.87.74-6.29.57-8.36.57s-6.49.17-8.35-.57a4.78 4.78 0 01-2.69-2.69C8.33 26.39 8.5 22 8.5 19.9s-.17-6.5.57-8.36a4.75 4.75 0 012.69-2.69c1.87-.74 6.29-.57 8.35-.57s6.5-.16 8.36.57a4.78 4.78 0 012.69 2.69c.74 1.87.57 6.3.57 8.36s.17 6.5-.57 8.36z"/></g></g></svg>