<svg xmlns="http://www.w3.org/2000/svg" viewBox="0 0 40 40"><defs><style>.cls-1{fill:#fff}</style></defs><g id="Слой_2" data-name="Слой 2"><g id="Слой_1-2" data-name="Слой 1"><path class="cls-1" d="M30 0H10A10 10 0 000 10v20a10 10 0 0010 10h20a10 10 0 0010-10V10A10 10 0 0030 0zm8.2 30.92a7.31 7.31 0 01-7.32 7.32H9.08a7.31 7.31 0 01-7.32-7.32V9.08a7.31 7.31 0 017.32-7.32h21.84a7.31 7.31 0 017.32 7.32z"/><path class="cls-1" d="M34.77 10.22l-4.45 20.55c-.33 1.46-1.21 1.82-2.45 1.13L21.09 27l-3.28 3.08a1.69 1.69 0 01-1.36.65l.49-6.73 12.57-11.14c.54-.48-.12-.75-.85-.27l-15.54 9.58-6.69-2.05C5 19.68 5 18.7 6.73 18L32.9 8.14c1.21-.44 2.27.27 1.87 2.08z"/></g></g></svg>