<svg width="40" height="40" fill="none" xmlns="http://www.w3.org/2000/svg"><rect x=".75" y=".75" width="38.5" height="38.5" rx="17.25" stroke="#fff" stroke-width="1.5"/><path d="M20.003 13.334A6.655 6.655 0 0013.338 20a6.655 6.655 0 006.665 6.666A6.655 6.655 0 0026.668 20a6.655 6.655 0 00-6.665-6.666zm0 11A4.341 4.341 0 0115.67 20a4.338 4.338 0 014.333-4.334A4.338 4.338 0 0124.336 20a4.341 4.341 0 01-4.333 4.334zm8.492-11.273a1.55 1.55 0 01-1.555 1.555 1.555 1.555 0 111.554-1.555zm4.414 1.578c-.099-2.082-.575-3.927-2.1-5.447-1.52-1.52-3.364-1.996-5.447-2.1-2.146-.122-8.578-.122-10.724 0-2.077.098-3.921.574-5.447 2.094-1.525 1.52-1.995 3.365-2.1 5.447-.121 2.147-.121 8.581 0 10.728.099 2.082.575 3.927 2.1 5.447 1.526 1.52 3.364 1.996 5.447 2.1 2.146.123 8.578.123 10.724 0 2.083-.098 3.927-.574 5.447-2.1 1.52-1.52 1.995-3.364 2.1-5.447.122-2.147.122-8.575 0-10.722zm-2.773 13.025a4.387 4.387 0 01-2.47 2.471c-1.712.68-5.772.523-7.663.523s-5.957.15-7.662-.523a4.387 4.387 0 01-2.471-2.471c-.679-1.712-.522-5.773-.522-7.664s-.151-5.958.522-7.664a4.387 4.387 0 012.47-2.471c1.712-.68 5.772-.523 7.663-.523 1.89 0 5.957-.15 7.662.523a4.387 4.387 0 012.471 2.471c.679 1.711.522 5.773.522 7.664s.157 5.958-.522 7.664z" fill="#fff"/></svg>