<svg width="40" height="40" fill="none" xmlns="http://www.w3.org/2000/svg"><rect x=".75" y=".75" width="38.5" height="38.5" rx="17.25" stroke="#fff" stroke-width="1.5"/><path d="M33.34 13.153c.198-.664 0-1.153-.96-1.153h-3.17c-.808 0-1.18.42-1.378.887 0 0-1.615 3.884-3.898 6.402-.738.728-1.077.961-1.48.961-.2 0-.506-.233-.506-.898v-6.2c0-.796-.227-1.152-.894-1.152h-4.985c-.506 0-.808.372-.808.717 0 .755 1.141.93 1.26 3.055v4.611c0 1.01-.183 1.195-.587 1.195-1.077 0-3.693-3.899-5.244-8.361C10.378 12.35 10.071 12 9.258 12h-3.17C5.182 12 5 12.42 5 12.887c0 .829 1.077 4.946 5.012 10.386C12.634 26.987 16.327 29 19.686 29c2.02 0 2.267-.446 2.267-1.217 0-3.548-.183-3.883.829-3.883.468 0 1.276.234 3.16 2.024C28.096 28.05 28.451 29 29.657 29h3.17c.905 0 1.363-.446 1.099-1.328-.603-1.854-4.678-5.669-4.862-5.924-.468-.595-.333-.86 0-1.391.006-.006 3.877-5.382 4.275-7.204z" fill="#fff"/></svg>