<svg width="184" height="184" fill="none" xmlns="http://www.w3.org/2000/svg"><path d="M112.328 108.777c-2.864 0-5.194-1.986-5.194-4.427s2.33-4.427 5.194-4.427 5.194 1.986 5.194 4.427c0 1.284 1.057 2.325 2.361 2.325 1.303 0 2.361-1.041 2.361-2.325 0-4.261-3.224-7.843-7.555-8.816v-1.209c0-1.284-1.058-2.325-2.361-2.325-1.304 0-2.361 1.041-2.361 2.325v1.21c-4.332.972-7.555 4.554-7.555 8.815 0 5.005 4.448 9.077 9.916 9.077 2.864 0 5.194 1.986 5.194 4.428 0 2.441-2.33 4.427-5.194 4.427s-5.194-1.986-5.194-4.427c0-1.284-1.058-2.325-2.361-2.325-1.304 0-2.361 1.041-2.361 2.325 0 4.261 3.223 7.843 7.555 8.815v1.005c0 1.284 1.057 2.325 2.361 2.325 1.303 0 2.361-1.041 2.361-2.325v-1.005c4.331-.972 7.555-4.554 7.555-8.815 0-5.006-4.449-9.078-9.916-9.078zm24.897-13.569a30.67 30.67 0 00-12.584-10.977c-1.177-.558-2.589-.07-3.155 1.09a2.316 2.316 0 001.107 3.11c8.963 4.248 14.754 13.323 14.754 23.12a25.39 25.39 0 01-3.031 12.023 2.314 2.314 0 00.977 3.152c.353.186.733.274 1.108.274a2.37 2.37 0 002.089-1.236 30.008 30.008 0 003.586-14.213 29.887 29.887 0 00-4.851-16.343zM115.372 81h-.13c-1.062 0-1.923.895-1.923 2 0 1.104.861 2 1.923 2h.121c1.058 0 1.918-.89 1.923-1.99.005-1.105-.852-2.005-1.914-2.01zm-14.301 53.568c-8.963-4.247-14.754-13.322-14.754-23.119a25.39 25.39 0 013.031-12.023 2.314 2.314 0 00-.977-3.152c-1.152-.605-2.584-.174-3.197.962a30.013 30.013 0 00-3.586 14.213 29.884 29.884 0 004.851 16.343 30.674 30.674 0 0012.584 10.978c.33.156.679.23 1.022.23.881 0 1.726-.487 2.133-1.321a2.318 2.318 0 00-1.107-3.111zM107.43 137h-.112c-1.067-.002-1.927.886-1.931 1.99-.005 1.105.852 2.004 1.914 2.01h.129c1.062 0 1.923-.896 1.923-2s-.861-2-1.923-2z" fill="#1ABC0F"/><path d="M122.285 73.15a10.762 10.762 0 00-1.023-1.905h6c5.845 0 10.601-4.812 10.601-10.727s-4.756-10.727-10.601-10.727h-18.456a10.756 10.756 0 001.862-6.064c0-5.915-4.756-10.727-10.602-10.727H43.601C37.757 33 33 37.812 33 43.727s4.756 10.728 10.602 10.728h18.455a10.753 10.753 0 00-1.862 6.063c0 2.248.689 4.337 1.862 6.063h-6.01c-5.846 0-10.602 4.812-10.602 10.727 0 3.397 1.57 6.429 4.014 8.395a10.757 10.757 0 00-4.014 8.396c0 3.397 1.57 6.428 4.014 8.395a10.756 10.756 0 00-4.014 8.395c0 3.397 1.57 6.429 4.014 8.395a10.758 10.758 0 00-4.014 8.396c0 5.915 4.756 10.727 10.602 10.727h27.16C90.364 146.151 100.542 151 111.82 151c21.604 0 39.18-17.784 39.18-39.644 0-18.194-12.176-33.562-28.715-38.206zm4.977-18.696c3.304 0 5.992 2.72 5.992 6.064 0 3.343-2.688 6.063-5.992 6.063H70.797c-3.304 0-5.992-2.72-5.992-6.063 0-3.343 2.688-6.063 5.992-6.063h56.465zm-83.66-4.663c-3.305 0-5.993-2.72-5.993-6.064 0-3.343 2.688-6.063 5.992-6.063h56.465c3.305 0 5.992 2.72 5.992 6.063 0 3.343-2.687 6.064-5.992 6.064H43.601zm12.445 21.454h56.465c.928 0 1.817.218 2.614.61a39.034 39.034 0 00-3.306-.143c-10.819 0-20.628 4.46-27.725 11.66H56.047c-3.304 0-5.992-2.72-5.992-6.064 0-3.343 2.688-6.063 5.992-6.063zm0 16.79h24.11a39.722 39.722 0 00-5.923 12.127H56.047c-3.304 0-5.992-2.72-5.992-6.063 0-3.344 2.688-6.064 5.992-6.064zm0 16.791h17.128a40.2 40.2 0 00-.142 12.126H56.047c-3.304 0-5.992-2.719-5.992-6.063 0-3.343 2.688-6.063 5.992-6.063zm0 28.917c-3.304 0-5.992-2.72-5.992-6.063 0-3.344 2.688-6.064 5.992-6.064h17.927a39.706 39.706 0 005.53 12.127H56.047zm55.773 12.593c-19.062 0-34.57-15.692-34.57-34.98 0-19.288 15.508-34.98 34.57-34.98s34.571 15.692 34.571 34.98c0 19.288-15.509 34.98-34.571 34.98z" fill="#1ABC0F"/></svg>