<svg width="184" height="184" fill="none" xmlns="http://www.w3.org/2000/svg"><path d="M35.28 130.871a7.722 7.722 0 015.504-2.271h5.365v-14.002c0-4.065 3.312-7.377 7.377-7.377h7.06c4.066 0 7.378 3.312 7.378 7.377v13.992h5.76v-18.741c0-1.22.992-2.212 2.212-2.212 1.22 0 2.211.992 2.211 2.212v18.741h12.96v-27.269a2.962 2.962 0 00-2.954-2.955h-7.06a2.962 2.962 0 00-2.956 2.955v1.676a2.214 2.214 0 01-2.21 2.211 2.213 2.213 0 01-2.212-2.211v-1.676c0-4.066 3.312-7.377 7.377-7.377h7.06c4.066 0 7.378 3.311 7.378 7.377v27.269h5.761V74.409c0-4.066 3.312-7.377 7.378-7.377h7.06c4.065 0 7.377 3.312 7.377 7.377v54.181h5.484V40.774c0-4.284 3.49-7.774 7.774-7.774 2.082 0 4.036.813 5.503 2.28a7.732 7.732 0 012.281 5.504v6.99c0 1.22-.992 2.212-2.211 2.212a2.213 2.213 0 01-2.211-2.211v-7a3.34 3.34 0 00-.982-2.38 3.338 3.338 0 00-2.38-.982 3.356 3.356 0 00-3.352 3.361v90.027c0 1.22-.991 2.211-2.211 2.211H40.774a3.352 3.352 0 00-3.361 3.352 3.365 3.365 0 003.361 3.362h90.027c1.22 0 2.211.991 2.211 2.211v1.289a3.354 3.354 0 003.352 3.361 3.365 3.365 0 003.362-3.361v-1.289c0-1.22.991-2.211 2.211-2.211h1.289c.902 0 1.745-.348 2.38-.982a3.34 3.34 0 00.981-2.38 3.356 3.356 0 00-3.361-3.352h-1.289a2.212 2.212 0 01-2.211-2.211V54.567c0-1.22.991-2.211 2.211-2.211 1.219 0 2.211.991 2.211 2.211v74.082a7.775 7.775 0 016.852 7.715 7.73 7.73 0 01-2.281 5.503 7.789 7.789 0 01-4.63 2.231 7.774 7.774 0 01-7.725 6.902 7.748 7.748 0 01-5.503-2.281 7.792 7.792 0 01-2.222-4.581H40.774c-4.284 0-7.774-3.49-7.774-7.774 0-2.072.813-4.026 2.28-5.493zm28.251-16.273a2.963 2.963 0 00-2.955-2.955h-7.06a2.963 2.963 0 00-2.955 2.955v13.992h12.97v-13.992zm55.153-40.189a2.963 2.963 0 00-2.955-2.955h-7.06a2.963 2.963 0 00-2.955 2.955v54.181h12.97V74.409z" fill="#1ABC0F"/><path d="M112.199 53.377a8.23 8.23 0 01-3.471-.763L91.474 73.12a8.223 8.223 0 011.468 4.71c0 4.591-3.728 8.32-8.32 8.32a8.359 8.359 0 01-6.435-3.055l-12.91 5.722c.059.407.089.823.089 1.23 0 4.59-3.729 8.32-8.32 8.32-4.59 0-8.32-3.73-8.32-8.32 0-4.591 3.73-8.32 8.32-8.32a8.359 8.359 0 016.436 3.054l12.91-5.721a8.547 8.547 0 01-.089-1.23c0-4.59 3.728-8.32 8.32-8.32 1.21 0 2.38.258 3.47.764l17.254-20.496a8.223 8.223 0 01-1.468-4.71c0-4.591 3.729-8.32 8.32-8.32s8.319 3.729 8.319 8.32c0 4.581-3.738 8.31-8.319 8.31zM88.519 77.83a3.898 3.898 0 10-7.795.001 3.898 3.898 0 007.795 0zm27.577-32.772a3.897 3.897 0 10-7.795 0 3.897 3.897 0 007.795 0zM60.943 90.047a3.898 3.898 0 10-3.897 3.897c2.152.01 3.897-1.746 3.897-3.897z" fill="#1ABC0F"/></svg>