<svg width="184" height="184" fill="none" xmlns="http://www.w3.org/2000/svg"><path d="M117.155 98.392l-12.428-5.499a2.423 2.423 0 01-1.445-2.213v-3.397c4.175-3.311 6.858-8.41 6.858-14.124v-4.782a4.407 4.407 0 002.286-3.856v-.464c0-9.957-8.137-18.057-18.14-18.057h-4.571c-10.002 0-18.14 8.1-18.14 18.057v4.21c0 1.44.623 2.744 1.707 3.578.184.141.377.266.58.373v.94c0 5.715 2.682 10.813 6.857 14.124v3.398c0 .956-.568 1.825-1.445 2.213l-12.428 5.498a11.239 11.239 0 00-6.7 10.263v28.216c0 1.176.957 2.129 2.139 2.129a2.134 2.134 0 002.138-2.129v-28.216c0-.247.018-.49.044-.732l5.726 5.7a4.657 4.657 0 011.382 3.322v19.926c0 1.176.958 2.129 2.139 2.129a2.134 2.134 0 002.139-2.129v-19.926a8.874 8.874 0 00-2.635-6.332l-6.827-6.797a6.997 6.997 0 012.192-1.533l12.219-5.405 9.06 9.019v30.974c0 1.176.958 2.129 2.14 2.129a2.134 2.134 0 002.138-2.129v-30.974l9.061-9.02 12.217 5.406c.84.372 1.578.898 2.193 1.534l-6.827 6.796a8.876 8.876 0 00-2.635 6.332v19.926c0 1.176.958 2.129 2.139 2.129a2.134 2.134 0 002.139-2.129v-19.926c0-1.255.49-2.435 1.382-3.322l5.726-5.7c.026.242.043.485.043.732v28.216c0 1.176.958 2.129 2.139 2.129a2.134 2.134 0 002.139-2.129v-28.216a11.24 11.24 0 00-6.701-10.262zM92 102.004l-7.95-7.915a6.645 6.645 0 00.946-3.409v-.866A18.112 18.112 0 0092 91.216c2.481 0 4.847-.5 7.004-1.402v.866c0 1.226.341 2.397.946 3.41L92 102.004zm0-15.046c-7.643 0-13.862-6.19-13.862-13.8v-.957c1.335-.526 2.637-1.364 3.884-2.51a2.122 2.122 0 00.121-3.008 2.146 2.146 0 00-3.022-.12c-1.07.983-2.138 1.617-3.176 1.887a.357.357 0 01-.056.01.43.43 0 01-.037-.192v-4.21c0-7.61 6.22-13.8 13.863-13.8h4.571c7.644 0 13.863 6.19 13.863 13.8v.463c0 .07-.042.13-.097.14-12.806 2.518-19.23-2.227-21.397-4.385a2.145 2.145 0 00-3.024 0 2.122 2.122 0 000 3.01c6.64 6.612 16.332 6.731 22.232 6.025v3.847c0 7.61-6.219 13.8-13.862 13.8zm-34.435-.146V82.26c0-5.554-2.9-10.443-7.268-13.256a8.95 8.95 0 00.41-2.672c0-4.938-4.035-8.955-8.996-8.955-4.96 0-8.996 4.018-8.996 8.955 0 .92.14 1.813.41 2.672-4.368 2.814-7.267 7.703-7.267 13.256v4.551c0 5.378 2.718 10.134 6.857 12.984v4.682c0 .924-.515 1.754-1.345 2.167l-7.397 3.681c-3.068 1.527-4.973 4.596-4.973 8.01v18.536c0 1.176.958 2.129 2.139 2.129a2.134 2.134 0 002.138-2.129v-17.615l3.484 3.468a4.659 4.659 0 011.383 3.322v10.825c0 1.176.957 2.129 2.138 2.129a2.134 2.134 0 002.139-2.129v-10.825a8.876 8.876 0 00-2.635-6.332l-4.849-4.827c-.023-.024-.049-.044-.073-.066a4.77 4.77 0 011.022-.687l7.397-3.682a6.723 6.723 0 001.06-.659l5.23 5.206v21.872c0 1.176.957 2.129 2.138 2.129a2.134 2.134 0 002.139-2.129v-21.873l5.23-5.205c.328.248.68.471 1.06.659l2.04 1.015a2.141 2.141 0 002.87-.951 2.125 2.125 0 00-.957-2.857l-2.04-1.015a2.407 2.407 0 01-1.345-2.166v-4.682c4.139-2.85 6.857-7.606 6.857-12.984zM41.711 61.635c2.602 0 4.72 2.107 4.72 4.697 0 .286-.027.565-.076.84a15.87 15.87 0 00-4.644-.693c-1.613 0-3.17.242-4.637.69a4.712 4.712 0 01-.081-.837c0-2.59 2.116-4.697 4.718-4.697zm0 9.102c6.384 0 11.577 5.17 11.577 11.524v.771c-8.904 2.714-14.21-4.029-14.437-4.324a2.142 2.142 0 00-3.224-.228c-2.04 2.032-4.04 3.012-5.485 3.485.159-6.218 5.286-11.228 11.57-11.228zm0 40.368l-4.942-4.919a6.711 6.711 0 00.224-1.709v-2.598a15.85 15.85 0 004.718.714c1.643 0 3.228-.25 4.72-.714v2.598c0 .588.078 1.16.222 1.709l-4.942 4.919zm0-12.77c-6.383 0-11.576-5.17-11.576-11.524v-.441c1.705-.39 4.234-1.296 6.872-3.408a19.297 19.297 0 003.966 2.874c2.01 1.09 4.784 2.1 8.174 2.1a18 18 0 004.123-.492c-.332 6.061-5.389 10.89-11.559 10.89zm118.316 7.44l-11.968-5.958a2.407 2.407 0 01-1.345-2.166v-3.017c2.801-2.476 4.571-6.084 4.571-10.098v-2.423l.148.001a2.133 2.133 0 002.138-2.129v-4.55c0-7.448-6.086-13.507-13.568-13.507h-4.571c-7.482 0-13.569 6.06-13.569 13.506v4.551a2.134 2.134 0 002.286 2.125v2.426c0 4.014 1.771 7.622 4.572 10.098v3.017c0 .924-.515 1.754-1.345 2.167a2.124 2.124 0 00-.956 2.856 2.138 2.138 0 002.869.952 6.755 6.755 0 001.06-.659l5.23 5.205v28.699c0 1.176.957 2.129 2.138 2.129a2.134 2.134 0 002.139-2.129v-28.699l5.229-5.206c.329.248.681.471 1.06.66l11.582 5.764-3.513 3.497a8.876 8.876 0 00-2.635 6.332v17.651c0 1.176.958 2.129 2.139 2.129a2.134 2.134 0 002.139-2.129v-17.651c0-1.254.49-2.434 1.382-3.322l3.327-3.312c.101.385.157.787.157 1.199v23.086c0 1.176.957 2.129 2.138 2.129A2.134 2.134 0 00165 136.87v-23.086a8.9 8.9 0 00-4.973-8.009zm-33.886-28.357v-1.984c0-5.1 4.168-9.248 9.291-9.248h4.571c5.123 0 9.291 4.149 9.291 9.248V77.8c-9.297-.5-14.908-4.1-14.962-4.136a2.143 2.143 0 00-2.699.266c-2.046 2.037-4.051 3.017-5.492 3.49zm11.576 26.861l-4.942-4.92a6.682 6.682 0 00.224-1.708v-.453c1.47.545 3.06.844 4.718.844 1.659 0 3.249-.3 4.719-.844v.453c0 .588.079 1.16.223 1.709l-4.942 4.919zm0-10.495c-5.122 0-9.29-4.148-9.29-9.248v-3.432c1.498-.596 3.243-1.543 5.019-3.05 2.246 1.164 6.944 3.174 13.562 3.839v2.643c0 5.1-4.168 9.248-9.291 9.248z" fill="#1ABC0F"/></svg>