<svg width="184" height="184" fill="none" xmlns="http://www.w3.org/2000/svg"><path d="M146.69 69.805a58.694 58.694 0 00-12.953-19.542 58.694 58.694 0 00-19.541-12.953A59.362 59.362 0 0091.959 33a59.091 59.091 0 00-22.198 4.32 58.754 58.754 0 00-19.499 12.943A58.754 58.754 0 0037.32 69.762 59.096 59.096 0 0033 91.959a59.371 59.371 0 004.31 22.237 58.706 58.706 0 0012.952 19.542 58.706 58.706 0 0019.542 12.952A59.367 59.367 0 0092.041 151c7.547 0 15.095-1.44 22.197-4.32a58.728 58.728 0 0019.499-12.943 58.728 58.728 0 0012.943-19.499A59.08 59.08 0 00151 92.041a59.365 59.365 0 00-4.31-22.236zm-7.303 41.476a50.884 50.884 0 01-11.214 16.892 50.894 50.894 0 01-16.892 11.214 51.226 51.226 0 01-19.24 3.743 51.494 51.494 0 01-19.288-3.737 50.819 50.819 0 01-16.925-11.22 50.807 50.807 0 01-11.22-16.926 51.493 51.493 0 01-3.737-19.288 51.23 51.23 0 013.743-19.24 50.877 50.877 0 0111.214-16.891 50.885 50.885 0 0116.891-11.215 51.227 51.227 0 0119.24-3.743 51.49 51.49 0 0119.288 3.737 50.819 50.819 0 0116.926 11.22 50.809 50.809 0 0111.221 16.926 51.493 51.493 0 013.736 19.288 51.211 51.211 0 01-3.743 19.24z" fill="#1ABC0F"/><path d="M116.503 67.497a3.85 3.85 0 00-5.445 0l-43.561 43.561a3.851 3.851 0 005.445 5.446l43.562-43.562a3.85 3.85 0 00-.001-5.445zM89.87 64.59a11.533 11.533 0 00-2.537-3.822 11.532 11.532 0 00-8.168-3.384 11.534 11.534 0 00-8.168 3.383 11.53 11.53 0 00-3.383 8.169 11.534 11.534 0 003.383 8.168 11.53 11.53 0 008.168 3.383 11.532 11.532 0 008.168-3.383 11.53 11.53 0 003.383-8.168c0-1.475-.28-2.951-.845-4.345zm-7.136 5.796a3.821 3.821 0 01-.846 1.272 3.821 3.821 0 01-2.723 1.128 3.822 3.822 0 01-2.723-1.128 3.82 3.82 0 01-1.127-2.722 3.821 3.821 0 011.127-2.723 3.818 3.818 0 012.723-1.127 3.821 3.821 0 012.723 1.128 3.82 3.82 0 011.128 2.722c0 .496-.095.99-.282 1.45zm35.372 37.805a11.537 11.537 0 00-2.537-3.824 11.543 11.543 0 00-16.336 0 11.537 11.537 0 00-3.383 8.169 11.544 11.544 0 003.383 8.168 11.552 11.552 0 003.823 2.537 11.564 11.564 0 0012.513-2.537 11.526 11.526 0 003.383-8.168c0-1.475-.281-2.951-.846-4.345zm-7.136 5.795a3.816 3.816 0 01-.846 1.272 3.831 3.831 0 01-2.722 1.127 3.831 3.831 0 01-2.723-1.127 3.831 3.831 0 01-1.128-2.723 3.817 3.817 0 011.128-2.722 3.82 3.82 0 012.723-1.128 3.825 3.825 0 012.722 1.128c.383.383.659.81.846 1.271a3.86 3.86 0 010 2.902z" fill="#1ABC0F"/></svg>