<svg width="150" height="150" xmlns="http://www.w3.org/2000/svg" viewBox="0 0 200 200"><defs><linearGradient id="Безымянный_градиент_14" x1="195.17" y1="195.17" x2="4.83" y2="4.83" gradientUnits="userSpaceOnUse"><stop offset="0" stop-color="#01377a"/><stop offset="1" stop-color="#00acf8"/></linearGradient></defs><g id="Слой_2" data-name="Слой 2"><g id="Слой_1-2" data-name="Слой 1"><path d="M183.5 0h-167A16.5 16.5 0 000 16.5v167A16.5 16.5 0 0016.5 200h167a16.5 16.5 0 0016.5-16.5v-167A16.5 16.5 0 00183.5 0zm6 189.5H9.5V9.5h180z" fill="url(#Безымянный_градиент_14)"/><path fill="#e2ebed" d="M155.24 58.37H67.65l1.96 23.54h83.68l-6.48 70.72-46.66 12.87v.14h-.52l-47.04-13.01-2.85-36.12h22.73l1.66 18.16 25.5 6.91 25.59-6.91 2.86-29.64H48.54l-6.1-69.39h114.9l-2.1 22.73z"/></g></g></svg>