<svg width="150" height="150" xmlns="http://www.w3.org/2000/svg" viewBox="0 0 200 200"><defs><linearGradient id="Безымянный_градиент_14" x1="195.17" y1="195.17" x2="4.83" y2="4.83" gradientUnits="userSpaceOnUse"><stop offset="0" stop-color="#01377a"/><stop offset="1" stop-color="#00acf8"/></linearGradient></defs><g id="Слой_2" data-name="Слой 2"><g id="Слой_1-2" data-name="Слой 1"><path d="M183.5 0h-167A16.5 16.5 0 000 16.5v167A16.5 16.5 0 0016.5 200h167a16.5 16.5 0 0016.5-16.5v-167A16.5 16.5 0 00183.5 0zm6 189.5H9.5V9.5h180z" fill="url(#Безымянный_градиент_14)"/><path d="M129.32 95.09v-.36c11.39-4.86 18.57-14 18.57-27.66 0-3.48 1-32.21-38.58-32.21H46.17v129.92c63.75 0 69.54.84 81.33-2.84 7.07-2.19 26.21-8.93 26.21-33.36 0-10.73-3.31-28.98-24.39-33.49zm-60.41-41.7H106c17.37 0 19.11 10.11 19.11 17.83 0 18.55-18.78 18-19.11 18H68.91zm40.22 92.83H68.91v-40.61h40.22c21.16 0 21.83 15.86 21.83 20 .04 21.1-19.74 20.61-21.83 20.61z" fill="#e2ebed"/></g></g></svg>