<svg width="150" height="150" xmlns="http://www.w3.org/2000/svg" viewBox="0 0 200 200"><defs><linearGradient id="Безымянный_градиент_14" x1="195.17" y1="195.17" x2="4.83" y2="4.83" gradientUnits="userSpaceOnUse"><stop offset="0" stop-color="#01377a"/><stop offset="1" stop-color="#00acf8"/></linearGradient></defs><g id="Слой_2" data-name="Слой 2"><g id="Слой_1-2" data-name="Слой 1"><path d="M183.5 0h-167A16.5 16.5 0 000 16.5v167A16.5 16.5 0 0016.5 200h167a16.5 16.5 0 0016.5-16.5v-167A16.5 16.5 0 00183.5 0zm6 189.5H9.5V9.5h180z" fill="url(#Безымянный_градиент_14)"/><path d="M172.06 94.35l-65.47-65.49a9.67 9.67 0 00-13.67 0l-13.61 13.6 17.25 17.25a11.48 11.48 0 0114.53 14.63L127.71 91c11.47-4 20.49 10.38 11.88 19-8.87 8.87-23.51-1-18.75-12.51L105.32 82v40.79c8.47 4.2 7.45 14 3 18.42a11.49 11.49 0 11-12.49-18.75V81.23a11.5 11.5 0 01-6.24-15.07l-17-17-44.87 44.89a9.66 9.66 0 000 13.66l65.49 65.49a9.66 9.66 0 0013.66 0l65.19-65.2a9.66 9.66 0 000-13.67z" fill="#e2ebed"/></g></g></svg>