<svg width="150" height="150" xmlns="http://www.w3.org/2000/svg" viewBox="0 0 200 200"><defs><linearGradient id="Безымянный_градиент_14" x1="195.17" y1="195.17" x2="4.83" y2="4.83" gradientUnits="userSpaceOnUse"><stop offset="0" stop-color="#01377a"/><stop offset="1" stop-color="#00acf8"/></linearGradient></defs><g id="Слой_2" data-name="Слой 2"><g id="Слой_1-2" data-name="Слой 1"><path d="M183.5 0h-167A16.5 16.5 0 000 16.5v167A16.5 16.5 0 0016.5 200h167a16.5 16.5 0 0016.5-16.5v-167A16.5 16.5 0 00183.5 0zm6 189.5H9.5V9.5h180z" fill="url(#Безымянный_градиент_14)"/><path d="M157.81 34.73l-2.29 22.6-55.11 23.57h-.14 53.29l-6.12 70.1-46.93 13.72-47.22-14-3.06-35.32H73.6l1.53 18.31 25.14 6.35 26.14-7.36 1.77-29.44-79.48-.24h-.1L46.88 81l56.59-22.38H45l-2.94-23.89z" fill="#e2ebed"/></g></g></svg>