<svg width="150" height="150" xmlns="http://www.w3.org/2000/svg" viewBox="0 0 200 200"><defs><linearGradient id="Безымянный_градиент_14" x1="195.17" y1="195.17" x2="4.83" y2="4.83" gradientUnits="userSpaceOnUse"><stop offset="0" stop-color="#01377a"/><stop offset="1" stop-color="#00acf8"/></linearGradient></defs><g id="Слой_2" data-name="Слой 2"><g id="Слой_1-2" data-name="Слой 1"><path d="M183.5 0h-167A16.5 16.5 0 000 16.5v167A16.5 16.5 0 0016.5 200h167a16.5 16.5 0 0016.5-16.5v-167A16.5 16.5 0 00183.5 0zm6 189.5H9.5V9.5h180z" fill="url(#Безымянный_градиент_14)"/><path d="M163.8 64.63c0 7.25-1.34 15.38-5.44 25.59l-21.54 62.26a71 71 0 01-12.75 6.05 2.27 2.27 0 01-.25-.52l-22-60.19-21.33 62.12-11.11-4.21-34.06-93.26c1.85-3.4 3.71-6.78 5.55-10.18.91 0 2.55.11 4.61.11 7.45 0 19-.92 19-.92 3.87-.23 4.31 5.45.48 5.88 0 0-3.87.45-8.17.68l26 77.41 15.67-46.9L87.41 58c-3.87-.23-7.5-.68-7.5-.68-3.87-.22-3.39-6.11.44-5.88 0 0 11.79.92 18.82.92 7.45 0 19-.92 19-.92 3.85-.23 4.3 5.45.45 5.88 0 0-3.85.45-8.16.68l25.85 76.84 7.12-23.82c3-9.88 5.37-17 5.37-23.08 0-8.84-3.16-15-5.88-19.73-3.63-5.88-7-10.89-7-16.77 0-6.58 5-12.69 12-12.69a4.49 4.49 0 01.62 0 28.42 28.42 0 019.48 7.87 28.8 28.8 0 015.4 11.63 53.87 53.87 0 01.38 6.38z" fill="#e2ebed"/></g></g></svg>