<svg width="150" height="150" xmlns="http://www.w3.org/2000/svg" viewBox="0 0 200 200"><defs><linearGradient id="Безымянный_градиент_14" x1="195.17" y1="195.17" x2="4.83" y2="4.83" gradientUnits="userSpaceOnUse"><stop offset="0" stop-color="#01377a"/><stop offset="1" stop-color="#00acf8"/></linearGradient><style>.cls-2{fill:#e2ebed}</style></defs><g id="Слой_2" data-name="Слой 2"><g id="Слой_1-2" data-name="Слой 1"><path d="M183.5 0h-167A16.5 16.5 0 000 16.5v167A16.5 16.5 0 0016.5 200h167a16.5 16.5 0 0016.5-16.5v-167A16.5 16.5 0 00183.5 0zm6 189.5H9.5V9.5h180z" fill="url(#Безымянный_градиент_14)"/><path class="cls-2" d="M160.86 125.53l-2.84 5c-1.48 2.61-3.1 5.44-3.61 6.29-7 11.74-23.42 18.09-25.47 18.88-27 10.43-53.25-4.68-56-6.33s-30-18.47-32.67-48.45c-.37-4.13-1.84-20.73 6.59-32.31 1.8-2.49 9-11.49 9.29-11.91-.08.26-.87 2.21-1.67 4.21l-1.79 4.47c-2.33 5.88-3.41 26.46 7.43 45 14.08 24.12 42.72 35.38 64.75 33.23 14.1-1.37 27.36-8.41 30.94-12.42.08-.1 4.69-5.27 5.05-5.66z"/><path class="cls-2" d="M163.17 95.5c-1 1.73-5.46 9-7.33 11.79-6.56 9.77-26.41 15.69-44 11.16-1.8-.45-24-6.58-32.17-28.17-.72-1.88-7-19.19.14-32 1.76-3.14 7.51-11.72 7.83-12.19-.08.23-.74 2-1.42 3.88s-1.48 4-1.56 4.26c-2.25 6.21-.36 19.32 5.75 29.89C101 102.48 123 111 138.89 109.21c7.38-.84 16.68-4.27 20-8.3l4-5a3.26 3.26 0 01.28-.41z"/><path class="cls-2" d="M160.67 71.56c-.89 1.43-3.45 5.42-4.58 7-4.25 6.07-16.82 9.54-27.83 6.47-1.12-.33-15-4.46-19.87-18.15-.44-1.18-4.18-12.16.48-20.13 1.15-1.93 4.86-7.23 5.09-7.56 0 .14-.49 1.26-.94 2.42s-1 2.52-1 2.67c-1.5 3.87-.48 12.15 3.23 18.88 6.42 11.67 20.16 17.32 30.18 16.4 4.66-.43 10.55-2.48 12.68-5z"/></g></g></svg>