<svg width="150" height="150" xmlns="http://www.w3.org/2000/svg" viewBox="0 0 200 200"><defs><linearGradient id="Безымянный_градиент_14" x1="195.17" y1="195.17" x2="4.83" y2="4.83" gradientUnits="userSpaceOnUse"><stop offset="0" stop-color="#01377a"/><stop offset="1" stop-color="#00acf8"/></linearGradient></defs><g id="Слой_2" data-name="Слой 2"><g id="Слой_1-2" data-name="Слой 1"><path d="M183.5 0h-167A16.5 16.5 0 000 16.5v167A16.5 16.5 0 0016.5 200h167a16.5 16.5 0 0016.5-16.5v-167A16.5 16.5 0 00183.5 0zm6 189.5H9.5V9.5h180z" fill="url(#Безымянный_градиент_14)"/><path d="M85.58 121c0 22.2-13 32.34-32 32.34-17.16 0-27.09-8.86-32.18-19.61l17.46-10.54c3.36 6 6.42 11 13.8 11 7 0 11.51-2.75 11.51-13.49V47.82h21.41V121zm50.72 32.34c-19.91 0-32.8-9.47-39.06-21.9l17.47-10.08c4.58 7.48 10.59 13 21.13 13 8.86 0 14.56-4.43 14.56-10.59 0-7.33-5.8-9.93-15.63-14.26l-5.35-2.29c-15.48-6.57-25.71-14.87-25.71-32.33 0-16.1 12.27-28.32 31.37-28.32 13.64 0 23.42 4.74 30.45 17.16l-16.7 10.7c-3.67-6.57-7.64-9.17-13.8-9.17s-10.24 4-10.24 9.17c0 6.41 4 9 13.19 13l5.35 2.29c18.23 7.8 28.46 15.79 28.46 33.72 0 19.24-15.17 29.84-35.49 29.84z" fill="#e2ebed"/></g></g></svg>