<svg width="150" height="150" xmlns="http://www.w3.org/2000/svg" viewBox="0 0 200 200"><defs><linearGradient id="Безымянный_градиент_14" x1="195.17" y1="195.17" x2="4.83" y2="4.83" gradientUnits="userSpaceOnUse"><stop offset="0" stop-color="#01377a"/><stop offset="1" stop-color="#00acf8"/></linearGradient></defs><g id="Слой_2" data-name="Слой 2"><g id="Слой_1-2" data-name="Слой 1"><path d="M183.5 0h-167A16.5 16.5 0 000 16.5v167A16.5 16.5 0 0016.5 200h167a16.5 16.5 0 0016.5-16.5v-167A16.5 16.5 0 00183.5 0zm6 189.5H9.5V9.5h180z" fill="url(#Безымянный_градиент_14)"/><path d="M161.78 105.75a31.8 31.8 0 00-14 3.27c-1.43-2.88-2.91-5.4-3.15-7.29a19.4 19.4 0 01-.27-6.12c.34-2.62 1.87-6.32 1.84-6.59s-.34-1.6-3.46-1.62-5.81.6-6.12 1.43a28.54 28.54 0 00-1.29 4.62c-.56 2.83-6.24 13-9.47 18.24a18.88 18.88 0 01-2.15-5.33 19.45 19.45 0 01-.27-6.13c.34-2.61 1.87-6.32 1.84-6.59s-.34-1.59-3.46-1.62-5.81.61-6.13 1.43-.65 2.76-1.28 4.63-8.21 18.72-10.19 23.1c-1 2.23-1.89 4-2.52 5.23-.1.2-.17.32-.22.41.08-.12.12-.24.12-.19-.53 1-.84 1.62-.84 1.62-.42.77-.88 1.48-1.09 1.48s-.46-2 .07-4.82c1.14-5.87 3.83-15 3.8-15.29s.51-1.74-1.77-2.59a2.83 2.83 0 00-3.19.54c-.2 0-.34.48-.34.48s2.44-10.27-4.7-10.27c-4.45 0-10.65 4.89-13.7 9.32-1.91 1.05-6.06 3.3-10.42 5.7l-5 2.76c-.12-.12-.22-.24-.34-.37C55.36 106 39.36 99.43 40 87c.24-4.53 1.81-16.42 30.77-30.86 23.74-11.82 42.71-8.57 46-1.35C121.49 65.09 106.65 84.25 82 87c-9.4 1-14.34-2.59-15.57-4s-1.48-1.5-2-1.23c-.8.43-.29 1.69 0 2.44.72 1.92 3.75 5.31 8.91 7 4.53 1.48 15.54 2.3 28.86-2.86 15-5.76 26.61-21.82 23.19-35.26C122 39.49 99.31 35 77.89 42.62 65.13 47.14 51.33 54.26 41.4 63.54c-11.79 11-13.68 20.66-12.9 24.68 2.76 14.26 22.42 23.56 30.29 30.44l-1.09.61c-4 2-18.94 9.81-22.69 18.09-4.24 9.4.7 16.13 4 17 10.12 2.81 20.48-2.25 26.05-10.56s4.89-19.16 2.32-24.1c0-.07-.07-.12-.09-.19 1-.61 2.05-1.21 3.1-1.82 2-1.18 4-2.27 5.69-3.22a37.5 37.5 0 00-2 10.32c-.43 5.33 1.77 12.23 4.63 14.94a5.06 5.06 0 003.63 1.27c3.35 0 4.85-2.76 6.52-6.05 2.06-4 3.87-8.7 3.87-8.7s-2.27 12.65 4 12.65c2.27 0 4.55-2.93 5.57-4.44s0-.1.17-.29c.24-.37.36-.58.36-.58v-.08c.92-1.57 2.93-5.18 6-11.14 3.92-7.7 7.67-17.31 7.67-17.31a51.06 51.06 0 001.5 6.24 58.28 58.28 0 003.25 7.27c-.92 1.26-1.48 2-1.48 2-.73 1-1.55 2-2.4 3-3.1 3.68-6.78 7.9-7.27 9.11-.58 1.43-.43 2.49.68 3.32a5.89 5.89 0 003.8.6 16.52 16.52 0 005.69-1.31 19.67 19.67 0 004.89-2.56 10.94 10.94 0 004.7-9.64 20.11 20.11 0 00-1.77-6.83c.27-.39.56-.8.83-1.21a129.54 129.54 0 008.5-14.68 47.62 47.62 0 001.5 6.24 41.51 41.51 0 002.76 6.23c-4.51 3.66-7.29 7.89-8.26 10.68-1.79 5.16-.39 7.48 2.25 8a8.17 8.17 0 004.14-.85 19.35 19.35 0 005.23-2.69c3-2.23 6-5.35 5.76-9.59a18 18 0 00-1.3-5.67 29.49 29.49 0 0115-1.74c13.49 1.57 16.13 10 15.62 13.51a9 9 0 01-4.29 6.06c-.94.58-1.23.8-1.16 1.23.12.63.56.61 1.36.46 1.11-.19 7.07-2.86 7.33-9.37.39-8.24-7.53-17.29-21.55-17.22zM57.84 140.8c-4.45 4.87-10.7 6.71-13.39 5.16-2.88-1.68-1.74-8.84 3.75-14a73.11 73.11 0 0110.51-7.85c.66-.38 1.6-1 2.76-1.67l.3-.17c.21-.14.46-.26.7-.41a19.32 19.32 0 01-4.63 19zm32.54-22.14c-1.55 3.81-4.81 13.49-6.8 13-1.7-.43-2.74-7.82-.34-15.08a33.6 33.6 0 015.3-9.72c2.45-2.73 5.14-3.6 5.77-2.51.84 1.42-3 12-3.93 14.33zm26.89 12.84c-.66.34-1.26.56-1.55.39s.26-.58.26-.58 3.37-3.61 4.7-5.26c.78-1 1.67-2.11 2.64-3.37v.39c0 4.34-4.19 7.27-6.08 8.43zm20.73-4.72c-.48-.34-.41-1.48 1.21-5a18.86 18.86 0 014.6-5.93 8.3 8.3 0 01.46 2.62c0 5.44-3.92 7.48-6.27 8.33z" fill="#e2ebed"/></g></g></svg>