<svg width="150" height="150" xmlns="http://www.w3.org/2000/svg" viewBox="0 0 200 200"><defs><linearGradient id="Безымянный_градиент_14" x1="195.17" y1="195.17" x2="4.83" y2="4.83" gradientUnits="userSpaceOnUse"><stop offset="0" stop-color="#01377a"/><stop offset="1" stop-color="#00acf8"/></linearGradient></defs><g id="Слой_2" data-name="Слой 2"><g id="Слой_1-2" data-name="Слой 1"><path d="M183.5 0h-167A16.5 16.5 0 000 16.5v167A16.5 16.5 0 0016.5 200h167a16.5 16.5 0 0016.5-16.5v-167A16.5 16.5 0 00183.5 0zm6 189.5H9.5V9.5h180z" fill="url(#Безымянный_градиент_14)"/><path d="M109.11 67.49c-.21-2.92-.89-11.41-6-19.22C89.72 27.5 57 29.52 45.28 30.25A103.87 103.87 0 0027.3 33v121.84l27.18-.15-.14-43.9a67.76 67.76 0 0010.47 0c10.19-.81 27.35-2.17 37.36-16.2 7.32-10.25 7.27-22.3 6.94-27.1zM80.38 80.81C75.91 87.3 68 88 63.68 88.38a30.38 30.38 0 01-9.2-.6q.06-17.86.14-35.73a43.39 43.39 0 018.07-.45c6.55.25 13.34.51 17.4 5.6 2.93 3.66 3.13 8.22 3.26 10.9.1 2.24.36 7.9-2.97 12.71zm85.76 64.94c-6.45 7.05-14.69 7.68-23.21 8.33a60.6 60.6 0 01-30-5.6q.21-9.61.43-19.23c3.84 1.81 7 3 9.19 3.79 14.86 5.25 20.92 3.29 22.79 2.57 2.52-1 3.83-2.19 4.53-3.63 1.3-2.68.3-5.7 0-6.51-1.52-4-5.29-5.28-11.89-8.48-8.43-4.08-12.64-6.12-15.71-8.93a27.8 27.8 0 01-9.06-15.44c-.15-.82-2.21-12.74 5.24-21.5 4.25-5 9.36-6.33 14.58-7.72 11.62-3.07 21.64-.17 27.74 1.67a65.58 65.58 0 0110.89 4.39q-3.18 8.48-6.37 17a46 46 0 00-6.08-2.72c-7-2.53-20-5.25-22.93 0a6.06 6.06 0 00-.42 4.09c.57 2.86 2.87 4.89 9.62 8.47 4.66 2.48 8.13 4.3 8.41 4.43 2 .94 15.78 7.53 18.91 20.55 2.1 8.72-1.11 18.42-6.66 24.47z" fill="#e2ebed"/></g></g></svg>