<svg width="150" height="150" xmlns="http://www.w3.org/2000/svg" viewBox="0 0 200 200"><defs><linearGradient id="Безымянный_градиент_14" x1="195.17" y1="195.17" x2="4.83" y2="4.83" gradientUnits="userSpaceOnUse"><stop offset="0" stop-color="#01377a"/><stop offset="1" stop-color="#00acf8"/></linearGradient></defs><g id="Слой_2" data-name="Слой 2"><g id="Слой_1-2" data-name="Слой 1"><path d="M183.5 0h-167A16.5 16.5 0 000 16.5v167A16.5 16.5 0 0016.5 200h167a16.5 16.5 0 0016.5-16.5v-167A16.5 16.5 0 00183.5 0zm6 189.5H9.5V9.5h180z" fill="url(#Безымянный_градиент_14)"/><path d="M123 133.71l-4.13 7.2-1.35 23.5c0 2.61-8.29 4.72-18.48 4.72s-18.47-2.13-18.47-4.72l-1.7-23.26-4.37-7.44c12.08 5.06 36.92 4.89 48.5 0zM65.6 59.49l4 36.77c1.73-5.86 6.1-13.77 11.72-16.17a5.79 5.79 0 015.48.26 7.31 7.31 0 013 3.46c.35 1.9-.59 2.67-1.32 2.67s-1.55-1.35-2-2.14c-1.2-2.14-3-2.23-5-.82a20 20 0 00-5 6.06A34.48 34.48 0 0073 97.84c-.44 1.64-.85 4.28-.17 5.83a1.52 1.52 0 001.43 1.06c1.47 0 3.61-1.93 4.63-3a22 22 0 003.66-4.69l1.45-4.5c.76-2 2.9-1.64 2.9 0 0 3-1.09 4-2.93 10.17-1.7 5.71-2.23 7.56-2.23 7.56-.2.82-1 2.19-1.85 2.19a.83.83 0 01-.76-.35 3.83 3.83 0 01-.23-1.84c.06-.94 1.84-6.51 2.14-7.39-.59.65-1.2 1.29-1.88 1.94-1.58 1.49-4.13 3.45-6.3 3.45a3.55 3.55 0 01-2.25-.7l2.22 23.32c.59 1.47 11.49 5 25.85 5s25.28-3.57 25.84-5l3.19-27.71c-1.67 1.52-3.6 3.4-5.74 4.33-1.58.68-5.1 1.12-5.1-1.67 0-1.52 2.67-4.33 4.22-6.3a5.91 5.91 0 001.38-2.37c0-.85-1.76-.64-3.43.73a16.81 16.81 0 00-2.55 2.84 23.75 23.75 0 00-2.49 4.55c-1.82 4.16-1.2 2.52-2.67 6.44s-1.23 3.46-1.52 4.1a2.85 2.85 0 01-1.17 1.32 1.76 1.76 0 01-1.79-.09 1.24 1.24 0 01-.38-1.08 3.55 3.55 0 01.09-.79c.44-1.79 2.28-5.3 4.39-10 .47-1.08.29-.76.24-.67a15.55 15.55 0 01-4.22 3.07c-1.7.76-3.81.76-4.25-1.2 0-.12 0-.23-.06-.35-3.46 2.69-7.12 3.43-5.86-2.37-1.32 2.33-3.66 4.33-6.53 4.33a2.42 2.42 0 01-2.52-1.49c-.68-1.61.38-4.37 1.35-7a51.6 51.6 0 012.08-4.74 1.89 1.89 0 012.22-1.32 2.89 2.89 0 01.47.2c.76.53.47 1.32.09 2.11a32.68 32.68 0 00-2.73 6.1c-.26 1-.58 2.63.44 2.63a3.4 3.4 0 002-.7 12.59 12.59 0 003.25-4 20.61 20.61 0 001.64-3.61 8.63 8.63 0 01.53-1.4c.32-.74.76-1.5 1.52-1.5a1.18 1.18 0 01.94.44 1.93 1.93 0 01.11 2c-.58 1.64-1.37 3.11-2 4.9a10.77 10.77 0 00-.79 3.42c0 1 1.09.77 2 .36a9.24 9.24 0 002-1.32c.35-1.44.26-1.12 7.73-20a1.92 1.92 0 011.79-1.38 1.64 1.64 0 01.94.32 1.71 1.71 0 01.29 1.82c-.21.55-.18.38-1.32 3.07-1.52 3.55-2.52 6.1-3.87 9.35-.55 1.35-2.25 5.54-2.55 6.53-.17.65-.38 1.7.3 1.7 1.58 0 5.65-3.84 6.76-5a.53.53 0 01.27-.17c.17-.56.35-1.09.5-1.62a11.16 11.16 0 011.55-3.31 1 1 0 01.79-.46c.82 0 1.23.35 1.23 1.17A9.55 9.55 0 01117 97c.41-.44.85-.88 1.32-1.31 4.39-4.08 7.53-2 7.53.05s-2.61 5.19-4 6.86a10.18 10.18 0 00-1.46 1.87c0 .39.26.53.64.53.59 0 1.88-1 2.35-1.37 1.46-1.15 3.45-2.91 4.86-4.14l4.34-40.08c-8.94 5-57.9 5-66.89.06zM132.9 57c0 6.15-67.74 6.15-67.74 0 0-2.58 15.18-4.66 33.87-4.66 2.63 0 5.21 0 7.7.12l3.69-14.27 18-18.9c.41-.41 1.69-.05 2.9 1s1.93 2.31 1.55 2.72L116 40.8l-2.93 11.92c11.71.77 19.83 2.38 19.83 4.28zm-20.34 1.35c0-.24-.26-.44-.73-.62l-.06.24c0 .38-1.46.7-3.25.7s-3.25-.32-3.25-.7a.11.11 0 010-.09l.06-.2c-.53.17-.88.41-.88.67 0 .61 1.81 1.08 4 1.08s4.07-.47 4.07-1.08z" fill="#e2ebed"/></g></g></svg>