<svg width="90" height="90" xmlns="http://www.w3.org/2000/svg" viewBox="0 0 70 70"><defs><linearGradient id="Безымянный_градиент_5" x1="64.89" y1="64.89" x2="5.11" y2="5.11" gradientUnits="userSpaceOnUse"><stop offset="0" stop-color="#1c6cce"/><stop offset="1" stop-color="#c93a48"/></linearGradient></defs><g id="Слой_2" data-name="Слой 2"><g id="Слой_1-2" data-name="Слой 1"><path d="M47.32 8.81H23.16A5.06 5.06 0 0018 13.75v42.81a5.06 5.06 0 005.18 4.94h24.14a5.06 5.06 0 005.18-4.94V13.75a5.06 5.06 0 00-5.18-4.94zM40.8 58.65a1.79 1.79 0 01-2 1.53h-7.15a1.79 1.79 0 01-2-1.53v-.74a1.79 1.79 0 012-1.51h7.18a1.81 1.81 0 012 1.51zm6.7-7.54a1.36 1.36 0 01-1.31 1.39h-21.9A1.36 1.36 0 0123 51.11V14.89a1.36 1.36 0 011.31-1.39h21.9a1.36 1.36 0 011.31 1.39z" fill="#e2ebed"/><path d="M40.8 57.91v.74a1.79 1.79 0 01-2 1.53h-7.15a1.79 1.79 0 01-2-1.53v-.74a1.79 1.79 0 012-1.51h7.18a1.81 1.81 0 011.97 1.51z" fill="none"/><path d="M52.57 0H17.43A17.44 17.44 0 000 17.43v35.14A17.44 17.44 0 0017.43 70h35.14A17.44 17.44 0 0070 52.57V17.43A17.44 17.44 0 0052.57 0zM65 53a12 12 0 01-12 12H17A12 12 0 015 53V17A12 12 0 0117 5h36a12 12 0 0112 12z" fill="url(#Безымянный_градиент_5)"/></g></g></svg>