<svg width="90" height="90" xmlns="http://www.w3.org/2000/svg" viewBox="0 0 70 70"><defs><linearGradient id="Безымянный_градиент_5" x1="64.89" y1="64.89" x2="5.11" y2="5.11" gradientUnits="userSpaceOnUse"><stop offset="0" stop-color="#1c6cce"/><stop offset="1" stop-color="#c93a48"/></linearGradient></defs><g id="Слой_2" data-name="Слой 2"><g id="Слой_1-2" data-name="Слой 1"><path d="M52.57 0H17.43A17.44 17.44 0 000 17.43v35.14A17.44 17.44 0 0017.43 70h35.14A17.44 17.44 0 0070 52.57V17.43A17.44 17.44 0 0052.57 0zM65 53a12 12 0 01-12 12H17A12 12 0 015 53V17A12 12 0 0117 5h36a12 12 0 0112 12z" fill="url(#Безымянный_градиент_5)"/><path d="M61.2 22.69c.37-1.25 0-2.17-1.8-2.17h-6a2.55 2.55 0 00-2.59 1.67s-3 7.31-7.33 12c-1.39 1.37-2 1.81-2.79 1.81-.37 0-.95-.44-.95-1.69V22.69c0-1.5-.42-2.17-1.68-2.17h-9.35a1.43 1.43 0 00-1.52 1.35c0 1.42 2.15 1.75 2.37 5.75v8.67c0 1.9-.34 2.25-1.1 2.25-2 0-6.95-7.34-9.86-15.73-.59-1.63-1.17-2.29-2.7-2.29h-6c-1.7 0-2 .79-2 1.67 0 1.56 2 9.3 9.43 19.54 4.93 7 11.88 10.77 18.2 10.77 3.8 0 4.26-.84 4.26-2.29 0-6.67-.34-7.3 1.56-7.3.88 0 2.4.44 5.94 3.8 4.06 4 4.72 5.79 7 5.79h6c1.7 0 2.56-.84 2.06-2.5-1.13-3.49-8.8-10.66-9.14-11.14-.88-1.12-.63-1.62 0-2.62-.04-.01 7.24-10.12 7.99-13.55z" fill="#fff"/></g></g></svg>