<svg xmlns="http://www.w3.org/2000/svg" xmlns:xlink="http://www.w3.org/1999/xlink" viewBox="0 0 111.67 75"><defs><linearGradient id="Безымянный_градиент_5" x1="12.64" y1="10.19" x2="22.45" y2="10.19" gradientUnits="userSpaceOnUse"><stop offset="0" stop-color="#4f8088"/><stop offset="1" stop-color="#6cb7b7"/></linearGradient><linearGradient id="Безымянный_градиент_5-2" x1="58.86" y1="5.22" x2="65.18" y2="5.22" xlink:href="#Безымянный_градиент_5"/><linearGradient id="Безымянный_градиент_5-3" x1="5.99" y1="31.53" x2="13.97" y2="31.53" xlink:href="#Безымянный_градиент_5"/><linearGradient id="Безымянный_градиент_5-4" x1="13.36" y1="62.94" x2="25.53" y2="62.94" xlink:href="#Безымянный_градиент_5"/><linearGradient id="Безымянный_градиент_5-5" x1="55.34" y1="69.74" x2="60.89" y2="69.74" xlink:href="#Безымянный_градиент_5"/><linearGradient id="Безымянный_градиент_5-6" x1="90.47" y1="68.91" x2="100.44" y2="68.91" xlink:href="#Безымянный_градиент_5"/><linearGradient id="Безымянный_градиент_5-7" x1="103.65" y1="31.52" x2="111.46" y2="31.52" xlink:href="#Безымянный_градиент_5"/><linearGradient id="Безымянный_градиент_5-8" x1="0" y1="37.5" x2="111.67" y2="37.5" xlink:href="#Безымянный_градиент_5"/><style>.cls-9{fill:#fff}</style></defs><g id="Слой_2" data-name="Слой 2"><g id="Слой_2-2" data-name="Слой 2"><path d="M20.79 7.33c1.89 2.19 2.29 6 .57 7.4-1.94 1.64-6.38.14-8-2.84C12.4 10 12.21 7 14 5.63c1.9-1.5 5.17-.17 6.79 1.7z" fill="url(#Безымянный_градиент_5)"/><path d="M59.49 1.07a3.21 3.21 0 013.42-.56c2.15.89 2.26 4.05 2.27 4.55.07 2.21-1 5-2.27 5.12-2.11.14-5.44-6.84-3.42-9.11z" fill="url(#Безымянный_градиент_5-2)"/><path d="M6 31.24a3.89 3.89 0 013.41-3.42c2.28-.27 4.71 1.69 4.55 4a4 4 0 01-4.55 3.41A3.94 3.94 0 016 31.24z" fill="url(#Безымянный_градиент_5-3)"/><path d="M18 57.41a6.11 6.11 0 017.39 4 6 6 0 01-3.41 6.83c-3.45 1.48-8.07-1-8.54-4.56A6.08 6.08 0 0118 57.41z" fill="url(#Безымянный_градиент_5-4)"/><path d="M56.08 72.78c-1-.65-.92-3 0-4.55a3.1 3.1 0 012.27-1.71 2.46 2.46 0 012.28 1.14 2.69 2.69 0 010 2.27c-.75 2.07-3.37 3.59-4.55 2.85z" fill="url(#Безымянный_градиент_5-5)"/><path d="M91.36 63.67c1.68-1.25 5.52.8 7.4 3.42 1.1 1.53 2.46 4.54 1.14 6.26a3.38 3.38 0 01-2.28 1.14c-2.66.31-5.19-2.21-6.26-4.56-.86-1.87-1.47-5.16 0-6.26z" fill="url(#Безымянный_градиент_5-6)"/><path d="M103.88 34.08c-.82-1.49.82-3.58 1.14-4s2.46-3 4.55-2.28a3.07 3.07 0 011.71 1.71c.69 1.8-.7 3.69-1.71 4.55a4.68 4.68 0 01-4 1.14 2.67 2.67 0 01-1.69-1.12z" fill="url(#Безымянный_градиент_5-7)"/><path d="M70.3 14.16C73.47 11.49 69.11 4 72.58 1.07a6 6 0 016.83 0c3 2.36.23 7.08 4 12.52 2 3 4.12 3.38 4.56 3.46a6 6 0 003.41-.5c2.22-1.05 2.72-2.55 5.39-6.21 3.09-4.24 4-4.46 4.55-4.46 2.12 0 3.71 3 4 3.47 2.76 5.17.08 11.25-1.14 13.9-2.6 5.69-5.63 7.41-4.83 11.17a6.69 6.69 0 002.27 4c3.2 2.6 7.58.83 9.39 3.23a3.25 3.25 0 010 4c-1.47 1.59-4.49 0-7.11 1.73a4.77 4.77 0 00-2.28 4c.26 3.22 5.69 3.78 6 6.71.22 2.26-2.71 5.1-5.69 5.46-3.89.47-5.85-3.53-10-2.73a8.54 8.54 0 00-4 2 5.48 5.48 0 00-1.14 1.49c-1.66 3.18.9 6.19-.57 8-1 1.21-3.27 1.36-4 .57-.86-1 1-2.87 0-4.55a4 4 0 00-3.41-1.55 4.91 4.91 0 00-2.85 1c-4 2.85-3.43 6.46-6 7.19a4.7 4.7 0 01-4.55-1.49c-2-2.65 2.79-6.47.85-9.18-1.18-1.65-4.19-2-6-1.74s-2.83 1-5.12 2.49c-2.94 2-3.2 2.85-5.4 3.72-1.54.61-4 1.19-4.56.49s1.76-2.26 2.36-5.56c.18-1 .43-2.47-.57-3.47a4.3 4.3 0 00-2.85-1c-4.61 0-5.91 7-10.52 7.19-1.8.07-3.76-.92-4-2-.38-1.84 4.62-3 4.84-6.21a4.56 4.56 0 00-1.14-3 9 9 0 00-5.12-3C21.65 50.65 17.8 55.54 10.83 55 4.94 54.57-.37 50.45 0 48.56c.61-2.93 16.05-5.05 22.47-5.44 1-.06 3.42-.18 4.69-1.88 1.12-1.5 1.29-4.22 0-5.62-2.49-2.69-8.87 1.08-10.66-1.45a2.9 2.9 0 010-3c1.7-2.69 9.35-1.44 10.53-1.24 1.85.32 2.95.72 3.88 0 1.16-.85 1.53-3 .93-4.68-1.28-3.59-6.32-3-7.37-6-.72-2.12.56-5.68 2.85-6.45 4.27-1.45 8.91 6.35 16.22 5.21 1.18-.19 2.95-.38 3.41-1.49C48.36 13.13 35.4 6.6 36.71 2.75 37.35 1 41.06.08 44.12.51c7.27 1 8 8.87 17.36 12.81 2.06.86 6.57 2.75 8.82.84z" fill="url(#Безымянный_градиент_5-8)"/><path class="cls-9" d="M38.8 2.05a.69.69 0 00.05.56c.3.52 1.31.44 1.75.42a9.92 9.92 0 015.25 1.26 12.79 12.79 0 012.51 2.64A19.46 19.46 0 0047 4.19c-1.62-2.44-4.86-3-6.53-2.86-.47.04-1.47.14-1.67.72zM27.62 14.73c.08.19.61 0 1.71 0 1.27 0 1.68.11 1.71 0a2.63 2.63 0 00-2.8-.7c-.35.18-.69.54-.62.7zm-9.25 17.55c.15.14.59-.19 1.58-.65 1.15-.53 1.59-.54 1.58-.65a2.62 2.62 0 00-2.85.41c-.26.31-.43.77-.31.89zM2.58 48.31c.07.3 1.58.31 2.85 0s1.57-.85 2.84-1.14a7.78 7.78 0 012.85 0 8.23 8.23 0 00-4-.57c-2.4.19-4.63 1.33-4.54 1.71zM15.67 6.77a2.81 2.81 0 012.33.56c.62.39 1.23 1 1.13 1.14s-.91-.42-2.27-.57-2.15.27-2.28 0S15 7 15.67 6.77zM9.09 28.75c1-.39 2.22.45 2.16.69s-.41 0-1.25.2c-1.28.24-1.83.73-2 .56s.29-1.15 1.09-1.45zM15.56 60a8.28 8.28 0 001.82-.3c1.9-.38 2.06-.5 2.84-.57 1.41-.12 2.25.13 2.28 0a3.91 3.91 0 00-2.39-.84c-2.47-.19-4.64 1.47-4.55 1.71zM75 .93a2.82 2.82 0 012.27.57c.62.39 1.24 1 1.14 1.14s-.91-.42-2.28-.57-2.14.27-2.27 0 .4-.91 1.14-1.14zm-13.8.14a1.93 1.93 0 011.71 0c.45.32.72 1 .56 1.12s-1-.59-2.27-.55c-.6 0-1 .22-1.05.12s.47-.48 1.05-.69zM103 8.29c-.18-.39-.49-1.08-1.18-1.23-.54-.12-1.18.13-1.2.36s1.11.3 2 1.26c.4.45.54.88.63.84s.03-.67-.25-1.23zm7.18 20.27A1.4 1.4 0 00109 28c-.41.07-.78.42-.72.58s.84-.1 1.7.33c.39.19.61.45.67.4s-.14-.44-.47-.75z"/><path d="M34 36.51a5.12 5.12 0 01-4.08-1.81 7.59 7.59 0 01-1.56-5.1 11.92 11.92 0 011-4.87 9.07 9.07 0 012.94-3.63 7.39 7.39 0 017.82-.51 2.65 2.65 0 011.47 2.33 3.21 3.21 0 01-.79 2.26 7.39 7.39 0 01-2.15-.38 4.91 4.91 0 01-1.81-.9l.44-2.26a2.15 2.15 0 00-1-.24c-.9 0-1.7.79-2.38 2.36a13.52 13.52 0 00-1 5.47q0 4.69 2.65 4.7a5.63 5.63 0 003.54-1.72l1.09 1.09a5.76 5.76 0 01-1 1 10 10 0 01-1.47 1.1 8 8 0 01-1.72.76 6.17 6.17 0 01-1.99.35zm13.15-.72a8.15 8.15 0 01-3.35.61 5.57 5.57 0 01-1.21-.12 40.79 40.79 0 011.3-6.91 40.37 40.37 0 001.33-6.8 2.62 2.62 0 00-.84-1.49l-.25-.3.07-.52a40.86 40.86 0 017-.55 6.57 6.57 0 013.68.9 2.92 2.92 0 011.35 2.61 5.59 5.59 0 01-.93 3.12 6.3 6.3 0 01-2.66 2.19 27.89 27.89 0 001.46 4.07q.69 1.47 1.14 1.47a3.85 3.85 0 001.16-.28l.28-.09.56 1.3a7 7 0 01-4.33 1.56 2.88 2.88 0 01-3-2.28 30.24 30.24 0 01-1-5h-.82a39.49 39.49 0 00-.98 6.51zm2-8.54a1.91 1.91 0 001.28-.47 2.76 2.76 0 00.83-1.21 8.39 8.39 0 00.52-2.84c0-.91-.41-1.37-1.24-1.37a3.71 3.71 0 00-.74.07q0 .72-1.14 5.77a1.93 1.93 0 00.46.05zm12 8.68c-.11.34-.48.51-1.1.51a3.21 3.21 0 01-1.81-.62c.48-1.31 1.43-3.47 2.86-6.5a63.49 63.49 0 002.9-6.8 2.34 2.34 0 00.07-.46 1.56 1.56 0 00-.16-.56 2.36 2.36 0 00-.35-.56l-.17-.21.1-.47a19.1 19.1 0 014.91-.55l1.79.09a2.49 2.49 0 01.47 1.09 14.09 14.09 0 01.3 2.66q.07 1.77.09 6.63 0 3.75.93 3.75a4.81 4.81 0 001-.23l.24-.07.44 1.37a8.39 8.39 0 01-4.54 1.56 2.21 2.21 0 01-2.05-.9 4.74 4.74 0 01-.54-2.38v-2a9.25 9.25 0 00-1.73-.1 8.43 8.43 0 00-2.21.26c-.54 1.46-1.05 2.99-1.48 4.49zm5.54-6.68c.08-1.35.12-2.71.12-4.07a13.14 13.14 0 00-.24-3 .82.82 0 00-.32 0q-.51 1.56-2.75 7zM86.3 35a3.17 3.17 0 01-1.1 1.42 2.88 2.88 0 01-1.63.42 10.21 10.21 0 01-3.28-1 9.84 9.84 0 00-3.4-1 4.68 4.68 0 00-.53.61c-.49.68-.85 1-1.1 1a1.56 1.56 0 01-.88-.37 4.12 4.12 0 01-.86-.86 16.85 16.85 0 012.39-3.49Q77.43 30 79.22 28a33.29 33.29 0 003.09-4.09c-1.38-.11-2.49-.17-3.35-.17a5.8 5.8 0 00-2.88.58l-.33.19a10.86 10.86 0 01-.47-1.4A7 7 0 0175 21.4a4.05 4.05 0 01.12-1.09 7 7 0 012.88-.63 26.43 26.43 0 013.52.28 25.2 25.2 0 003.09.28 10.28 10.28 0 002.2-.24l.53 1.19A43.89 43.89 0 0183 26.71c-1.87 2.1-3.18 3.69-4 4.77a17.16 17.16 0 012.84.61 12.69 12.69 0 002.49.54A2 2 0 0086 31.55l1.18.47A13.52 13.52 0 0186.3 35zm10.45 5.37a6.17 6.17 0 01-1.79.89 6.54 6.54 0 01-1.72.21 2.71 2.71 0 01-1.73-.63 1.93 1.93 0 01-.77-1.54 2.7 2.7 0 01.45-1.56 3.78 3.78 0 011.32-1.07 15.63 15.63 0 013.82-1.28 16.27 16.27 0 00.54-1.7 13 13 0 01-2.35.91A8.87 8.87 0 0192 35a2.63 2.63 0 01-1.86-.72 2.77 2.77 0 01-.74-2 23.64 23.64 0 01.84-4.7 23.45 23.45 0 00.86-4.89 2.14 2.14 0 00-.24-.93 4.16 4.16 0 00-.46-.81l-.21-.28.07-.47a18.35 18.35 0 015-.46 4.08 4.08 0 01.44 2.07 25.94 25.94 0 01-.88 4.93 32.26 32.26 0 00-.89 4.26c0 .78.28 1.17.82 1.17a5.91 5.91 0 002.68-.84c.51-2.17.94-4.31 1.3-6.4a30.22 30.22 0 00.53-4.57 9.51 9.51 0 012-.49 15.21 15.21 0 012.07-.18h.51a36.72 36.72 0 01-.94 6.31c-.24 1-.58 2.58-1 4.63a25.71 25.71 0 01-1.51 5 12.43 12.43 0 01-1.72 3 8.53 8.53 0 01-1.92 1.72zm-4.28-1.49c0 .35.22.52.67.52a2.31 2.31 0 001.49-.79A4.89 4.89 0 0095.8 37a7.88 7.88 0 00-2.36.72c-.65.36-.97.74-.97 1.14zm-57.3 4.31c.81 0 1.49 0 2 .07a10.09 10.09 0 011.56.19c.46.08.95.18 1.46.32L39.92 47h-4.75a2.57 2.57 0 00-1.52.4 2.25 2.25 0 00-.74 1.4 14.39 14.39 0 00-.21 2.81 14.58 14.58 0 00.21 2.82 2.28 2.28 0 00.74 1.4 2.57 2.57 0 001.52.39h2.82c.76 0 1.52-.09 2.28-.19l.32 3.19a12 12 0 01-2.4.56 23 23 0 01-3 .16A9.21 9.21 0 0131 59a4.76 4.76 0 01-2.23-2.63 14.38 14.38 0 01-.68-4.89 14.38 14.38 0 01.68-4.89A4.63 4.63 0 0131 44a8.93 8.93 0 014.17-.83zm14.54 0a12.84 12.84 0 013.68.44 3.44 3.44 0 012.07 1.49 5.35 5.35 0 01.68 2.91 4.75 4.75 0 01-.7 2.63A3.2 3.2 0 0153 52v.14a3.45 3.45 0 01.93.3 2.59 2.59 0 01.93.75 3.4 3.4 0 01.63 1.42l1.32 4.95h-4.63L51 54.7a1.67 1.67 0 00-.54-1 1.6 1.6 0 00-1-.26h-1.98v6.07h-4.29V43.45c.69-.06 1.33-.11 1.93-.14s1.27-.07 2-.07zm-.09 3.16h-2.14v3.95h2.14a2.59 2.59 0 001.67-.4 2 2 0 00.45-1.56 2 2 0 00-.45-1.56 2.59 2.59 0 00-1.67-.4zM66 43.12a12.52 12.52 0 013.38.4 4.46 4.46 0 012.21 1.35 5.49 5.49 0 011.24 2.56 17.55 17.55 0 01.39 4 18 18 0 01-.39 4.08 5.64 5.64 0 01-1.24 2.56 4.56 4.56 0 01-2.21 1.32 14.44 14.44 0 01-6.75 0 4.75 4.75 0 01-2.24-1.32 6.06 6.06 0 01-1.23-2.56 18.68 18.68 0 01-.37-4.08 18.26 18.26 0 01.37-4 5.89 5.89 0 011.23-2.56 4.64 4.64 0 012.24-1.35 12.44 12.44 0 013.37-.4zm0 3.33a2.69 2.69 0 00-1.6.42 2.47 2.47 0 00-.79 1.52 15.27 15.27 0 00-.24 3.09 15.32 15.32 0 00.24 3.1 2.44 2.44 0 00.79 1.51 2.69 2.69 0 001.6.42 2.6 2.6 0 001.59-.42 2.3 2.3 0 00.79-1.51 16.24 16.24 0 00.23-3.1 16.19 16.19 0 00-.23-3.09 2.33 2.33 0 00-.79-1.52 2.6 2.6 0 00-1.59-.42zm16-3.33c.82 0 1.73.07 2.72.17a14 14 0 012.89.58l-.28 2.84-2.52-.05h-2.88a3.93 3.93 0 00-1.49.19c-.27.11-.4.38-.4.83a1.13 1.13 0 00.33.87 4.38 4.38 0 001.21.58l3 1.12a5.93 5.93 0 012.73 1.9A5 5 0 0188 55a5.77 5.77 0 01-.61 2.87 3.28 3.28 0 01-2 1.49 12.79 12.79 0 01-3.73.44q-.81 0-2.4-.12a21.46 21.46 0 01-3.54-.6l.26-3.07 3.49.09h2.14a4.37 4.37 0 001.63-.1.85.85 0 00.4-.84 1.08 1.08 0 00-.28-.84 2.52 2.52 0 00-1-.51l-3.22-1.28a6.09 6.09 0 01-2.7-1.87 4.9 4.9 0 01-.79-2.88 5.42 5.42 0 01.61-2.84 3.3 3.3 0 012-1.4 14.05 14.05 0 013.66-.42zm14.63 0c.82 0 1.73.07 2.73.17a13.88 13.88 0 012.88.58l-.28 2.84-2.51-.05h-2.89a4 4 0 00-1.49.19c-.26.11-.39.38-.39.83a1.16 1.16 0 00.32.87 4.7 4.7 0 001.21.58l3 1.12a5.84 5.84 0 012.72 1.9 4.93 4.93 0 01.79 2.91 5.78 5.78 0 01-.6 2.87 3.27 3.27 0 01-2 1.49 12.76 12.76 0 01-3.72.44q-.83 0-2.4-.12a21.46 21.46 0 01-3.54-.6l.26-3.07 3.49.09h2.14a4.37 4.37 0 001.53-.16.87.87 0 00.39-.84 1.11 1.11 0 00-.27-.86 2.5 2.5 0 00-1-.51l-3.21-1.28a6.09 6.09 0 01-2.7-1.87 4.83 4.83 0 01-.79-2.88 5.53 5.53 0 01.6-2.84 3.33 3.33 0 012-1.4 14.05 14.05 0 013.65-.4z" fill="#352a2a"/><path class="cls-9" d="M93.84 64.71a1.41 1.41 0 00-1.15-.53c-.41.07-.78.42-.72.58s.84-.1 1.7.33c.39.2.61.45.67.4s-.17-.49-.5-.78zm-34.58 2.93a1.4 1.4 0 00-1.15-.52c-.41.07-.78.42-.72.58s.84-.1 1.7.33c.39.19.61.45.67.4s-.17-.43-.5-.79z"/></g></g></svg>