<svg xmlns="http://www.w3.org/2000/svg" xmlns:xlink="http://www.w3.org/1999/xlink" viewBox="0 0 1958.95 1987.46"><defs><linearGradient id="Безымянный_градиент_8" x1="1236.61" y1="537.08" x2="1719.61" y2="537.08" gradientUnits="userSpaceOnUse"><stop offset="0" stop-color="#6a6e8b"/><stop offset="1" stop-color="#9fa6c3"/></linearGradient><linearGradient id="Безымянный_градиент_8-2" x1="236.19" y1="1452.27" x2="719.19" y2="1452.27" xlink:href="#Безымянный_градиент_8"/><linearGradient id="Безымянный_градиент_8-3" x1="791.35" y1="1586.2" x2="1704.37" y2="1586.2" xlink:href="#Безымянный_градиент_8"/><linearGradient id="Безымянный_градиент_8-4" x1="260.76" y1="401.97" x2="1172.9" y2="401.97" xlink:href="#Безымянный_градиент_8"/><linearGradient id="Безымянный_градиент_8-5" x1="1049.43" y1="1129.45" x2="1958.95" y2="1129.45" xlink:href="#Безымянный_градиент_8"/><linearGradient id="Безымянный_градиент_8-6" x1="0" y1="863.31" x2="909.52" y2="863.31" xlink:href="#Безымянный_градиент_8"/><linearGradient id="Безымянный_градиент_8-7" x1="244.61" y1="422.58" x2="417.61" y2="422.58" xlink:href="#Безымянный_градиент_8"/><linearGradient id="Безымянный_градиент_8-8" x1="1547.04" y1="1578.03" x2="1720.04" y2="1578.03" xlink:href="#Безымянный_градиент_8"/><linearGradient id="Безымянный_градиент_8-9" x1="23.01" y1="1296.48" x2="199.45" y2="1296.48" xlink:href="#Безымянный_градиент_8"/><linearGradient id="Безымянный_градиент_8-10" x1="1759.98" y1="697.46" x2="1936.97" y2="697.46" xlink:href="#Безымянный_градиент_8"/><linearGradient id="Безымянный_градиент_8-11" x1="760.84" y1="1875.77" x2="936.59" y2="1875.77" xlink:href="#Безымянный_градиент_8"/><linearGradient id="Безымянный_градиент_8-12" x1="1018.75" y1="123.16" x2="1195.21" y2="123.16" xlink:href="#Безымянный_градиент_8"/><linearGradient id="Безымянный_градиент_8-13" x1="793.06" y1="995.96" x2="1154.44" y2="995.96" xlink:href="#Безымянный_градиент_8"/></defs><g id="Слой_2" data-name="Слой 2"><g id="Слой_2-2" data-name="Слой 2"><path d="M1236.61 10.58l3 1053 477-277 3-496z" fill="url(#Безымянный_градиент_8)"/><path d="M719.19 1978.77l-3-1053-477 277-3 496z" fill="url(#Безымянный_градиент_8-2)"/><path d="M1704.37 1709.54l-913-524.6q.48 275.79 1 551.59l427.85 250.93z" fill="url(#Безымянный_градиент_8-3)"/><path d="M260.76 276.32l911.29 527.61q.42-275.79.85-551.59L745.87 0z" fill="url(#Безымянный_градиент_8-4)"/><path d="M1958.28 727l-908.85 531.79 479.2 273.18L1959 1285.26q-.38-279.15-.72-558.26z" fill="url(#Безымянный_градиент_8-5)"/><path d="M.67 1265.79L909.52 734l-479.2-273.18L0 707.5q.33 279.15.67 558.29z" fill="url(#Безымянный_градиент_8-6)"/><path d="M244.61 320.58l173 102-172 102q-.51-102-1-204z" fill="url(#Безымянный_градиент_8-7)"/><path d="M1720 1680l-173-102 172-102q.54 102 1 204z" fill="url(#Безымянный_градиент_8-8)"/><path d="M23 1294.06l175.54-97.56.9 200z" fill="url(#Безымянный_градиент_8-9)"/><path d="M1937 702.54l-177 94.9q1.07-100 2.12-200z" fill="url(#Безымянный_градиент_8-10)"/><path d="M762 1976.19l-1.11-200.83 175.75 95.39z" fill="url(#Безымянный_градиент_8-11)"/><path d="M1195.21 22.75l-2.4 200.81-174.06-98.44z" fill="url(#Безымянный_градиент_8-12)"/><path d="M793.06 886.82l181.2-102.34 180.18 106.14q-.54 105.33-1.07 210.68l-184 106.14-175.13-112.09q-.58-104.27-1.18-208.53z" fill="url(#Безымянный_градиент_8-13)"/><g id="Слой_2-3" data-name="Слой 2"><path d="M221.53 930.36a118.49 118.49 0 01-94.73-43.65A176.35 176.35 0 0190.35 768a274.86 274.86 0 0123.35-113.31 208.46 208.46 0 0168.3-84.47 171.55 171.55 0 01182-10.91 61.54 61.54 0 0134.27 54.35 72.29 72.29 0 01-18.5 52.34 174.66 174.66 0 01-49.77-8.47 117.58 117.58 0 01-42.35-21.83l10.26-52.6a49.34 49.34 0 00-21.82-5.46c-21.83 0-39.29 18.34-55.23 54.79a314.1 314.1 0 00-23.78 127.47q0 109.1 61.77 109.1a131 131 0 0082.29-40.16l25.54 25.54a135.33 135.33 0 01-21.83 23.35 230.81 230.81 0 01-34.05 25.57 200.82 200.82 0 01-40.16 17.9 152.78 152.78 0 01-49.11 9.16zm305.57-16.8a192.26 192.26 0 01-77.92 14 137.81 137.81 0 01-28.18-2.65 927.39 927.39 0 0130.34-161.09 950.55 950.55 0 0030.77-158.24 61.06 61.06 0 00-19.42-34.7l-5.9-8.08 1.53-12a961.78 961.78 0 01164.36-13.32 150.35 150.35 0 0185.56 21.83 67.86 67.86 0 0132.3 60.46 130.93 130.93 0 01-21.83 72.68A143.36 143.36 0 01657 743.31a718 718 0 0034 94.94c10.92 21.83 19.87 34 26.63 34a90.56 90.56 0 0027.07-6.54l6.55-2.19 13.09 29.25a164.1 164.1 0 01-101.49 37.54 67 67 0 01-69-53.25 723.8 723.8 0 01-21.82-115.47h-19a934.61 934.61 0 00-25.32 150.83zm46.71-199.06a43.73 43.73 0 0029.91-10.7 67.21 67.21 0 0019.42-28.16 204 204 0 0012-65.48q0-32.08-28.81-32.08a92.5 92.5 0 00-17.25 1.74q0 16.81-26.63 134.24a37.86 37.86 0 0012-.66zM853 916.83q-3.72 11.79-25.54 11.79A72.88 72.88 0 01785.32 914q16.8-45.62 65.48-151.26a1444.19 1444.19 0 0069-159.77 46.61 46.61 0 001.74-10.69 32.77 32.77 0 00-3.92-13.1 52 52 0 00-8.08-13.1l-3.71-4.8 2.17-10.92a449.32 449.32 0 01114.16-12.88l41.9 2.18a59.66 59.66 0 0110.7 25.54 297.92 297.92 0 017.2 61.77q1.75 41 2.18 154.32c0 58.27 7.42 87.3 21.83 87.3a105.34 105.34 0 0023.36-5.45l5.45-1.53 11.35 30.77a195.12 195.12 0 01-105.86 36.46 51.54 51.54 0 01-47.6-21.84 109.15 109.15 0 01-12-54.13v-47.14a225.14 225.14 0 00-39.94-2.18 196.55 196.55 0 00-51.51 5.89c-13.75 35.8-25.32 71.16-35.58 106.3zm129-155.62c1.75-31.44 2.84-63.08 2.84-95a321.82 321.82 0 00-4.18-70.21 16.43 16.43 0 00-7.63 1.09c-7.86 24-29.25 78.57-64 163zm458.37 133.36a71.7 71.7 0 01-25.54 33 66.81 66.81 0 01-38 9.82 238.81 238.81 0 01-76.39-21.83 230.57 230.57 0 00-79-21.83 103 103 0 00-12.44 14.15c-11.35 15.72-19.86 23.79-25.53 23.79a36.89 36.89 0 01-21.83-8.73 101 101 0 01-19.86-20.08 408.85 408.85 0 0157.18-83.6Q1234.3 778 1276 732a781.37 781.37 0 0072-95.39q-48-3.92-77.92-3.92a130.88 130.88 0 00-67.23 13.75l-7.64 4.14a233.88 233.88 0 01-10.9-32.58 152.29 152.29 0 01-7.2-40.6 101.53 101.53 0 012.62-25.53 164.79 164.79 0 0165.48-14.63 623.09 623.09 0 0181.85 6.55 601.32 601.32 0 0072 6.55 258.49 258.49 0 0052.17-5.89l12.44 27.5a996.84 996.84 0 01-100.4 129q-65.49 73.35-92.11 111.1a392.74 392.74 0 0165.48 14.19 295.2 295.2 0 0058.71 12.44 46.06 46.06 0 0035.8-24.88l27.5 10.91a318.1 318.1 0 01-18.55 68.76zm243.15 123.1a138.77 138.77 0 01-41.69 21.83 152.79 152.79 0 01-40.16 4.8 63.29 63.29 0 01-40.16-14.62 45 45 0 01-17.9-35.8 62.26 62.26 0 0110.47-36.23 85 85 0 0130.78-24.89 345.9 345.9 0 0188.84-29.9 344.8 344.8 0 0012.44-39.51 299.7 299.7 0 01-54.57 21.83 211.15 211.15 0 01-58.06 9.61 60.71 60.71 0 01-43.68-16.79 63.74 63.74 0 01-17.25-47.15A558.3 558.3 0 011532 721.7a546 546 0 0020.08-113.94 49.17 49.17 0 00-5.46-21.82 97.43 97.43 0 00-10.69-19l-5-6.55 1.74-10.7a417 417 0 01115.9-10.91 95.36 95.36 0 0110.25 48.22 604.59 604.59 0 01-20.51 114.81 729 729 0 00-20.52 100.84c0 18.11 6.33 27.06 19 27.06a136 136 0 0062.2-19.42c12-50.64 21.83-100.19 30.34-149.08a715 715 0 0012.44-106.3 212.11 212.11 0 0146.71-11.35 348.16 348.16 0 0148.24-4.36h11.79a831.73 831.73 0 01-21.83 146.89q-8.07 36.24-24 107.83a600.08 600.08 0 01-35.14 114.59 283.92 283.92 0 01-40.16 68.75 191.23 191.23 0 01-43.89 40.41zm-99.75-34.49q0 11.79 15.71 11.79a53.29 53.29 0 0034.71-18.33 113.26 113.26 0 0027.06-36.89 179.14 179.14 0 00-54.78 16.81c-14.63 9.16-22.7 17.46-22.7 27.5zm-1334 84.14c18.77 0 34.7 0 47.8 1.53a274.12 274.12 0 0136.23 4.37c10.91 2 21.83 4.36 34.27 7.64l-7.64 74.86-34.49-1.09h-77.35a58.48 58.48 0 00-35.14 9.17 52.14 52.14 0 00-17.45 32.52 336.43 336.43 0 00-4.8 65.48 338 338 0 004.8 65.48 52.14 52.14 0 0017.46 32.52 58.48 58.48 0 0035.14 9.17h65.48c17.68 0 35.36-2.18 53-4.36l8.95 72.68a300.76 300.76 0 01-55.87 13.09 568.76 568.76 0 01-70.5 3.72 215.94 215.94 0 01-96.48-18.34 112.19 112.19 0 01-51.95-61.33 335.37 335.37 0 01-15.49-113.72A334.92 334.92 0 01101.48 1147a109.19 109.19 0 0152-60.68 209.48 209.48 0 0196.21-19zm338.09 1.1a298.79 298.79 0 0185.78 10.25 81 81 0 0148.24 34.71 124.66 124.66 0 0115.63 67.62 109 109 0 01-16.37 61.34 74 74 0 01-57.84 29.24v3.28a85 85 0 0121.83 7 60 60 0 0121.87 17.48 79.67 79.67 0 0114.62 33l31 115.47H645.84l-26.63-112.19a39.05 39.05 0 00-12.44-21.83 37.91 37.91 0 00-23.35-7.42h-47.37v141.44h-99.53v-373.9c15.94-1.53 31-2.62 45-3.27s29.46-1.75 46-1.75zm-2 90.69h-49.59v91h50a60.08 60.08 0 0038.86-9.17 48.43 48.43 0 0010.47-36.45 46.46 46.46 0 00-10.47-36.23 60 60 0 00-38.86-9.17zm380.88-92.88a287.49 287.49 0 0178.57 9.17 104.32 104.32 0 0151.51 31.43 130.93 130.93 0 0128.81 59.59 406.46 406.46 0 019.17 94.29 412.7 412.7 0 01-9.17 95 133.39 133.39 0 01-28.81 59.8 106.79 106.79 0 01-50.63 30.78 341.45 341.45 0 01-157.16 0 110.25 110.25 0 01-52.82-30.78 138.34 138.34 0 01-28.81-59.59 442.39 442.39 0 01-8.73-94.94 436.37 436.37 0 018.73-94.29 134.74 134.74 0 0128.81-59.59 107.58 107.58 0 0152-31.43 289.66 289.66 0 0178.49-9.44zm0 94.41a62.19 62.19 0 00-37.33 9.82 57.18 57.18 0 00-18.55 35.14 379.48 379.48 0 00-5.24 72 380.86 380.86 0 005.24 72.24 57.2 57.2 0 0018.51 35.16 62.33 62.33 0 0037.33 9.82 60.27 60.27 0 0036.88-9.82 54.15 54.15 0 0018.56-35.15 380.85 380.85 0 005.23-72.24 379.48 379.48 0 00-5.23-72 54.15 54.15 0 00-18.56-35.14 60.13 60.13 0 00-36.88-9.83zm371-94.41c19.21 0 40.16 1.53 63.3 3.71a327.32 327.32 0 0167.23 13.54l-6.55 65.48H1336a96.68 96.68 0 00-34.7 4.36c-6.11 2.4-9.17 9-9.17 19.43a26 26 0 007.64 20.08 99.05 99.05 0 0028.16 13.53l69.84 26a138.37 138.37 0 0163.52 43.65 114.8 114.8 0 0118.34 67.66 134.05 134.05 0 01-14 66.79 77.05 77.05 0 01-45.62 34.71 295.06 295.06 0 01-87.31 10.25 496.59 496.59 0 01-55.88-2.61 514.47 514.47 0 01-82.28-14.19l5.89-71.59 81.41 2.18h49.77a99.43 99.43 0 0036.23-4.37 19.85 19.85 0 009.39-19.64 25.11 25.11 0 00-6.55-19.43 60.74 60.74 0 00-23.79-12l-73.78-29.25a139.46 139.46 0 01-62.86-43.65 114 114 0 01-18.55-67.23 128.3 128.3 0 0114.19-65.48 78.1 78.1 0 0146.49-32.52 327.36 327.36 0 0185.78-9.39zm341.37 0c19.21 0 40.16 1.53 63.3 3.71a327.32 327.32 0 0167.23 13.54l-6.33 65.48h-125.93a94.62 94.62 0 00-34.49 4.36c-6.33 2.4-9.39 9-9.39 19.43a26 26 0 007.64 20.08 99.05 99.05 0 0028.16 13.53l70.06 26a138.82 138.82 0 0163.3 43.65 114.8 114.8 0 0118.34 67.66 134.05 134.05 0 01-14 66.79 76.44 76.44 0 01-45.62 34.71 295.06 295.06 0 01-87.31 10.25 496.34 496.34 0 01-55.87-2.61 517.77 517.77 0 01-82.29-14.19l5.89-71.59 81.42 2.18H1673a99.43 99.43 0 0036.23-4.37 19.85 19.85 0 009.39-19.64 25.11 25.11 0 00-6.55-19.43 60.74 60.74 0 00-23.79-12l-74.65-29.25a139.41 139.41 0 01-62.86-43.65 113.89 113.89 0 01-18.55-67.23 128.3 128.3 0 0114.19-65.48 77.9 77.9 0 0146.7-32.52 324.82 324.82 0 0186.01-9.41z" fill="#352a2a" id="Слой_2-2-2" data-name="Слой 2-2"/></g></g></g></svg>