<svg xmlns="http://www.w3.org/2000/svg" viewBox="0 0 40 40"><defs><style>.cls-1{fill:#13bfd1}</style></defs><g id="Слой_2" data-name="Слой 2"><g id="Слой_1-2" data-name="Слой 1"><path class="cls-1" d="M30 0H10A10 10 0 000 10v20a10 10 0 0010 10h20a10 10 0 0010-10V10A10 10 0 0030 0zm8.21 30.93a7.32 7.32 0 01-7.32 7.32H9.08a7.32 7.32 0 01-7.32-7.32V9.08a7.32 7.32 0 017.32-7.32h21.85a7.32 7.32 0 017.32 7.32z"/><path class="cls-1" d="M30.93 1.76H9.08a7.32 7.32 0 00-7.32 7.32v21.85a7.32 7.32 0 007.32 7.32h21.85a7.32 7.32 0 007.32-7.32V9.08a7.32 7.32 0 00-7.32-7.32zm3.85 8.46l-4.45 20.56c-.34 1.45-1.21 1.81-2.46 1.13L21.09 27l-3.27 3.1a1.73 1.73 0 01-1.36.65l.48-6.75 12.57-11.14c.55-.48-.12-.74-.85-.27l-15.54 9.59-6.68-2.05C5 19.68 5 18.7 6.74 18L32.9 8.15c1.21-.45 2.27.26 1.88 2.07z"/><path d="M34.78 10.22l-4.45 20.56c-.34 1.45-1.21 1.81-2.46 1.13L21.09 27l-3.27 3.1a1.73 1.73 0 01-1.36.65l.48-6.75 12.57-11.14c.55-.48-.12-.74-.85-.27l-15.54 9.59-6.68-2.05C5 19.68 5 18.7 6.74 18L32.9 8.15c1.21-.45 2.27.26 1.88 2.07z" fill="none"/></g></g></svg>