<svg xmlns="http://www.w3.org/2000/svg" viewBox="0 0 40 40"><defs><style>.cls-1{fill:#13bfd1}</style></defs><g id="Слой_2" data-name="Слой 2"><g id="Слой_1-2" data-name="Слой 1"><path class="cls-1" d="M30 0H10A10 10 0 000 10v20a10 10 0 0010 10h20a10 10 0 0010-10V10A10 10 0 0030 0zm4.15 25.75a8.51 8.51 0 01-2.29 5.94A8.42 8.42 0 0126 34H14.31a8.42 8.42 0 01-5.94-2.29A8.38 8.38 0 016 25.75c-.13-2.34-.13-9.36 0-11.7a8.38 8.38 0 012.33-5.94 8.46 8.46 0 015.94-2.28h11.72a8.42 8.42 0 015.91 2.29 8.42 8.42 0 012.29 5.94c.13 2.34.13 9.35 0 11.69z"/><path d="M27.68 10.64a1.7 1.7 0 100 3.39 1.7 1.7 0 000-3.39zm-7.56 2a7.27 7.27 0 107.26 7.26 7.25 7.25 0 00-7.26-7.26zm0 12a4.73 4.73 0 114.72-4.73 4.74 4.74 0 01-4.72 4.72zm0-12a7.27 7.27 0 107.26 7.26 7.25 7.25 0 00-7.26-7.26zm0 12a4.73 4.73 0 114.72-4.73 4.74 4.74 0 01-4.72 4.72zm7.56-14a1.7 1.7 0 100 3.39 1.7 1.7 0 000-3.39zm0 0a1.7 1.7 0 100 3.39 1.7 1.7 0 000-3.39zm-7.56 2a7.27 7.27 0 107.26 7.26 7.25 7.25 0 00-7.26-7.26zm0 12a4.73 4.73 0 114.72-4.73 4.74 4.74 0 01-4.72 4.72zm0-12a7.27 7.27 0 107.26 7.26 7.25 7.25 0 00-7.26-7.26zm0 12a4.73 4.73 0 114.72-4.73 4.74 4.74 0 01-4.72 4.72zm7.56-14a1.7 1.7 0 100 3.39 1.7 1.7 0 000-3.39zm0 0a1.7 1.7 0 100 3.39 1.7 1.7 0 000-3.39zm-7.56 2a7.27 7.27 0 107.26 7.26 7.25 7.25 0 00-7.26-7.26zm0 12a4.73 4.73 0 114.72-4.73 4.74 4.74 0 01-4.72 4.72zm0-12a7.27 7.27 0 107.26 7.26 7.25 7.25 0 00-7.26-7.26zm0 12a4.73 4.73 0 114.72-4.73 4.74 4.74 0 01-4.72 4.72zm7.56-14a1.7 1.7 0 100 3.39 1.7 1.7 0 000-3.39zm0 0a1.7 1.7 0 100 3.39 1.7 1.7 0 000-3.39zm-7.56 2a7.27 7.27 0 107.26 7.26 7.25 7.25 0 00-7.26-7.26zm0 12a4.73 4.73 0 114.72-4.73 4.74 4.74 0 01-4.72 4.72zm14.07-10.58a8.42 8.42 0 00-2.29-5.94A8.42 8.42 0 0026 5.83H14.28a8.46 8.46 0 00-5.95 2.28A8.38 8.38 0 006 14.05c-.13 2.34-.13 9.36 0 11.7a8.38 8.38 0 002.29 5.94A8.42 8.42 0 0014.27 34H16c2.23.05 5.49.05 7.83 0H26a8.42 8.42 0 005.94-2.29 8.51 8.51 0 002.29-5.94c.09-2.36.09-9.37-.04-11.71zm-3 14.2A4.76 4.76 0 0128.47 31c-1.87.74-6.29.56-8.35.56s-6.5.17-8.36-.56a4.79 4.79 0 01-2.69-2.7c-.74-1.91-.57-6.3-.57-8.4s-.17-6.49.57-8.35a4.79 4.79 0 012.69-2.7c1.87-.74 6.29-.57 8.36-.57s6.49-.16 8.35.57a4.79 4.79 0 012.69 2.7c.74 1.86.57 6.29.57 8.35s.17 6.5-.57 8.36zm-3.51-17.62a1.7 1.7 0 100 3.39 1.7 1.7 0 000-3.39zm-7.56 2a7.27 7.27 0 107.26 7.26 7.25 7.25 0 00-7.26-7.26zm0 12a4.73 4.73 0 114.72-4.73 4.74 4.74 0 01-4.72 4.72zm0-12a7.27 7.27 0 107.26 7.26 7.25 7.25 0 00-7.26-7.26zm0 12a4.73 4.73 0 114.72-4.73 4.74 4.74 0 01-4.72 4.72zm7.56-14a1.7 1.7 0 100 3.39 1.7 1.7 0 000-3.39zm0 0a1.7 1.7 0 100 3.39 1.7 1.7 0 000-3.39zm-7.56 2a7.27 7.27 0 107.26 7.26 7.25 7.25 0 00-7.26-7.26zm0 12a4.73 4.73 0 114.72-4.73 4.74 4.74 0 01-4.72 4.72zm0-12a7.27 7.27 0 107.26 7.26 7.25 7.25 0 00-7.26-7.26zm0 12a4.73 4.73 0 114.72-4.73 4.74 4.74 0 01-4.72 4.72zm7.56-14a1.7 1.7 0 100 3.39 1.7 1.7 0 000-3.39zm0 0a1.7 1.7 0 100 3.39 1.7 1.7 0 000-3.39zm-7.56 2a7.27 7.27 0 107.26 7.26 7.25 7.25 0 00-7.26-7.26zm0 12a4.73 4.73 0 114.72-4.73 4.74 4.74 0 01-4.72 4.72zm0-12a7.27 7.27 0 107.26 7.26 7.25 7.25 0 00-7.26-7.26zm0 12a4.73 4.73 0 114.72-4.73 4.74 4.74 0 01-4.72 4.72zm7.56-14a1.7 1.7 0 100 3.39 1.7 1.7 0 000-3.39zm0 0a1.7 1.7 0 100 3.39 1.7 1.7 0 000-3.39zm-7.56 2a7.27 7.27 0 107.26 7.26 7.25 7.25 0 00-7.26-7.26zm0 12a4.73 4.73 0 114.72-4.73 4.74 4.74 0 01-4.72 4.72zm7.56-14a1.7 1.7 0 100 3.39 1.7 1.7 0 000-3.39zm-7.56 2a7.27 7.27 0 107.26 7.26 7.25 7.25 0 00-7.26-7.26zm0 12a4.73 4.73 0 114.72-4.73 4.74 4.74 0 01-4.72 4.72z" fill="none"/><path class="cls-1" d="M31.16 11.55a4.79 4.79 0 00-2.69-2.7c-1.86-.73-6.29-.57-8.35-.57s-6.49-.17-8.36.57a4.79 4.79 0 00-2.69 2.7c-.74 1.86-.57 6.29-.57 8.35s-.17 6.49.57 8.36A4.79 4.79 0 0011.76 31c1.86.73 6.29.56 8.36.56s6.48.18 8.35-.56a4.76 4.76 0 002.69-2.7c.74-1.86.57-6.29.57-8.36s.17-6.53-.57-8.39zm-11 15.62a7.27 7.27 0 117.26-7.27 7.25 7.25 0 01-7.3 7.27zM27.68 14a1.7 1.7 0 111.69-1.69A1.69 1.69 0 0127.68 14z"/><path class="cls-1" d="M24.84 19.9a4.73 4.73 0 11-4.72-4.72 4.74 4.74 0 014.72 4.72z"/></g></g></svg>