<svg xmlns="http://www.w3.org/2000/svg" viewBox="0 0 40 40"><g id="Слой_2" data-name="Слой 2"><g id="Слой_1-2" data-name="Слой 1"><path d="M30 0H10A10 10 0 000 10v20a10 10 0 0010 10h20a10 10 0 0010-10V10A10 10 0 0030 0zm4.38 30H31c-1.29 0-1.67-1-4-3.31-2-1.92-2.89-2.17-3.4-2.17-1.08 0-.89.36-.89 4.17 0 .83-.26 1.31-2.43 1.31-3.61 0-7.58-2.17-10.4-6.16C5.67 18 4.51 13.57 4.51 12.68c0-.5.2-1 1.17-1h3.41c.87 0 1.2.38 1.54 1.31 1.66 4.8 4.48 9 5.63 9 .44 0 .63-.2.63-1.28v-5c-.12-2.29-1.35-2.47-1.35-3.28a.82.82 0 01.87-.78h5.36c.71 0 1 .39 1 1.24v6.67c0 .71.33 1 .54 1 .44 0 .8-.25 1.59-1a27.94 27.94 0 004.19-6.88 1.48 1.48 0 011.48-1h3.41c1 0 1.25.53 1 1.24-.43 2-4.59 7.74-4.59 7.75-.36.57-.51.85 0 1.49.19.28 4.58 4.38 5.22 6.37.28.99-.21 1.47-1.19 1.47z" fill="#13bfd1"/><path d="M34.42 30H31c-1.29 0-1.67-1-4-3.31-2-1.92-2.89-2.17-3.4-2.17-1.08 0-.89.36-.89 4.17 0 .83-.26 1.31-2.43 1.31-3.61 0-7.58-2.17-10.4-6.16C5.67 18 4.51 13.57 4.51 12.68c0-.5.2-1 1.17-1h3.41c.87 0 1.2.38 1.54 1.31 1.66 4.8 4.48 9 5.63 9 .44 0 .63-.2.63-1.28v-5c-.12-2.29-1.35-2.47-1.35-3.28a.82.82 0 01.87-.78h5.36c.71 0 1 .39 1 1.24v6.67c0 .71.33 1 .54 1 .44 0 .8-.25 1.59-1a27.94 27.94 0 004.19-6.88 1.48 1.48 0 011.48-1h3.41c1 0 1.25.53 1 1.24-.43 2-4.59 7.74-4.59 7.75-.36.57-.51.85 0 1.49.19.28 4.58 4.38 5.22 6.37.28.99-.21 1.47-1.19 1.47z" fill="none"/></g></g></svg>