<svg width="170" height="170" xmlns="http://www.w3.org/2000/svg"><g id="Слой_2" data-name="Слой 2"><g id="Слой_1-2" data-name="Слой 1"><circle cx="85" cy="85" r="85" fill="none"/><path d="M142.87 49.87L87.45 24.72a6.14 6.14 0 00-5.07 0L27 49.87a5.31 5.31 0 000 9.52l55.38 25.15a6.12 6.12 0 005.06 0l55.43-25.15a5.31 5.31 0 000-9.52zm-73.08 5a5.29 5.29 0 11.26-7.42 5.24 5.24 0 01-.26 7.38zM85 73l-10-6V56l14.19 1.68Q88.6 48.34 88 39l13 1 26 12zm57.87 7.4l-13.82-6.27-38.46 17.44a13.73 13.73 0 01-11.36 0L40.78 74.13 27 80.4a5.31 5.31 0 000 9.52L82.38 115a6.12 6.12 0 005.06 0l55.43-25.12a5.31 5.31 0 000-9.48zm0 30.41l-13.77-6.24L90.59 122a13.73 13.73 0 01-11.36 0l-38.51-17.43L27 110.81a5.31 5.31 0 000 9.52l48.72 22.08 1.51.68 5.2 2.36a6.12 6.12 0 005.06 0l55.43-25.12a5.31 5.31 0 00-.05-9.52z" fill="#e2ebed"/></g></g></svg>