<svg width="170" height="170" xmlns="http://www.w3.org/2000/svg"><g id="Слой_2" data-name="Слой 2"><g id="Слой_1-2" data-name="Слой 1"><path d="M77.09 104.74l-7.68-6.77L77 91.15a2.07 2.07 0 00.19-2.91l-4.07-4.36a2.06 2.06 0 00-2.91-.1L56.68 96.42a2.05 2.05 0 000 3L70.2 112.1a2.11 2.11 0 001.41.56 2 2 0 001.5-.65l4.07-4.36a2.07 2.07 0 00-.09-2.91zm51.55-58.86L109 26.22a11.24 11.24 0 00-8-3.31H53.21A11.28 11.28 0 0042 34.18v97.49a11.24 11.24 0 0011.24 11.24h67.46a11.25 11.25 0 0011.3-11.24V53.84a11.3 11.3 0 00-3.31-8zM102 35.1l17.84 17.83H102zm18.75 96.57H53.21V34.18h37.5v24.37a5.61 5.61 0 005.62 5.63h24.37zM91.08 73.08a2 2 0 00-2.55 1.41l-12.82 44.08a2 2 0 001.4 2.55l5.72 1.66a2.06 2.06 0 002.56-1.4l12.81-44.1a2 2 0 00-1.4-2.56zm5.74 18l.05.05 7.68 6.77-7.68 6.77a2.08 2.08 0 00-.19 2.91v.05l4.08 4.36a2.06 2.06 0 002.9.09l13.52-12.68a2.05 2.05 0 000-3l-13.47-12.66a2 2 0 00-2.9.1l-4.08 4.36a2.05 2.05 0 00.09 2.9z" fill="#e2ebed"/><circle cx="85" cy="85" r="85" fill="none"/></g></g></svg>