<svg width="170" height="170" xmlns="http://www.w3.org/2000/svg"><defs><style>.cls-1{fill:#e2ebed}</style></defs><g id="Слой_2" data-name="Слой 2"><g id="Слой_1-2" data-name="Слой 1"><path class="cls-1" d="M128.64 45.88L109 26.22a11.24 11.24 0 00-8-3.31H53.21A11.28 11.28 0 0042 34.18v97.49a11.24 11.24 0 0011.24 11.24h67.46a11.25 11.25 0 0011.3-11.24V53.84a11.3 11.3 0 00-3.31-8zM102 35.1l17.84 17.83H102zm18.75 96.57H53.21V34.18h37.5v24.37a5.61 5.61 0 005.62 5.63h24.37z"/><path class="cls-1" d="M112 99.81v-3.63a9.54 9.54 0 01-5.45-1.45c-6-4.37 3.4-15.63-2.27-21.81-1.69-1.84-5.21-3.78-13.4-3.81L91 75c4.52-.55 6.52.52 7.5 1.64 3.88 4.38-3.37 14.52.94 19.45a7 7 0 004.21 2.1 6.78 6.78 0 00-4.26 1.81c-4.47 4.77 2.91 15.62-1.18 19.92-1 1-2.83 1.94-6.79 1.4l-.27 5.7c7.58 0 11-1.83 12.71-3.63 5.86-6.19-3.75-17.74 2.28-22.16a9.84 9.84 0 015.86-1.42zm-50.61-.25v-3.63a9.52 9.52 0 005.45-1.45c6-4.36-3.39-15.62 2.28-21.8 1.68-1.84 5.21-3.78 13.39-3.82v5.86C78 74.17 76 75.25 75 76.36c-3.87 4.39 3.38 14.52-.93 19.45a7.06 7.06 0 01-4.22 2.11 6.71 6.71 0 014.22 1.87c4.47 4.77-2.92 15.62 1.17 19.92 1 1 2.83 1.94 6.79 1.41.1 1.9.19 3.8.28 5.7-7.59 0-11-1.84-12.72-3.64-5.88-6.18 3.73-17.74-2.29-22.18a10 10 0 00-5.91-1.44z"/><circle cx="85" cy="85" r="85" fill="none"/></g></g></svg>