<svg width="170" height="170" xmlns="http://www.w3.org/2000/svg"><defs><style>.cls-1{fill:#e2ebed}</style></defs><g id="Слой_2" data-name="Слой 2"><g id="Слой_1-2" data-name="Слой 1"><path class="cls-1" d="M120.67 25.5H52.83A10.83 10.83 0 0042 36.33v98.34a10.83 10.83 0 0010.83 10.83h67.84a10.83 10.83 0 0010.83-10.83V36.33a10.83 10.83 0 00-10.83-10.83zm-.17 108h-68v-97h68z"/><rect class="cls-1" x="84" y="127" width="8.25" height="4.5" rx="1.92"/><path class="cls-1" d="M57 40h59v3H57zm34 10h24v23H91zm-33 0h21v1H58zm0 3h17v2H58zm0 4h21v1H58zm0 5h18v2H58zm0 5h20v1H58zm0 4h25v2H58zm0 7h57v3H58zm0 6h57v1H58zm0 5h26v20H58zm33 0h24v3H91zm4 6h20v1H95zm-2 4h22v1H93zm4 3h18v2H97zm-3 5h21v2H94z"/><circle cx="85" cy="85" r="85" fill="none"/></g></g></svg>