<svg width="170" height="170" xmlns="http://www.w3.org/2000/svg"><defs><style>.cls-1{fill:#e2ebed}</style></defs><g id="Слой_2" data-name="Слой 2"><g id="Слой_1-2" data-name="Слой 1"><path class="cls-1" d="M101.79 100.69l-.68 1.18a1 1 0 01-1.24.44 9 9 0 01-2.64-1.53 1 1 0 01-.23-1.29l.68-1.18a6.86 6.86 0 01-1.31-2.25H95a1 1 0 01-1-.84 9.46 9.46 0 010-3 1 1 0 011-.86h1.36a7 7 0 011.31-2.25L97 87.88a1 1 0 01.23-1.29 9.4 9.4 0 012.64-1.53 1 1 0 011.24.45l.68 1.17a7.57 7.57 0 012.6 0l.68-1.17a1 1 0 011.24-.45 9.2 9.2 0 012.63 1.53 1 1 0 01.23 1.29l-.67 1.18a7.15 7.15 0 011.31 2.25h1.35a1 1 0 011 .85 9.46 9.46 0 010 3 1 1 0 01-1 .85h-1.35a7 7 0 01-1.31 2.25l.67 1.18a1 1 0 01-.23 1.29 9.11 9.11 0 01-2.63 1.53 1 1 0 01-1.24-.44l-.68-1.18a7.1 7.1 0 01-2.6.05zm-.87-4.83c3.17 2.43 6.78-1.18 4.34-4.34-3.16-2.44-6.77 1.17-4.34 4.34zm-9.47 12.65l2.77 1.38a2 2 0 01.86 2.39 19.47 19.47 0 01-3.5 5.41 2 2 0 01-2.49.43l-2.4-1.38a14.09 14.09 0 01-4.51 2.61v2.76a2 2 0 01-1.62 1.94 18.67 18.67 0 01-6.24 0 2 2 0 01-1.64-1.94v-2.76a14.09 14.09 0 01-4.51-2.61l-2.39 1.38a2 2 0 01-2.49-.44 19.1 19.1 0 01-3.47-5.4 2 2 0 01.86-2.39l2.74-1.38a14.26 14.26 0 010-5.21l-2.74-1.39a2 2 0 01-.86-2.39 19.15 19.15 0 013.47-5.41 2 2 0 012.49-.43l2.39 1.38a14.09 14.09 0 014.51-2.61v-2.77a2 2 0 011.61-1.93 19 19 0 016.25 0 2 2 0 011.64 1.94v2.77a14.26 14.26 0 014.51 2.6l2.4-1.38a2 2 0 012.49.44A19.29 19.29 0 0195 99.51a2 2 0 01-.82 2.4l-2.77 1.38a14.31 14.31 0 01.04 5.22zm-9.67 1.73c4.87-6.33-2.36-13.55-8.69-8.69-4.86 6.33 2.36 13.56 8.69 8.69zm20 15l-.68 1.17a1 1 0 01-1.24.45 9 9 0 01-2.64-1.53 1 1 0 01-.23-1.29l.68-1.18a6.86 6.86 0 01-1.31-2.25H95a1 1 0 01-1-.85 9.46 9.46 0 010-3 1 1 0 011-.85h1.36a6.86 6.86 0 011.31-2.25l-.67-1.21a1 1 0 01.23-1.29 9.16 9.16 0 012.64-1.53 1 1 0 011.24.45l.68 1.17a7.57 7.57 0 012.6 0l.68-1.17a1 1 0 011.24-.45 9 9 0 012.63 1.53 1 1 0 01.23 1.29l-.67 1.18a7 7 0 011.31 2.25h1.35a1 1 0 011 .85 9.46 9.46 0 010 3 1 1 0 01-1 .85h-1.35a7 7 0 01-1.31 2.25l.67 1.18a1 1 0 01-.23 1.29 9.11 9.11 0 01-2.63 1.53 1 1 0 01-1.24-.45l-.68-1.17a7.57 7.57 0 01-2.6.05zm-.87-4.84c3.17 2.43 6.78-1.18 4.34-4.34-3.16-2.44-6.77 1.17-4.34 4.34zM80.35 85.05l-1 .87a1 1 0 01-1.32 0 9 9 0 01-2-2.35 1 1 0 01.23-1.29l1-.87a7.15 7.15 0 01-.45-2.56l-1.27-.47a1 1 0 01-.54-1.15 9.26 9.26 0 011-2.86 1 1 0 011.24-.46l1.27.47a6.93 6.93 0 012-1.66l-.22-1.34a1 1 0 01.71-1.13 9.28 9.28 0 013-.52 1 1 0 011 .85l.22 1.33a7.48 7.48 0 012.45.91l1-.87A1 1 0 0190 72a9 9 0 012 2.35 1 1 0 01-.23 1.29l-1 .87a7.15 7.15 0 01.36 2.49l1.27.47a1 1 0 01.65 1.14A9.26 9.26 0 0192 83.5a1 1 0 01-1.24.46l-1.27-.47a7.09 7.09 0 01-2 1.66l.22 1.34a1 1 0 01-.71 1.13 9.28 9.28 0 01-3 .52 1 1 0 01-1-.85L82.8 86a7.26 7.26 0 01-2.45-.95zm.87-4.84c2.13 3.38 6.76 1.24 5.57-2.57a3.07 3.07 0 00-5.57 2.57z"/><path class="cls-1" d="M128.64 45.88L109 26.22a11.24 11.24 0 00-8-3.31H53.21A11.28 11.28 0 0042 34.18v97.49a11.24 11.24 0 0011.24 11.24h67.46a11.25 11.25 0 0011.3-11.24V53.84a11.3 11.3 0 00-3.31-8zM102 35.1l17.84 17.83H102zm18.75 96.57H53.21V34.18h37.5v24.37a5.61 5.61 0 005.62 5.63h24.37z"/><circle cx="85" cy="85" r="85" fill="none"/></g></g></svg>