<svg width="170" height="170" xmlns="http://www.w3.org/2000/svg"><g id="Слой_2" data-name="Слой 2"><g id="Слой_1-2" data-name="Слой 1"><circle cx="85" cy="85" r="85" fill="none"/><path d="M57.76 76.16l-18.48-28.4a60 60 0 01100.21 10.67l-49.67-2.62C75.76 55 62.38 62.9 57.76 76.16zm8 9.32A20.23 20.23 0 1086 65.25a20.22 20.22 0 00-20.28 20.23zm76.15-21.58l-33.8 1.74c9.17 10.72 9.31 26.18 1.59 38l-27.12 41.74a60 60 0 0059.33-81.48zM58.29 97L35.72 52.6a60 60 0 0040.91 92.13L92 114.53c-13.93 2.62-27.39-5-33.75-17.54z" fill="#e2ebed"/></g></g></svg>