<svg width="170" height="170" xmlns="http://www.w3.org/2000/svg"><defs><style>.cls-1{fill:#e2ebed}</style></defs><g id="Слой_2" data-name="Слой 2"><g id="Слой_1-2" data-name="Слой 1"><path class="cls-1" d="M48 41h74v2H48z"/><text transform="translate(54.02 40.26)" font-size="4" font-family="MyriadPro-Regular,Myriad Pro" fill="#e2ebed">WEB</text><path stroke="#e2ebed" stroke-miterlimit="10" fill="none" d="M52 42h22v-4.5h0L72 36h0-18 0l-2 1.5h0V42z"/><path class="cls-1" transform="rotate(-45 70.505 38.496)" d="M69 38.17h3v.67h-3z"/><path class="cls-1" transform="rotate(-45 70.505 38.496)" d="M70.17 37h.67v3h-.67z"/><path class="cls-1" d="M76 38.17h3v.67h-3z"/><path class="cls-1" d="M77.17 37h.67v3h-.67zm15.05 39.64l-.82.66a11.35 11.35 0 00-7.27-2.93 11.49 11.49 0 00-11.28 11.54A10.51 10.51 0 0073 87.6a8.09 8.09 0 018.08-8.49 8 8 0 015.45 2.15L84.31 83a2.46 2.46 0 102.18 2.18l6.51-7.7a.59.59 0 00-.82-.84zm-7.31 9.72a1.26 1.26 0 01-1.76 0 1.24 1.24 0 111.76 0zM84 66a19.54 19.54 0 1019.53 19.53A19.55 19.55 0 0084 66zm0 33.48a14 14 0 1114-13.95 14 14 0 01-14 13.95z"/><circle cx="85" cy="85" r="85" fill="none"/><path class="cls-1" d="M118.75 22.91H50.91a10.83 10.83 0 00-10.83 10.83v98.34a10.83 10.83 0 0010.83 10.83h67.84a10.83 10.83 0 0010.83-10.83V33.74a10.83 10.83 0 00-10.83-10.83zm-.17 108h-68v-97h68z"/></g></g></svg>