<svg width="360" height="222" viewBox="0 0 360 222" fill="none" xmlns="http://www.w3.org/2000/svg">
<path d="M47.2199 221.061H0.219934C0.219934 221.061 -0.274917 208.856 0.219934 201.061C1.16381 186.194 3.02442 177.856 7.21993 163.561C11.56 148.774 14.9295 140.639 22.2199 127.061C29.4705 113.558 34.5422 106.446 44.2199 94.5614C53.2887 83.4246 58.763 77.3465 69.7199 68.0614C81.743 57.8728 89.1786 52.7169 103.22 45.5614C119.066 37.4861 128.828 34.2806 146.22 30.5614C162.332 27.1158 171.747 26.251 188.22 26.5614C201.975 26.8205 209.772 27.6581 223.22 30.5614C236.861 33.5064 257.22 41.5614 257.22 41.5614L233.72 1.56137C233.72 1.56137 259.398 -1.95117 275.22 1.56137C279.985 2.61937 283.104 2.43641 287.22 5.06137C291.541 7.81746 293.276 10.5563 295.72 15.0614C321.22 62.0614 359.72 134.561 359.72 134.561C359.72 134.561 275.22 154.061 223.22 163.561C219.57 164.228 216.72 163.561 213.72 162.561C207.604 160.523 205.401 157.897 200.22 154.061C190.514 146.876 176.22 134.561 176.22 134.561L213.72 117.561L275.22 103.561L271.22 101.061C271.22 101.061 260.213 93.7262 252.72 90.0614C245.451 86.5066 241.875 84.6798 234.22 82.0614C226.449 79.4036 221.761 77.7301 213.72 76.0614C205.679 74.3927 203.257 74.3844 195.22 74.0614C189.562 73.834 184.366 73.6271 178.72 74.0614C172.22 74.5614 169.22 75.0614 162.72 76.0614C156.22 77.0614 151.968 77.9993 145.72 79.5614C139.471 81.1235 136.894 82.2789 131.22 84.5614C125.305 86.9407 122.211 88.8228 116.72 92.0614C111.262 95.2801 108.249 97.2075 103.22 101.061C97.8397 105.184 94.985 107.741 90.2199 112.561C83.9806 118.873 80.9236 122.872 75.7199 130.061C70.3197 137.523 67.4065 141.857 63.2199 150.061C58.6381 159.04 56.7868 164.459 53.7199 174.061C50.4202 184.393 48.2899 190.269 47.2199 201.061C46.4494 208.834 47.2199 221.061 47.2199 221.061Z" fill="#85F200"/>
</svg>
