<svg width="360" height="222" viewBox="0 0 360 222" fill="none" xmlns="http://www.w3.org/2000/svg">
<path d="M312.5 0.00014846L359.5 0.000152569C359.5 0.000152569 359.995 12.2054 359.5 20.0002C358.556 34.8678 356.695 43.2055 352.5 57.5002C348.16 72.2873 344.79 80.4228 337.5 94.0002C330.249 107.503 325.178 114.616 315.5 126.5C306.431 137.637 300.957 143.715 290 153C277.977 163.189 270.541 168.345 256.5 175.5C240.654 183.575 230.892 186.781 213.5 190.5C197.388 193.946 187.973 194.811 171.5 194.5C157.745 194.241 149.947 193.403 136.5 190.5C122.859 187.555 102.5 179.5 102.5 179.5L126 219.5C126 219.5 100.321 223.013 84.4998 219.5C79.7343 218.442 76.6155 218.625 72.4998 216C68.1785 213.244 66.444 210.505 63.9998 206C38.5 159 -0.000201859 86.5001 -0.000201859 86.5001C-0.000201859 86.5001 84.4998 67.0001 136.5 57.5001C140.149 56.8334 143 57.5001 146 58.5001C152.116 60.5389 154.318 63.1645 159.5 67.0001C169.206 74.1854 183.5 86.5001 183.5 86.5001L146 103.5L84.4998 117.5L88.4998 120C88.4998 120 99.5066 127.335 107 131C114.268 134.555 117.844 136.382 125.5 139C133.271 141.658 137.958 143.331 146 145C154.041 146.669 156.463 146.677 164.5 147C170.158 147.228 175.354 147.434 181 147C187.5 146.5 190.5 146 197 145C203.5 144 207.752 143.062 214 141.5C220.248 139.938 222.826 138.783 228.5 136.5C234.414 134.121 237.508 132.239 243 129C248.458 125.781 251.47 123.854 256.5 120C261.88 115.877 264.735 113.321 269.5 108.5C275.739 102.188 278.796 98.1899 284 91.0001C289.4 83.5389 292.313 79.2042 296.5 71.0001C301.082 62.0215 302.933 56.6024 306 47.0001C309.3 36.6689 311.43 30.7926 312.5 20.0001C313.27 12.2278 312.5 0.00014846 312.5 0.00014846Z" fill="#FF542C"/>
</svg>
