<svg xmlns="http://www.w3.org/2000/svg" xmlns:xlink="http://www.w3.org/1999/xlink" viewBox="0 0 1600 810"><defs><style>.cls-1{fill:none;}.cls-2{clip-path:url(#clip-path);}.cls-3{fill:url(#Безымянный_градиент);}.cls-4{fill:url(#Безымянный_градиент_12);}.cls-5{fill:url(#Безымянный_градиент_12-2);}.cls-6{fill:url(#Безымянный_градиент_12-3);}.cls-7{fill:url(#Безымянный_градиент_12-4);}.cls-8{fill:url(#Безымянный_градиент_12-5);}.cls-9{fill:url(#Безымянный_градиент_12-6);}.cls-10{fill:url(#Безымянный_градиент_12-7);}.cls-11{fill:url(#Безымянный_градиент_12-8);}.cls-12{fill:url(#Безымянный_градиент_12-9);}.cls-13{fill:url(#Безымянный_градиент_12-10);}.cls-14{fill-opacity:0.6;fill:url(#Безымянный_градиент_12-11);}</style><clipPath id="clip-path" transform="translate(0 0)"><rect class="cls-1" width="1600" height="810"/></clipPath><linearGradient id="Безымянный_градиент" x1="797.91" y1="11.73" x2="802.22" y2="821.71" gradientUnits="userSpaceOnUse"><stop offset="0.71"/><stop offset="1" stop-color="#671d3e"/></linearGradient><linearGradient id="Безымянный_градиент_12" x1="257.67" y1="697.53" x2="346.38" y2="794.05" gradientUnits="userSpaceOnUse"><stop offset="0" stop-color="#fd378e"/><stop offset="1" stop-color="#85f200"/></linearGradient><linearGradient id="Безымянный_градиент_12-2" x1="1586.09" y1="-277.24" x2="1586.09" y2="-415.7" gradientTransform="matrix(-0.26, 0.96, 0.96, 0.26, 2071.37, -710.21)" xlink:href="#Безымянный_градиент_12"/><linearGradient id="Безымянный_градиент_12-3" x1="1560.2" y1="1020.95" x2="1560.2" y2="924.91" gradientTransform="matrix(0, -1, -1, 0, 1574.37, 1622.05)" xlink:href="#Безымянный_градиент_12"/><linearGradient id="Безымянный_градиент_12-4" x1="1099.2" y1="705.95" x2="1099.2" y2="609.91" gradientTransform="matrix(-0.92, -0.39, -0.39, 0.92, 1408.56, 195.2)" xlink:href="#Безымянный_градиент_12"/><linearGradient id="Безымянный_градиент_12-5" x1="731.99" y1="-339.99" x2="731.99" y2="-436.03" gradientTransform="matrix(-1, 0.02, 0.02, 1, 841.6, 1104.02)" xlink:href="#Безымянный_градиент_12"/><linearGradient id="Безымянный_градиент_12-6" x1="1912.2" y1="328.95" x2="1912.2" y2="232.91" gradientTransform="matrix(-0.92, -0.39, -0.39, 0.92, 2825.5, 1234.28)" xlink:href="#Безымянный_градиент_12"/><linearGradient id="Безымянный_градиент_12-7" x1="1204.84" y1="121.14" x2="1240.84" y2="-52.6" xlink:href="#Безымянный_градиент_12"/><linearGradient id="Безымянный_градиент_12-8" x1="1148.82" y1="742.51" x2="1148.82" y2="639.73" gradientTransform="matrix(0.08, -1, -1, -0.08, 1303.02, 1831.9)" xlink:href="#Безымянный_градиент_12"/><linearGradient id="Безымянный_градиент_12-9" x1="1861.82" y1="1127.51" x2="1861.82" y2="1024.73" gradientTransform="matrix(0.08, -1, -1, -0.08, 2346.03, 2186.96)" xlink:href="#Безымянный_градиент_12"/><linearGradient id="Безымянный_градиент_12-10" x1="1499.26" y1="365.63" x2="1499.26" y2="262.85" gradientTransform="matrix(0.99, -0.12, -0.12, -0.99, 45.16, 1040.54)" xlink:href="#Безымянный_градиент_12"/><linearGradient id="Безымянный_градиент_12-11" x1="277.42" y1="724.59" x2="277.42" y2="592.22" gradientTransform="matrix(1, -0.03, -0.03, -1, 19.51, 832.28)" xlink:href="#Безымянный_градиент_12"/></defs><title>Ресурс 1</title><g id="Слой_2" data-name="Слой 2"><g id="Слой_1-2" data-name="Слой 1"><g class="cls-2"><rect class="cls-3" width="1600" height="810"/><path class="cls-4" d="M360.17,808.68c-.48.45-1,.89-1.46,1.32H260a74.84,74.84,0,1,1,100.2-1.32Z" transform="translate(0 0)"/><circle class="cls-5" cx="1319.03" cy="728.44" r="69.23" transform="translate(-128.75 1146.05) rotate(-45)"/><circle class="cls-6" cx="601.44" cy="61.85" r="48.02" transform="translate(311.81 592.58) rotate(-67.25)"/><circle class="cls-7" cx="140.44" cy="376.85" r="48.02"/><circle class="cls-8" cx="103.44" cy="727.85" r="48.02" transform="translate(-628.21 656.08) rotate(-76.31)"/><circle class="cls-9" cx="953.44" cy="753.85" r="48.02"/><path class="cls-10" d="M1324.46,66.06A108,108,0,0,1,1119.7,0h210.39A107.43,107.43,0,0,1,1324.46,66.06Z" transform="translate(0 0)"/><circle class="cls-11" cx="700.72" cy="634.13" r="51.39"/><circle class="cls-12" cx="1413.72" cy="249.13" r="51.39"/><circle class="cls-13" cx="1497.72" cy="554.13" r="51.39"/><circle class="cls-14" cx="277.67" cy="166.08" r="66.19"/></g></g></g></svg>