<svg width="1600" height="810" viewBox="0 0 1600 810" fill="none" xmlns="http://www.w3.org/2000/svg">
<g clip-path="url(#clip0_138_256)">
<rect width="1600" height="810" fill="url(#paint0_radial_138_256)"/>
<path d="M4.5 782.5L1 810L88.5 810.5C88.5 810.5 90.5341 797.516 93 789.5C95.9324 779.967 98.1559 774.718 103 766C108.501 756.099 112.462 750.954 120 742.5C128.839 732.588 134.661 727.675 145.5 720C156.273 712.372 162.894 708.763 175 703.5C185.023 699.143 201.5 694.5 201.5 694.5C201.5 694.5 216.983 691.384 227 690C256.797 685.883 273.979 689.885 304 688C327.483 686.526 364 682.5 364 682.5C364 682.5 398.919 676.976 421 672C442.485 667.159 454.592 664.421 475.5 657.5C491.577 652.178 500.573 648.987 516 642C530.241 635.55 538.247 631.791 551.5 623.5C565.339 614.843 573.092 609.666 585 598.5C593.47 590.558 598.246 585.945 605 576.5C611.255 567.753 614.461 562.466 618.5 552.5C622.52 542.58 624.591 536.665 625.5 526C625.948 520.747 625.825 517.762 625.5 512.5C624.975 504.009 624.03 499.261 622 491C619.937 482.605 618.701 477.812 615 470C610.246 459.967 605.923 455.18 599 446.5C592.194 437.966 587.964 433.464 580 426C572.101 418.597 567.293 414.815 558.5 408.5C546.832 400.119 539.388 396.774 527 389.5C513.049 381.308 504.932 377.225 491 369C479.984 362.497 473.522 359.276 463 352C452.816 344.958 446.519 341.485 438 332.5C432.544 326.746 429.451 323.375 425.5 316.5C422.931 312.031 420.628 309.617 420 304.5C419.472 300.197 420.34 297.677 421.5 293.5C423.821 285.143 427.887 281.506 433 274.5C440.978 263.567 446.561 258.113 457 249.5C466.566 241.607 473.542 237.272 483.5 232L509 218.5C518.958 213.228 537.246 206.796 551.5 202.5L588 191.5C602.254 187.204 609.949 186.355 624 183C634.549 180.481 640.451 179.017 651 176.5C661.734 173.939 667.91 173.105 678.5 170C688.218 167.151 693.663 165.422 703 161.5C712.661 157.442 718.146 155.105 727 149.5C735.349 144.215 739.875 140.847 747 134C753.49 127.763 756.621 123.717 762 116.5C767.147 109.596 770.024 105.639 774 98C778.454 89.4445 780.185 84.2254 783 75C788.359 57.4353 789.619 46.86 790 28.5C790.223 17.7469 788.5 1 788.5 1H701.5C701.5 1 703.311 21.2405 701.5 34C700.229 42.9558 699.825 48.3031 696 56.5C692.908 63.1253 690.87 67.0381 685.5 72C680.802 76.3409 677.318 77.8423 671.5 80.5C665.715 83.1428 662.09 83.6669 656 85.5C641.352 89.9086 632.843 91.3018 618 95C595.161 100.69 582.18 103.208 559.5 109.5C537.657 115.56 525.253 118.617 504 126.5C481.787 134.739 469.188 139.453 448.5 151C422.852 165.315 408.562 174.528 387.5 195C373.892 208.227 366.188 215.99 356 232C350.185 241.138 347.109 246.478 343 256.5C339.885 264.099 338.397 268.509 336.5 276.5C333.686 288.354 332.299 295.337 333 307.5C333.329 313.207 333.882 316.394 335 322C336.065 327.341 336.832 330.315 338.5 335.5C339.711 339.264 340.427 341.372 342 345C344.015 349.648 345.512 352.087 348 356.5C350.928 361.693 352.582 364.616 356 369.5C359.427 374.397 361.584 376.984 365.5 381.5C369.817 386.478 372.52 389.125 377.123 393.631L377.5 394C383.525 399.899 387.001 403.127 393.5 408.5C401.317 414.962 406.046 418.204 414.375 423.914L414.5 424C421.961 429.115 426.285 431.777 434 436.5C440.145 440.262 443.826 442.377 449.742 445.777L451 446.5C457.215 450.073 460.764 451.963 467 455.5L467.841 455.977C472.805 458.793 475.835 460.511 481 463.5C486.681 466.787 489.899 468.578 495.5 472C498.644 473.921 500.405 475.001 503.5 477C508.459 480.203 511.423 481.772 516 485.5C519.962 488.728 521.963 490.812 525.5 494.5C528.564 497.695 530.476 499.363 533 503L533.07 503.101C535.071 505.984 536.25 507.684 537.5 511C538.285 513.083 539.123 514.277 539 516.5C538.897 518.35 537.5 521 537.5 521C535.998 524.307 534.366 525.744 532 528.5C529.661 531.224 528.136 532.563 525.5 535C521.425 538.768 518.993 540.742 514.5 544C509.456 547.657 506.407 549.406 501 552.5C493.8 556.62 489.56 558.584 482 562C472.252 566.404 466.58 568.42 456.5 572C445.501 575.906 439.237 577.844 428 581C417.924 583.83 412.216 585.227 402 587.5C392.094 589.704 386.491 590.722 376.5 592.5C368.125 593.99 363.423 594.806 355 596C347.015 597.132 342.522 597.665 334.5 598.5C325.145 599.474 310.5 600.5 310.5 600.5C310.5 600.5 296.184 601.311 287 601.5C278.41 601.677 273.592 601.5 265 601.5C259.337 601.5 256.162 601.412 250.5 601.5C244.444 601.594 235 602 235 602C235 602 225.846 602.457 220 603C205.233 604.372 196.892 605.42 182.5 609C169.317 612.279 162.068 614.845 149.5 620C136.815 625.202 118 635.5 118 635.5C118 635.5 96.1619 648.08 83.5 658C70.8849 667.883 64.1788 674.051 53.5 686C44.0276 696.599 39.0757 702.972 31.5 715C24.0069 726.897 20.2562 733.959 15 747C9.59537 760.409 5.86684 771.761 4.5 782.5Z" fill="#85F200"/>
<path d="M100.5 21.5C100.5 13.3784 97.5001 1 97.5001 1H187.5C187.5 1 188.508 22.9773 187.5 37C186.267 54.1621 183.824 63.6178 180.5 80.5C176.072 102.99 172.516 115.382 166.5 137.5C157.86 169.264 151.682 186.696 141.5 218C129.754 254.114 119.924 273.344 110 310C107.055 320.88 105.242 326.954 103 338C101.071 347.501 99.5001 361.5 99.5001 361.5C99.5001 361.5 107.869 363.099 113.5 362.5C119.671 361.844 123.081 360.865 129 359C136.092 356.766 139.979 355.071 146.5 351.5C157.601 345.421 162.669 340.05 172 331.5C182.188 322.165 187.236 316.184 196 305.5C205.314 294.145 209.835 287.207 218 275C226.918 261.666 231.682 254.007 239.5 240C247.769 225.185 251.887 216.346 258.876 201.339L259.5 200C268.107 181.523 272.628 171.003 280 152C288.955 128.915 292.065 115.28 300.5 92C307.616 72.361 310.938 61.0529 319.5 42C326.874 25.5913 340.5 1 340.5 1H444C444 1 433.305 13.0199 427.5 21.5C419.604 33.0348 416.6 40.4223 410.5 53C403.284 67.88 400.072 76.6177 394 92C383.751 117.963 380.268 133.353 370.5 159.5C359.524 188.881 353.721 205.558 340.5 234C325.733 265.768 317.2 283.697 298 313C283.254 335.507 274.463 347.966 256.5 368C238.426 388.158 227.882 399.555 206 415.5C190.357 426.899 181.567 434.056 163.5 441C145.842 447.786 134.914 450.152 116 450.5C95.1681 450.883 82.4548 449.651 63.5001 441C48.1153 433.979 38.7926 428.919 28.5001 415.5C19.3403 403.558 16.6169 394.724 13.5001 380C10.1035 363.954 11.9958 354.333 13.5001 338C15.8197 312.816 21.7337 299.369 28.5001 275C41.3057 228.882 55.6891 205.327 69.5001 159.5C80.2142 123.949 86.4006 103.946 93.5001 67.5C96.9803 49.6345 100.5 40.5 100.5 21.5Z" fill="#FD378E"/>
<path d="M480 784C476.34 794.008 473.5 810.5 473.5 810.5L564 810C564 810 566.427 806.069 568.5 804C570.878 801.627 572.669 800.809 575.5 799C578.888 796.835 580.839 795.662 584.5 794C587.538 792.621 589.22 791.611 592.5 791C597.906 789.994 601.063 791.68 606.5 792.5C611.612 793.271 614.435 793.963 619.5 795C626.555 796.445 630.482 797.389 637.5 799C646.501 801.067 651.423 802.799 660.5 804.5C666.906 805.701 670.498 806.554 677 807C682.454 807.375 685.543 807.344 691 807C695.907 806.691 698.712 806.616 703.5 805.5C708.131 804.421 710.661 803.446 715 801.5C719.067 799.677 721.343 798.547 725 796C729.311 792.997 731.574 790.984 735 787C738.779 782.606 740.343 779.651 743 774.5C745.328 769.988 746.408 767.321 748 762.5C749.887 756.788 750.42 753.418 751.5 747.5C752.561 741.686 752.704 738.356 753.5 732.5C754.455 725.468 756 714.5 756 714.5L759 710.5C759 710.5 764.564 711.423 768 712.5C774.917 714.668 778.412 717.067 784.5 721C791.032 725.22 794.811 727.708 800 733.5C803.075 736.933 804.785 738.959 807 743C809.924 748.336 810.681 751.859 811.944 757.738L812 758C813.564 765.277 813.339 769.559 813.5 777C813.644 783.64 813.485 787.376 813 794C812.512 800.667 811 811 811 811H899.5C899.5 811 901.364 795.183 901.5 785C901.665 772.675 901.247 765.702 899.5 753.5C898.029 743.227 898.882 739.216 894 727.5C889.118 715.784 887.5 708 881.5 697.5C875.5 687 873.505 685.492 867.5 678.5C859.581 669.281 854.501 664.579 845 657C834.627 648.726 828.334 644.503 816.5 638.5C807.833 634.104 802.803 631.809 793.5 629C783.418 625.956 777.497 624.847 767 624C759.02 623.356 754.442 622.989 746.5 624C738.701 624.993 734.336 626.174 727 629C719.583 631.857 715.495 633.918 709 638.5C703.602 642.309 700.904 645.039 696.358 649.638L696 650C690.937 655.121 688.099 658.08 684 664C680.911 668.461 679.354 671.112 677 676C674.024 682.177 672.577 685.828 671 692.5C669.596 698.44 669.922 701.967 669 708C668.462 711.523 667.5 717 667.5 717C667.5 717 659.885 715.156 655 714C642.139 710.959 635.064 708.5 622 706.5C612.109 704.986 606.501 704.329 596.5 704C591.426 703.833 588.562 703.614 583.5 704C577.579 704.452 574.266 705.077 568.5 706.5C556.775 709.393 550.711 712.923 540 718.5L539.46 718.781C530.226 723.588 524.785 726.421 516.5 733C506.766 740.73 501.72 745.883 494.5 756C487.347 766.023 484.229 772.435 480 784Z" fill="#FD378E"/>
<path d="M1137.5 792C1136 799.14 1132.5 810 1132.5 810H1223.5C1223.5 810 1226.4 794.228 1227 784C1227.47 776.008 1227 771.506 1227 763.5C1227 754.713 1227.63 749.764 1227 741C1226.33 731.745 1225.08 726.644 1223.5 717.5C1221.95 708.481 1221.26 703.368 1219 694.5C1216.36 684.149 1214.32 678.478 1210.5 668.5C1206.53 658.13 1204.19 652.315 1199 642.5C1193.51 632.107 1190.14 626.339 1183 617C1177.29 609.529 1173.82 605.477 1167 599C1159.44 591.817 1154.8 588.102 1146 582.5C1140.18 578.792 1136.65 577.138 1130.5 574C1122.64 569.989 1118.16 567.846 1110 564.5C1098.74 559.887 1092.25 557.665 1080.5 554.5C1072.77 552.417 1068.33 551.646 1060.5 550C1045.54 546.858 1037.1 545.349 1022 543C1005.08 540.368 995.545 539.127 978.5 537.5C964.665 536.18 956.82 536.465 943 535C928.089 533.419 919.717 532.372 905 529.5L904.805 529.462C894.699 527.49 888.949 526.367 879 523.5C868.259 520.404 862.69 517.265 852 514C842.533 511.108 836.946 510.46 827.5 507.5C820.192 505.211 816.117 503.826 809 501L808.659 500.865C801.72 498.11 797.703 496.515 791 493C784.95 489.828 781.045 488.606 776 484C770.836 479.286 768.551 475.79 765.5 469.5C762.234 462.766 761.574 458.406 760.5 451C759.21 442.111 758.252 436.696 760.5 428C761.77 423.085 762.936 420.382 765.5 416C768.719 410.497 771.455 407.971 776 403.5C781.957 397.638 785.828 394.792 793 390.5C800.349 386.102 804.999 384.556 813 381.5C822.347 377.93 827.691 375.976 837.5 374C845.786 372.331 850.549 371.698 859 371.5C869.586 371.252 875.549 372.294 886 374C903.021 376.779 912.148 380.518 928.5 386C941.566 390.381 948.558 393.766 961.5 398.5C975.303 403.55 983.15 406.08 997 411C1010.09 415.652 1017.29 418.685 1030.5 423C1047.3 428.488 1056.83 431.32 1074 435.5C1087.95 438.896 1095.79 440.955 1110 443L1111.4 443.202C1126.63 445.396 1135.75 446.709 1151.5 446C1166.7 445.316 1175.33 444.056 1190 440C1203.77 436.192 1211.46 433.354 1224 426.5C1232.41 421.901 1237.07 419.063 1244.5 413C1252.74 406.275 1256.89 401.827 1263.5 393.5C1268.48 387.223 1270.86 383.364 1275 376.5C1279.78 368.572 1282.37 364.015 1286 355.5C1289.01 348.457 1290.45 344.378 1292.5 337C1294.21 330.837 1294.97 327.313 1296 321C1297.61 311.142 1298.21 305.487 1298 295.5C1297.83 287.652 1297.31 283.239 1296 275.5C1294.42 266.161 1292.91 261.015 1290 252C1286.77 241.992 1284.7 236.405 1280 227C1275.49 217.971 1272.18 213.1 1266.7 205.027L1266 204C1257.34 191.232 1251.8 184.489 1241.5 173C1232.47 162.925 1226.97 157.653 1217 148.5C1208.12 140.348 1202.88 136.066 1193.5 128.5C1181.89 119.134 1175.23 114.047 1163 105.5C1151.55 97.494 1144.69 93.6567 1133 86C1124.98 80.7474 1120.52 77.7552 1112.5 72.5C1103.53 66.621 1098.2 63.7717 1089.5 57.5C1082.05 52.1313 1078.15 48.7522 1071 43C1064.3 37.6106 1060.23 34.9276 1054 29C1048.59 23.8577 1045.75 20.7552 1041 15C1036.38 9.39656 1030 0 1030 0H931.5C931.5 0 937.461 13.9312 942 22.5C946.796 31.5553 949.864 36.4417 955.5 45C961.192 53.6448 964.553 58.4018 971 66.5C978.15 75.4822 982.391 80.373 990.5 88.5C1001.55 99.5794 1011.63 107.471 1021 114.5L1045 132.5C1054.37 139.529 1056.56 140.156 1064 145C1077.39 153.714 1085.25 158.065 1098.5 167C1110.81 175.3 1117.6 180.128 1129.5 189C1137.2 194.742 1141.63 197.831 1149 204C1159.06 212.426 1164.6 217.355 1173.5 227C1180.37 234.442 1184.08 238.786 1190 247C1195.8 255.043 1199.29 259.524 1203.5 268.5C1206.67 275.267 1208.67 279.146 1210 286.5C1211.43 294.377 1211.24 299.09 1210 307C1208.73 315.114 1207.24 319.69 1203.5 327C1199.49 334.821 1196.67 339.28 1190 345C1183.43 350.63 1178.69 352.719 1170.5 355.5C1163.41 357.907 1159.08 358.305 1151.67 358.984L1151.5 359C1136.47 360.38 1127.89 358.004 1113 355.5C1093.85 352.278 1083.56 348.229 1065 342.5C1045.23 336.397 1034.51 331.886 1015 325C1000.15 319.758 991.843 316.762 977 311.5C964.31 307.002 957.32 304.112 944.5 300C932.496 296.15 925.788 293.814 913.5 291C898.855 287.647 890.49 286 875.5 285C864.395 284.259 858.105 284.259 847 285C832.009 286 823.556 287.279 809 291C795.778 294.38 788.642 297.36 776 302.5C762.81 307.862 755.029 310.383 743 318C732.9 324.395 727.617 328.715 719 337C709.105 346.512 704.399 352.776 696.5 364C691.199 371.532 688.08 375.743 684 384C680.112 391.868 678.159 396.494 676 405C673.676 414.155 673.635 419.576 673 429C672.252 440.105 671.886 446.426 673 457.5C674.219 469.617 675.658 476.443 679.5 488C682.59 497.294 684.866 502.371 689.5 511C694.829 520.924 698.269 526.362 705.5 535C712.947 543.896 717.847 548.372 727 555.5C736.275 562.723 742.044 566.126 752.5 571.5C761.918 576.34 767.598 578.248 777.5 582C787.143 585.654 792.686 587.334 802.5 590.5C813.375 594.009 819.614 595.522 830.5 599C839.911 602.007 845.028 604.19 854.5 607C867.803 610.947 875.375 612.87 889 615.5C900.822 617.782 907.555 618.492 919.5 620C938.372 622.382 949.079 622.54 968 624.5C983.636 626.119 992.473 626.548 1008 629C1018.4 630.643 1024.18 631.899 1034.5 634C1046.06 636.353 1052.68 637.166 1064 640.5C1074.37 643.555 1080.58 644.701 1090 650C1097.9 654.441 1102.25 657.438 1108.5 664C1114.7 670.511 1117.05 675.188 1121.5 683C1126.69 692.113 1129.22 697.537 1132.5 707.5C1135.13 715.509 1135.92 720.219 1137.5 728.5C1139.02 736.448 1139.94 740.929 1140.5 749C1141.02 756.402 1140.91 760.591 1140.5 768C1139.98 777.431 1139.44 782.756 1137.5 792Z" fill="#FF542C"/>
<path d="M1566 664C1579.08 665.174 1599.5 667 1599.5 667V579C1599.5 579 1565.97 576.363 1544.5 574.5C1533.56 573.551 1527.38 573.452 1516.5 572C1505.49 570.531 1499.34 569.403 1488.5 567C1481.43 565.433 1477.43 564.611 1470.5 562.5C1465.36 560.935 1462.41 560.192 1457.5 558C1453.03 556.004 1450.51 554.811 1446.5 552C1442.2 548.982 1439.73 547.146 1436.5 543C1432.64 538.038 1431.31 534.523 1429.5 528.5C1427.41 521.539 1427.78 517.261 1427.5 510C1427.34 505.903 1427.27 503.594 1427.5 499.5C1427.83 493.793 1428.36 490.602 1429.5 485C1430.91 478.034 1432.1 474.189 1434.5 467.5C1436.07 463.132 1437.16 460.76 1439 456.5C1441.22 451.368 1442.48 448.489 1445 443.5C1447.72 438.118 1449.43 435.191 1452.5 430C1455.67 424.638 1457.57 421.698 1461 416.5C1464.4 411.348 1466.41 408.524 1470 403.5C1474.38 397.367 1476.94 393.999 1481.5 388C1485.54 382.684 1487.98 379.835 1492 374.5C1495.78 369.478 1497.71 366.521 1501.5 361.5C1507.19 353.951 1510.79 350.036 1516.5 342.5C1520.89 336.709 1523.31 333.432 1527.5 327.5C1532.53 320.38 1535.26 316.315 1540 309C1543.39 303.773 1545.28 300.831 1548.5 295.5C1552.35 289.138 1554.59 285.608 1558 279C1561.93 271.388 1563.93 266.996 1567 259C1569.4 252.743 1570.5 249.099 1572.42 242.758L1572.5 242.5C1574.43 236.107 1575.59 232.528 1577 226C1578.25 220.195 1578.81 216.898 1579.5 211C1580.12 205.75 1580.32 202.783 1580.5 197.5C1580.66 192.817 1580.65 190.184 1580.5 185.5C1580.32 179.827 1580.22 176.631 1579.5 171C1578.36 162.071 1576.93 157.168 1574.5 148.5C1571.77 138.747 1570.3 133.169 1566 124C1563.05 117.704 1560.92 114.293 1557.34 108.54L1557 108C1551.67 99.4463 1548.96 94.2915 1542 87C1536.55 81.2842 1532.77 78.8076 1526.5 74C1517 66.7168 1511.65 62.4613 1501 57C1487.59 50.1248 1478.89 48.9515 1464.5 44.5C1451.33 40.4268 1443.4 39.8668 1430.5 35C1420.04 31.0523 1413.82 29.1873 1404.5 23C1397.23 18.1721 1393.95 14.3759 1387.5 8.5C1383.93 5.24452 1378.5 0 1378.5 0H1277.5C1277.5 0 1279.02 6.79904 1280.5 11C1284.65 22.8162 1289.48 28.4844 1297 38.5C1303.64 47.3443 1308.29 51.5713 1316 59.5C1328.72 72.5796 1335.64 80.4139 1350.5 91C1365.51 101.697 1374.9 106.617 1392 113.5C1405.06 118.758 1413.09 119.693 1426.5 124C1439.85 128.287 1447.6 130.014 1460.5 135.5C1465.65 137.688 1469.01 138.17 1473.5 141.5C1479.77 146.152 1481.7 150.675 1485.5 157.5C1489.95 165.488 1492.19 170.953 1493.5 180C1494.42 186.377 1494.05 189.58 1493.5 196C1492.75 204.737 1491.51 209.598 1489 218C1485.52 229.645 1482.24 235.789 1476.5 246.5C1468.8 260.867 1462.39 267.672 1453 281C1443.82 294.029 1438.63 301.306 1429 314C1419.67 326.292 1413.56 332.509 1404.5 345C1395.82 356.968 1391.3 363.94 1383.5 376.5C1375.88 388.763 1371.36 395.543 1365 408.5C1359.95 418.788 1357.42 424.73 1353.5 435.5C1349.32 446.995 1347.08 453.543 1344.5 465.5C1342.13 476.487 1341.22 482.784 1340.5 494C1339.89 503.548 1339.96 508.947 1340.5 518.5C1341.19 530.687 1341.58 537.648 1344.5 549.5C1347.03 559.754 1348.89 565.5 1353.5 575C1358.25 584.794 1361.64 590.044 1368.5 598.5C1377.2 609.232 1383.31 614.388 1394.5 622.5C1406.74 631.374 1414.53 635.235 1428.5 641C1443.87 647.342 1453.25 648.959 1469.5 652.5C1485.34 655.952 1494.42 656.923 1510.5 659C1532.08 661.788 1544.33 662.055 1566 664Z" fill="#85F200"/>
</g>
<defs>
<radialGradient id="paint0_radial_138_256" cx="0" cy="0" r="1" gradientUnits="userSpaceOnUse" gradientTransform="translate(3.72111e-05 69.2609) rotate(30.6571) scale(1650.71 2146.65)">
<stop stop-color="#A62C6F"/>
<stop offset="0.555208"/>
<stop offset="1" stop-color="#468000"/>
</radialGradient>
<clipPath id="clip0_138_256">
<rect width="1600" height="810" fill="white"/>
</clipPath>
</defs>
</svg>
