<svg xmlns="http://www.w3.org/2000/svg" xmlns:xlink="http://www.w3.org/1999/xlink" viewBox="0 0 1600 810"><defs><style>.cls-1{fill:url(#Безымянный_градиент_2);}.cls-2{fill:url(#Безымянный_градиент_11);}.cls-3{fill:url(#Безымянный_градиент_11-2);}.cls-4{fill:url(#Безымянный_градиент_11-3);}.cls-5{fill:url(#Безымянный_градиент_11-4);}.cls-6{fill:url(#Безымянный_градиент_11-5);}.cls-7{fill:url(#Безымянный_градиент_11-6);}.cls-10,.cls-8{fill-opacity:0.6;}.cls-8{fill:url(#Безымянный_градиент_11-7);}.cls-9{fill:url(#Безымянный_градиент_11-8);}.cls-10{fill:url(#Безымянный_градиент_11-9);}</style><linearGradient id="Безымянный_градиент_2" x1="191.54" y1="974.98" x2="697.54" y2="500.98" gradientUnits="userSpaceOnUse"><stop offset="0" stop-color="#700f3a"/><stop offset="1" stop-color="#0b1400"/></linearGradient><linearGradient id="Безымянный_градиент_11" x1="364.01" y1="1088.16" x2="364.01" y2="938.49" gradientTransform="matrix(0.73, -0.68, -0.68, -0.73, 530.75, 1134.76)" gradientUnits="userSpaceOnUse"><stop offset="0" stop-color="#fd378e"/><stop offset="1" stop-color="#85f200"/></linearGradient><linearGradient id="Безымянный_градиент_11-2" x1="1498.96" y1="770.78" x2="1498.96" y2="556.92" gradientTransform="matrix(1, 0, 0, 1, 0, 0)" xlink:href="#Безымянный_градиент_11"/><linearGradient id="Безымянный_градиент_11-3" x1="2382.5" y1="563.62" x2="2382.5" y2="467.58" gradientTransform="matrix(0, -1, -1, 0, 1689.11, 2618.03)" xlink:href="#Безымянный_градиент_11"/><linearGradient id="Безымянный_градиент_11-4" x1="2410.84" y1="116.29" x2="2410.84" y2="20.26" gradientTransform="matrix(0, -1, -1, 0, 1270.12, 3093.7)" xlink:href="#Безымянный_градиент_11"/><linearGradient id="Безымянный_градиент_11-5" x1="1286.31" y1="82.3" x2="1286.31" y2="0" gradientTransform="matrix(1, 0, 0, 1, 0, 0)" xlink:href="#Безымянный_градиент_11"/><linearGradient id="Безымянный_градиент_11-6" x1="1309.3" y1="569.94" x2="1309.3" y2="467.16" gradientTransform="matrix(0.08, -1, -1, -0.08, 1033.23, 2082.88)" xlink:href="#Безымянный_градиент_11"/><linearGradient id="Безымянный_градиент_11-7" x1="333.38" y1="646.41" x2="333.38" y2="514.04" gradientTransform="matrix(1, -0.03, -0.03, -1, 12.71, 812.75)" xlink:href="#Безымянный_градиент_11"/><linearGradient id="Безымянный_градиент_11-8" x1="118.27" y1="810" x2="118.27" y2="570.49" gradientTransform="matrix(1, 0, 0, 1, 0, 0)" xlink:href="#Безымянный_градиент_11"/><linearGradient id="Безымянный_градиент_11-9" x1="1521.5" y1="262.13" x2="1521.5" y2="80" gradientTransform="matrix(1, 0, 0, 1, 0, 0)" xlink:href="#Безымянный_градиент_11"/></defs><title>Ресурс 2</title><g id="Слой_2" data-name="Слой 2"><g id="Слой_1-2" data-name="Слой 1"><rect class="cls-1" width="1600" height="810"/><rect class="cls-1" width="1600" height="810"/><circle class="cls-2" cx="109.75" cy="143.75" r="74.84"/><path class="cls-3" d="M1600,615.11v97.5a106.92,106.92,0,1,1-2.3-101.76Q1598.9,613,1600,615.11Z"/><circle class="cls-4" cx="1173.51" cy="235.52" r="48.02" transform="translate(502.48 1226.64) rotate(-67.25)"/><circle class="cls-5" cx="1201.85" cy="682.85" r="48.02" transform="translate(107.34 1527.11) rotate(-67.25)"/><path class="cls-6" d="M1391.18,0a108.59,108.59,0,0,1-5.31,16.06,108,108,0,0,1-141.31,57.81A107.78,107.78,0,0,1,1181.44,0Z"/><circle class="cls-7" cx="615.13" cy="738.13" r="51.39"/><circle class="cls-8" cx="329.08" cy="223.08" r="66.19"/><path class="cls-9" d="M214.34,810H0V591A158.58,158.58,0,0,1,214.34,810Z"/><path class="cls-10" d="M1600,108.27V233.86a91.06,91.06,0,1,1,0-125.59Z"/></g></g></svg>