<svg xmlns="http://www.w3.org/2000/svg" xmlns:xlink="http://www.w3.org/1999/xlink" viewBox="0 0 1600 857"><defs><style>.cls-1{fill:url(#Безымянный_градиент);}.cls-2{fill:url(#Безымянный_градиент_13);}.cls-3{fill:url(#Безымянный_градиент_13-2);}.cls-4{fill:url(#Безымянный_градиент_13-3);}.cls-5{fill:url(#Безымянный_градиент_13-4);}.cls-6{fill:url(#Безымянный_градиент_13-5);}.cls-7{fill:url(#Безымянный_градиент_13-6);}.cls-8{fill:url(#Безымянный_градиент_13-7);}.cls-10,.cls-9{fill-opacity:0.6;}.cls-9{fill:url(#Безымянный_градиент_13-8);}.cls-10{fill:url(#Безымянный_градиент_13-9);}.cls-11{fill:url(#Безымянный_градиент_13-10);}.cls-12{fill:url(#Безымянный_градиент_13-11);}.cls-13{fill:url(#Безымянный_градиент_13-12);}</style><radialGradient id="Безымянный_градиент" cx="34.4" cy="361.02" r="1449.43" gradientUnits="userSpaceOnUse"><stop offset="0" stop-color="#a62c6f"/><stop offset="0.56"/><stop offset="1" stop-color="#468000"/></radialGradient><linearGradient id="Безымянный_градиент_13" x1="1568.52" y1="816.51" x2="1568.52" y2="598.22" gradientTransform="matrix(1, 0.04, 0.04, -1, -308.54, 1373.22)" gradientUnits="userSpaceOnUse"><stop offset="0" stop-color="#fd378e"/><stop offset="1" stop-color="#85f200"/></linearGradient><linearGradient id="Безымянный_градиент_13-2" x1="1348.38" y1="909.94" x2="1348.38" y2="805.06" gradientTransform="matrix(1, 0.04, 0.04, -1, -314.53, 1381.65)" xlink:href="#Безымянный_градиент_13"/><linearGradient id="Безымянный_градиент_13-3" x1="1625.12" y1="406.35" x2="1625.12" y2="292.12" gradientTransform="matrix(0, 1, 1, 0, 1154.68, -1469.21)" xlink:href="#Безымянный_градиент_13"/><linearGradient id="Безымянный_градиент_13-4" x1="1394.12" y1="479.35" x2="1394.12" y2="365.12" gradientTransform="matrix(0, 1, 1, 0, 850.68, -1311.21)" xlink:href="#Безымянный_градиент_13"/><linearGradient id="Безымянный_градиент_13-5" x1="859.43" y1="5.65" x2="859.43" y2="-183.8" gradientTransform="matrix(0.5, 0.87, 0.87, -0.5, 389.57, -196.35)" xlink:href="#Безымянный_градиент_13"/><linearGradient id="Безымянный_градиент_13-6" x1="219.12" y1="448.35" x2="219.12" y2="334.12" gradientTransform="matrix(0.5, 0.87, 0.87, -0.5, -350.49, 117.53)" xlink:href="#Безымянный_градиент_13"/><linearGradient id="Безымянный_градиент_13-7" x1="409.76" y1="675.39" x2="409.76" y2="553.96" gradientTransform="matrix(1, 0, 0, -1, -50.94, 1209.93)" xlink:href="#Безымянный_градиент_13"/><linearGradient id="Безымянный_градиент_13-8" x1="2249.36" y1="1054.98" x2="2249.36" y2="889.51" gradientTransform="matrix(0.62, -0.78, -0.78, -0.62, 781.75, 2844.45)" xlink:href="#Безымянный_градиент_13"/><linearGradient id="Безымянный_градиент_13-9" x1="70.62" y1="547.49" x2="70.62" y2="382" gradientTransform="matrix(1, 0, 0, 1, 0, 0)" xlink:href="#Безымянный_градиент_13"/><linearGradient id="Безымянный_градиент_13-10" x1="178.52" y1="857" x2="178.52" y2="652" gradientTransform="matrix(1, 0, 0, 1, 0, 0)" xlink:href="#Безымянный_градиент_13"/><linearGradient id="Безымянный_градиент_13-11" x1="567.75" y1="857" x2="567.75" y2="760" gradientTransform="matrix(1, 0, 0, 1, 0, 0)" xlink:href="#Безымянный_градиент_13"/><linearGradient id="Безымянный_градиент_13-12" x1="325.91" y1="57.04" x2="325.91" y2="0" gradientTransform="matrix(1, 0, 0, 1, 0, 0)" xlink:href="#Безымянный_градиент_13"/></defs><title>Ресурс 1</title><g id="Слой_2" data-name="Слой 2"><g id="Слой_1-2" data-name="Слой 1"><rect class="cls-1" width="1600" height="857"/><circle class="cls-2" cx="1286.24" cy="727.24" r="109.15" transform="translate(-137.51 1122.51) rotate(-45)"/><circle class="cls-3" cx="1066.11" cy="577.11" r="52.44" transform="translate(-95.82 922.88) rotate(-45)"/><circle class="cls-4" cx="1503.91" cy="155.92" r="57.11" transform="translate(120.48 765.97) rotate(-29.72)"/><circle class="cls-5" cx="1272.91" cy="82.92" r="57.11" transform="translate(126.29 641.87) rotate(-29.72)"/><circle class="cls-6" cx="738.22" cy="594.22" r="94.72"/><circle class="cls-7" cx="97.91" cy="113.92" r="57.11"/><circle class="cls-8" cx="358.83" cy="595.26" r="60.71" transform="translate(-113.49 85.35) rotate(-11.73)"/><circle class="cls-9" cx="1423.5" cy="479.5" r="82.74" transform="translate(77.88 1147.01) rotate(-45)"/><path class="cls-10" d="M67.78,547A82.58,82.58,0,0,1,0,523.26v-117A82.74,82.74,0,1,1,67.78,547Z"/><path class="cls-11" d="M330.1,857H26.93a158.54,158.54,0,1,1,303.17,0Z"/><path class="cls-12" d="M641.76,857h-148a76.73,76.73,0,1,1,148,0Z"/><path class="cls-13" d="M383,0a60.18,60.18,0,0,1-.36,6.26,57.11,57.11,0,0,1-63.1,50.42A57.14,57.14,0,0,1,268.79,0Z"/></g></g></svg>