<svg width="15" height="18" viewBox="0 0 15 18" fill="none" xmlns="http://www.w3.org/2000/svg">
<path d="M9.36212 15.3C10.0828 15.3 10.4636 16.2216 9.98283 16.8012C9.67053 17.1787 9.28791 17.4807 8.86003 17.6872C8.43216 17.8938 7.96869 18.0004 7.50001 18C7.03134 18.0004 6.56787 17.8938 6.14 17.6872C5.71212 17.4807 5.32949 17.1787 5.0172 16.8012C4.5573 16.2468 4.88556 15.3801 5.54542 15.3063L5.63707 15.3009L9.36212 15.3ZM7.50001 0C8.63144 0 9.58791 0.8127 9.89535 1.9269L9.93367 2.0808L9.94034 2.1195C10.8588 2.67921 11.6415 3.46599 12.2242 4.4154C12.807 5.36481 13.1732 6.44983 13.293 7.5816L13.3163 7.8399L13.3321 8.1V10.7379L13.3496 10.8603C13.4637 11.5234 13.8034 12.1164 14.3019 12.5226L14.4411 12.6279L14.576 12.717C15.2925 13.1553 15.0426 14.3064 14.2619 14.3946L14.1653 14.4H0.834742C-0.0217451 14.4 -0.320849 13.1724 0.423995 12.717C0.741453 12.5229 1.01574 12.2562 1.22761 11.9354C1.43948 11.6147 1.58378 11.2477 1.65041 10.8603L1.6679 10.7316L1.66873 8.0586C1.71953 6.88309 2.03629 5.73895 2.59128 4.72632C3.14627 3.71369 3.92257 2.86344 4.85223 2.25L5.05886 2.1186L5.06719 2.0799C5.18504 1.54172 5.4529 1.05555 5.8346 0.687003C6.2163 0.318452 6.69348 0.0852611 7.20174 0.0188999L7.35338 0.00359995L7.50001 0Z" fill="#FD378E"/>
</svg>
