<svg width="40" height="40" viewBox="0 0 40 40" fill="none" xmlns="http://www.w3.org/2000/svg">
<path d="M23.7242 31.794C25.1656 31.794 25.9271 33.5887 24.9657 34.7174C24.3411 35.4525 23.5758 36.0405 22.7201 36.4428C21.8643 36.8451 20.9374 37.0526 20 37.0518C19.0627 37.0526 18.1357 36.8451 17.28 36.4428C16.4242 36.0405 15.659 35.4525 15.0344 34.7174C14.1146 33.6378 14.7711 31.95 16.0908 31.8063L16.2741 31.7958L23.7242 31.794ZM20 2C22.2629 2 24.1758 3.58259 24.7907 5.7523L24.8673 6.05199L24.8807 6.12735C26.7176 7.21729 28.2829 8.74941 29.4484 10.5982C30.6139 12.447 31.3464 14.5599 31.5859 16.7638L31.6326 17.2668L31.6643 17.7733V22.9102L31.6992 23.1485C31.9274 24.4399 32.6068 25.5946 33.6038 26.3855L33.8821 26.5906L34.1521 26.7641C35.5851 27.6176 35.0852 29.8592 33.5239 30.0309L33.3306 30.0414H6.66948C4.95651 30.0414 4.3583 27.6509 5.84799 26.7641C6.48291 26.3862 7.03149 25.8667 7.45522 25.2421C7.87895 24.6175 8.16757 23.9029 8.30081 23.1485L8.3358 22.8979L8.33747 17.6927C8.43907 15.4036 9.07258 13.1756 10.1826 11.2037C11.2925 9.23176 12.8451 7.57605 14.7045 6.38148L15.1177 6.1256L15.1344 6.05024C15.3701 5.00223 15.9058 4.0555 16.6692 3.33782C17.4326 2.62013 18.387 2.16603 19.4035 2.0368L19.7068 2.00701L20 2Z" fill="white"/>
</svg>
