<svg width="43" height="43" viewBox="0 0 43 43" fill="none" xmlns="http://www.w3.org/2000/svg">
<path d="M21.93 23.65L19.995 25.585C19.6008 25.9792 19.4037 26.4808 19.4037 27.09C19.4037 27.6992 19.6008 28.2008 19.995 28.595C20.3892 28.9892 20.8908 29.1862 21.5 29.1862C22.1092 29.1862 22.6108 28.9892 23.005 28.595L28.595 23.005C29.025 22.575 29.24 22.0733 29.24 21.5C29.24 20.9267 29.025 20.425 28.595 19.995L23.005 14.405C22.6108 14.0108 22.1092 13.8137 21.5 13.8137C20.8908 13.8137 20.3892 14.0108 19.995 14.405C19.6008 14.7992 19.4037 15.3008 19.4037 15.91C19.4037 16.5192 19.6008 17.0208 19.995 17.415L21.93 19.35H15.05C14.4408 19.35 13.9298 19.5564 13.517 19.9692C13.1042 20.382 12.8986 20.8923 12.9 21.5C12.9 22.1092 13.1064 22.6201 13.5192 23.0329C13.932 23.4457 14.4423 23.6514 15.05 23.65H21.93ZM21.5 43C18.5258 43 15.7308 42.4353 13.115 41.3058C10.4992 40.1763 8.22375 38.6448 6.28875 36.7113C4.35375 34.7762 2.82223 32.5008 1.6942 29.885C0.566167 27.2692 0.00143333 24.4742 0 21.5C0 18.5258 0.564734 15.7308 1.6942 13.115C2.82367 10.4992 4.35518 8.22375 6.28875 6.28875C8.22375 4.35375 10.4992 2.82223 13.115 1.6942C15.7308 0.566167 18.5258 0.00143333 21.5 0C24.4742 0 27.2692 0.564734 29.885 1.6942C32.5008 2.82367 34.7762 4.35518 36.7113 6.28875C38.6462 8.22375 40.1785 10.4992 41.3079 13.115C42.4374 15.7308 43.0014 18.5258 43 21.5C43 24.4742 42.4353 27.2692 41.3058 29.885C40.1763 32.5008 38.6448 34.7762 36.7113 36.7113C34.7762 38.6462 32.5008 40.1785 29.885 41.3079C27.2692 42.4374 24.4742 43.0014 21.5 43ZM21.5 38.7C26.3017 38.7 30.3687 37.0337 33.7012 33.7012C37.0337 30.3687 38.7 26.3017 38.7 21.5C38.7 16.6983 37.0337 12.6312 33.7012 9.29875C30.3687 5.96625 26.3017 4.3 21.5 4.3C16.6983 4.3 12.6312 5.96625 9.29875 9.29875C5.96625 12.6312 4.3 16.6983 4.3 21.5C4.3 26.3017 5.96625 30.3687 9.29875 33.7012C12.6312 37.0337 16.6983 38.7 21.5 38.7Z" fill="#A62A61"/>
</svg>
