<svg width="81" height="81" viewBox="0 0 81 81" fill="none" xmlns="http://www.w3.org/2000/svg">
<path d="M41.31 44.55L37.665 48.195C36.9225 48.9375 36.5512 49.8825 36.5512 51.03C36.5512 52.1775 36.9225 53.1225 37.665 53.865C38.4075 54.6075 39.3525 54.9787 40.5 54.9787C41.6475 54.9787 42.5925 54.6075 43.335 53.865L53.865 43.335C54.675 42.525 55.08 41.58 55.08 40.5C55.08 39.42 54.675 38.475 53.865 37.665L43.335 27.135C42.5925 26.3925 41.6475 26.0212 40.5 26.0212C39.3525 26.0212 38.4075 26.3925 37.665 27.135C36.9225 27.8775 36.5512 28.8225 36.5512 29.97C36.5512 31.1175 36.9225 32.0625 37.665 32.805L41.31 36.45H28.35C27.2025 36.45 26.2399 36.8388 25.4623 37.6164C24.6847 38.394 24.2973 39.3552 24.3 40.5C24.3 41.6475 24.6888 42.61 25.4664 43.3876C26.244 44.1652 27.2052 44.5527 28.35 44.55H41.31ZM40.5 81C34.8975 81 29.6325 79.9362 24.705 77.8086C19.7775 75.681 15.4913 72.7961 11.8462 69.1537C8.20125 65.5088 5.3163 61.2225 3.1914 56.295C1.0665 51.3675 0.0027 46.1025 0 40.5C0 34.8975 1.0638 29.6325 3.1914 24.705C5.319 19.7775 8.20395 15.4913 11.8462 11.8462C15.4913 8.20125 19.7775 5.3163 24.705 3.1914C29.6325 1.0665 34.8975 0.0027 40.5 0C46.1025 0 51.3675 1.0638 56.295 3.1914C61.2225 5.319 65.5088 8.20395 69.1537 11.8462C72.7987 15.4913 75.685 19.7775 77.8126 24.705C79.9402 29.6325 81.0027 34.8975 81 40.5C81 46.1025 79.9362 51.3675 77.8086 56.295C75.681 61.2225 72.7961 65.5088 69.1537 69.1537C65.5088 72.7987 61.2225 75.685 56.295 77.8126C51.3675 79.9402 46.1025 81.0027 40.5 81ZM40.5 72.9C49.545 72.9 57.2062 69.7612 63.4837 63.4837C69.7612 57.2062 72.9 49.545 72.9 40.5C72.9 31.455 69.7612 23.7937 63.4837 17.5162C57.2062 11.2387 49.545 8.1 40.5 8.1C31.455 8.1 23.7937 11.2387 17.5162 17.5162C11.2387 23.7937 8.1 31.455 8.1 40.5C8.1 49.545 11.2387 57.2062 17.5162 63.4837C23.7937 69.7612 31.455 72.9 40.5 72.9Z" fill="white"/>
</svg>
