<svg width="12" height="12" viewBox="0 0 12 12" fill="none" xmlns="http://www.w3.org/2000/svg">
<path d="M4.49043 9.94284L1.06238 6.75727C1.04261 6.7389 1.02692 6.71706 1.01622 6.69301C1.00551 6.66896 1 6.64317 1 6.61712C1 6.59108 1.00551 6.56528 1.01622 6.54123C1.02692 6.51718 1.04261 6.49535 1.06238 6.47698L1.92781 5.66756C2.0105 5.5903 2.14416 5.5903 2.22686 5.66756L4.4837 7.76343C4.5664 7.84069 4.70102 7.83979 4.78371 7.76253L9.77049 3.05873C9.85319 2.98057 9.98781 2.98057 10.0715 3.05783L10.9379 3.86725C11.0206 3.94451 11.0206 4.06938 10.9388 4.14664L5.50587 9.26818L5.50683 9.26907L4.79045 9.94194C4.70775 10.0192 4.57313 10.0192 4.49043 9.94284Z" fill="#FD378E" stroke="#FD378E" stroke-miterlimit="10"/>
</svg>
