<svg width="164" height="164" viewBox="0 0 164 164" fill="none" xmlns="http://www.w3.org/2000/svg">
<path fill-rule="evenodd" clip-rule="evenodd" d="M81.2887 18.7014C116.641 18.7061 145.298 47.3659 145.298 82.719C145.298 93.2087 142.775 103.109 138.303 111.847L139.511 122.702L157.783 113.375C161.789 103.71 164 93.1133 164 82C164 36.7127 127.287 0 82 0C80.4743 0 78.9583 0.041669 77.4531 0.123931L92.9757 9.60188L81.2887 18.7014ZM81.2801 146.736C101.523 146.736 119.571 137.341 131.302 122.673L132.711 135.327L151.315 125.831C136.778 148.771 111.167 164 82 164C59.4016 164 38.9383 154.858 24.1063 140.072L24.1188 126.059L40.9357 132.426C51.9461 141.374 65.9868 146.736 81.2801 146.736ZM28.5358 119.01C21.4257 108.696 17.2626 96.1937 17.2626 82.719C17.2626 52.8115 37.7712 27.6941 65.4921 20.663L78.6544 10.4147L64.6201 1.84549C27.6806 9.81728 0 42.6761 0 82C0 100.198 5.92781 117.011 15.9578 130.614L15.9725 114.253L28.5358 119.01Z" fill="#FD378E" fill-opacity="0.32"/>
</svg>
