<svg width="28" height="32" viewBox="0 0 28 32" fill="none" xmlns="http://www.w3.org/2000/svg">
<path d="M27.1073 15.2783C27.1941 15.363 27.2629 15.4635 27.3099 15.5742C27.3569 15.6848 27.381 15.8034 27.381 15.9232C27.381 16.043 27.3569 16.1616 27.3099 16.2722C27.2629 16.3829 27.1941 16.4834 27.1073 16.5681L14.3412 29.025C12.7653 30.5632 10.6282 31.4272 8.39993 31.4268C6.17169 31.4263 4.03489 30.5616 2.4596 29.0227C0.884307 27.4838 -0.000437446 25.3969 1.62258e-07 23.221C0.00043777 21.0452 0.886022 18.9586 2.46193 17.4203L17.9053 2.1196C18.4541 1.58325 19.1056 1.1577 19.8228 0.867247C20.5399 0.576789 21.3087 0.427111 22.0851 0.426758C22.8615 0.426406 23.6303 0.575386 24.3478 0.865192C25.0652 1.155 25.7172 1.57995 26.2664 2.1158C26.8157 2.65164 27.2515 3.28788 27.5489 3.98819C27.8464 4.68849 27.9996 5.43915 28 6.1973C28.0004 6.95546 27.8478 7.70625 27.551 8.40683C27.2542 9.1074 26.819 9.74404 26.2703 10.2804L10.8254 25.575C10.184 26.2025 9.31358 26.5555 8.40566 26.5564C7.49773 26.5573 6.62665 26.2059 5.98403 25.5796C5.34141 24.9533 4.9799 24.1033 4.97902 23.2167C4.97815 22.3302 5.33798 21.4795 5.97936 20.852L18.9352 7.98953C19.1089 7.81709 19.3456 7.71909 19.5933 7.7171C19.841 7.7151 20.0794 7.80927 20.256 7.97889C20.4326 8.14851 20.5329 8.37969 20.535 8.62156C20.537 8.86344 20.4406 9.0962 20.2669 9.26864L7.31104 22.1372C7.16619 22.278 7.05115 22.4452 6.97249 22.6293C6.89382 22.8135 6.85308 23.011 6.85257 23.2105C6.85206 23.4101 6.89181 23.6077 6.96954 23.7923C7.04727 23.9768 7.16146 24.1446 7.30559 24.286C7.44972 24.4275 7.62097 24.5398 7.80957 24.6166C7.99816 24.6934 8.20039 24.7332 8.40473 24.7337C8.60907 24.7342 8.81151 24.6954 9.00048 24.6195C9.18946 24.5436 9.36128 24.4321 9.50613 24.2913L24.9449 8.99519C25.704 8.25507 26.131 7.25076 26.1319 6.20321C26.1328 5.15566 25.7075 4.15068 24.9495 3.40934C24.1916 2.66801 23.1631 2.25105 22.0903 2.25019C21.0176 2.24934 19.9884 2.66466 19.2292 3.40478L3.78428 18.6994C2.55804 19.8954 1.86857 21.5181 1.86755 23.2105C1.86653 24.9029 2.55404 26.5264 3.77883 27.7238C5.00362 28.9212 6.66537 29.5945 8.39851 29.5955C10.1316 29.5965 11.7942 28.9252 13.0204 27.7291L25.7865 15.2723C25.8736 15.1879 25.9769 15.1211 26.0904 15.0758C26.2039 15.0304 26.3255 15.0074 26.4482 15.008C26.5708 15.0085 26.6922 15.0327 26.8053 15.0791C26.9184 15.1255 27.021 15.1932 27.1073 15.2783Z" fill="white"/>
</svg>
