<svg width="24" height="18" viewBox="0 0 24 18" fill="none" xmlns="http://www.w3.org/2000/svg">
<path fill-rule="evenodd" clip-rule="evenodd" d="M12 0C4.28571 0 0 6 0 8.57143C0 11.1429 4.28571 17.1429 12 17.1429C19.7143 17.1429 24 11.1429 24 8.57143C24 6 19.7143 0 12 0ZM4.63086 12.1177C3.17943 10.8183 2.28571 9.23771 2.28571 8.57143C2.28571 7.904 3.17829 6.32457 4.63086 5.02514C6.54971 3.30857 9.072 2.28571 12 2.28571C14.928 2.28571 17.4514 3.30857 19.3691 5.02514C20.8206 6.32457 21.7143 7.90514 21.7143 8.57143C21.7143 9.23886 20.8217 10.8183 19.3691 12.1177C17.4503 13.8343 14.928 14.8571 12 14.8571C9.072 14.8571 6.54857 13.8343 4.63086 12.1177ZM12 13.1429C10.7876 13.1429 9.62482 12.6612 8.76751 11.8039C7.9102 10.9466 7.42857 9.78385 7.42857 8.57143C7.42857 7.35901 7.9102 6.19625 8.76751 5.33894C9.62482 4.48163 10.7876 4 12 4C13.2124 4 14.3752 4.48163 15.2325 5.33894C16.0898 6.19625 16.5714 7.35901 16.5714 8.57143C16.5714 9.78385 16.0898 10.9466 15.2325 11.8039C14.3752 12.6612 13.2124 13.1429 12 13.1429ZM14.2857 8.57143C14.2857 9.17764 14.0449 9.75902 13.6162 10.1877C13.1876 10.6163 12.6062 10.8571 12 10.8571C11.3938 10.8571 10.8124 10.6163 10.3838 10.1877C9.9551 9.75902 9.71429 9.17764 9.71429 8.57143C9.71429 7.96522 9.9551 7.38384 10.3838 6.95518C10.8124 6.52653 11.3938 6.28571 12 6.28571C12.6062 6.28571 13.1876 6.52653 13.6162 6.95518C14.0449 7.38384 14.2857 7.96522 14.2857 8.57143Z" fill="#222222"/>
</svg>
