<svg width="45" height="45" viewBox="0 0 45 45" fill="none" xmlns="http://www.w3.org/2000/svg">
<path d="M26.3753 6C24.1355 6 21.9875 6.87551 20.4037 8.43391C18.8199 9.99232 17.9302 12.106 17.9302 14.3099V18.9365H13.4108C13.1844 18.9365 13 19.1162 13 19.3408V25.4497C13 25.6725 13.1826 25.8539 13.4108 25.8539H17.9302V38.3862C17.9302 38.609 18.1128 38.7904 18.341 38.7904H24.5493C24.7758 38.7904 24.9602 38.6108 24.9602 38.3862V25.8539H29.5197C29.7077 25.8539 29.8721 25.7282 29.9177 25.5485L31.4698 19.4396C31.4851 19.38 31.4863 19.3177 31.4735 19.2576C31.4606 19.1974 31.434 19.1409 31.3956 19.0924C31.3572 19.0439 31.3081 19.0047 31.252 18.9776C31.1959 18.9506 31.1342 18.9365 31.0718 18.9365H24.9602V14.3099C24.9602 14.127 24.9968 13.946 25.0679 13.777C25.139 13.6081 25.2433 13.4546 25.3747 13.3253C25.5061 13.196 25.6621 13.0934 25.8338 13.0234C26.0055 12.9535 26.1895 12.9174 26.3753 12.9174H31.1229C31.3493 12.9174 31.5337 12.7378 31.5337 12.5132V6.40427C31.5337 6.18147 31.3511 6 31.1229 6H26.3753Z" fill="white"/>
</svg>
