<svg width="40" height="40" viewBox="0 0 40 40" fill="none" xmlns="http://www.w3.org/2000/svg">
<path fill-rule="evenodd" clip-rule="evenodd" d="M25.5 14.7461C25.5 16.4363 24.8679 18.0574 23.7426 19.2525C22.6174 20.4477 21.0913 21.1192 19.5 21.1192C17.9087 21.1192 16.3826 20.4477 15.2574 19.2525C14.1321 18.0574 13.5 16.4363 13.5 14.7461C13.5 13.0559 14.1321 11.4349 15.2574 10.2397C16.3826 9.04449 17.9087 8.37305 19.5 8.37305C21.0913 8.37305 22.6174 9.04449 23.7426 10.2397C24.8679 11.4349 25.5 13.0559 25.5 14.7461Z" fill="white"/>
<path fill-rule="evenodd" clip-rule="evenodd" d="M19.5 2C10.3875 2 3 9.84683 3 19.5259C3 29.205 10.3875 37.0518 19.5 37.0518C28.6125 37.0518 36 29.205 36 19.5259C36 9.84683 28.6125 2 19.5 2ZM6 19.5259C6 22.8558 7.0695 25.9213 8.862 28.3558C10.1208 26.5998 11.7449 25.1768 13.6072 24.1979C15.4694 23.2189 17.5196 22.7105 19.5975 22.7124C21.6485 22.7104 23.6729 23.2056 25.5164 24.1604C27.3599 25.1151 28.9739 26.5043 30.2355 28.2219C31.5352 26.4114 32.4103 24.2981 32.7883 22.057C33.1664 19.8158 33.0366 17.5113 32.4097 15.334C31.7828 13.1567 30.6768 11.1693 29.1832 9.5362C27.6896 7.90309 25.8514 6.67123 23.8206 5.94255C21.7898 5.21387 19.6248 5.00931 17.5048 5.34581C15.3848 5.68231 13.3707 6.55019 11.6292 7.87764C9.88762 9.20508 8.46872 10.9539 7.48984 12.9795C6.51097 15.0051 6.00027 17.2491 6 19.5259Z" fill="white"/>
</svg>
