<svg width="40" height="40" viewBox="0 0 40 40" fill="none" xmlns="http://www.w3.org/2000/svg">
<path d="M36.9972 8.92077C36.9973 9.23718 36.9224 9.54872 36.779 9.8277C36.6357 10.1067 36.4284 10.3445 36.1756 10.5199L19.9991 21.7524L3.82269 10.5199C3.49293 10.2914 3.24257 9.95846 3.10864 9.57026C2.97471 9.18206 2.96433 8.75927 3.07905 8.36446C3.19376 7.96964 3.42747 7.62378 3.74559 7.37804C4.0637 7.1323 4.44933 6.99975 4.8454 7H35.1557C36.1756 7 37 7.86154 37 8.92077H36.9972ZM36.9972 15.7541V30.6039C36.9972 31.3864 36.6987 32.1369 36.1674 32.6902C35.6361 33.2435 34.9155 33.5544 34.1642 33.5544H5.83412C5.08276 33.5544 4.36217 33.2435 3.83088 32.6902C3.29959 32.1369 3.00112 31.3864 3.00112 30.6039V15.7541C3.00112 15.164 3.63288 14.8129 4.10315 15.1404L19.9991 26.1782L35.8951 15.1434C36.0016 15.0692 36.1254 15.0265 36.2533 15.0198C36.3813 15.0131 36.5085 15.0426 36.6216 15.1053C36.7347 15.1679 36.8294 15.2614 36.8955 15.3756C36.9616 15.4899 36.9968 15.6207 36.9972 15.7541Z" fill="white"/>
</svg>
