<svg width="58" height="56" viewBox="0 0 58 56" fill="none" xmlns="http://www.w3.org/2000/svg">
<path d="M28.2189 1.13275C28.566 0.326782 29.7087 0.326779 30.0558 1.13274L37.4296 18.2555C37.5744 18.5917 37.8913 18.8219 38.2557 18.8557L56.8191 20.5774C57.6929 20.6585 58.046 21.7453 57.3868 22.3244L43.3807 34.6286C43.1057 34.8702 42.9846 35.2427 43.0651 35.5997L47.1641 53.7866C47.357 54.6426 46.4325 55.3143 45.678 54.8663L29.6479 45.3479C29.3332 45.161 28.9415 45.161 28.6268 45.3479L12.5967 54.8663C11.8422 55.3143 10.9177 54.6426 11.1106 53.7866L15.2096 35.5997C15.2901 35.2427 15.169 34.8702 14.894 34.6286L0.887951 22.3244C0.228689 21.7453 0.581813 20.6585 1.45558 20.5774L20.019 18.8557C20.3834 18.8219 20.7003 18.5917 20.8451 18.2555L28.2189 1.13275Z" fill="#85F200"/>
</svg>
