<svg width="45" height="45" viewBox="0 0 45 45" fill="none" xmlns="http://www.w3.org/2000/svg">
<path d="M42 11.5294C40.6013 12.1471 39.0937 12.5529 37.5316 12.7471C39.13 11.8118 40.3652 10.3294 40.9465 8.54706C39.4388 9.42941 37.7677 10.0471 36.0057 10.4C34.5707 8.88235 32.5545 8 30.2658 8C25.9971 8 22.5096 11.3882 22.5096 15.5706C22.5096 16.1706 22.5822 16.7529 22.7094 17.3C16.2428 16.9824 10.4847 13.9647 6.65201 9.39412C5.97992 10.5059 5.59847 11.8118 5.59847 13.1882C5.59847 15.8176 6.9608 18.1471 9.06788 19.4706C7.7782 19.4706 6.57935 19.1176 5.52581 18.5882V18.6412C5.52581 22.3118 8.21415 25.3824 11.7744 26.0706C10.6313 26.3745 9.43134 26.4168 8.26864 26.1941C8.762 27.6985 9.72822 29.0148 11.0315 29.9581C12.3347 30.9014 13.9095 31.4242 15.5344 31.4529C12.78 33.5714 9.36577 34.7164 5.85277 34.7C5.23518 34.7 4.61759 34.6647 4 34.5941C7.45124 36.7471 11.5564 38 15.9522 38C30.2658 38 38.131 26.4588 38.131 16.4529C38.131 16.1176 38.131 15.8 38.1128 15.4647C39.6386 14.4059 40.9465 13.0647 42 11.5294Z" fill="white"/>
</svg>
