<svg width="45" height="45" viewBox="0 0 45 45" fill="none" xmlns="http://www.w3.org/2000/svg">
<path d="M23.5227 8H23.7607C25.9581 8.00799 37.0924 8.08791 40.0945 8.89239C41.0021 9.13792 41.8291 9.61649 42.4929 10.2803C43.1567 10.9441 43.6341 11.7698 43.8773 12.6751C44.1473 13.6873 44.3371 15.0273 44.4654 16.4098L44.4921 16.6868L44.5509 17.3794L44.5723 17.6565C44.7461 20.0912 44.7675 22.3715 44.7701 22.8697V23.0694C44.7675 23.5862 44.7434 26.021 44.5509 28.557L44.5295 28.8367L44.5055 29.1137C44.3718 30.6375 44.174 32.1505 43.8773 33.264C43.6348 34.1696 43.1577 34.9958 42.4938 35.6597C41.8299 36.3236 41.0025 36.8019 40.0945 37.0467C36.9935 37.8778 25.2069 37.9364 23.5735 37.9391H23.1939C22.3679 37.9391 18.9514 37.9231 15.3692 37.8006L14.9147 37.7846L14.6821 37.7739L14.225 37.7553L13.7679 37.7366C10.8005 37.6061 7.97483 37.3957 6.67293 37.044C5.76532 36.7995 4.93813 36.3216 4.27424 35.6581C3.61035 34.9947 3.13307 34.1691 2.89021 33.264C2.59347 32.1532 2.39565 30.6375 2.26198 29.1137L2.2406 28.834L2.21921 28.557C2.08728 26.752 2.01417 24.9431 2 23.1334L2 22.8057C2.00535 22.233 2.02673 20.2537 2.17109 18.0694L2.1898 17.795L2.19782 17.6565L2.21921 17.3794L2.27802 16.6868L2.30476 16.4098C2.43307 15.0273 2.62288 13.6847 2.89288 12.6751C3.13533 11.7695 3.61243 10.9433 4.27635 10.2794C4.94027 9.61551 5.76767 9.13718 6.6756 8.89239C7.9775 8.54609 10.8032 8.33298 13.7705 8.19979L14.225 8.18114L14.6848 8.16516L14.9147 8.15717L15.3718 8.13852C17.916 8.05694 20.4613 8.01165 23.0068 8.00266H23.5227V8ZM19.1091 16.551V29.3854L30.222 22.9709L19.1091 16.551Z" fill="white"/>
</svg>
