<svg xmlns="http://www.w3.org/2000/svg" viewBox="0 0 20.01 20"><g id="Слой_2" data-name="Слой 2"><g id="Слой_2-2" data-name="Слой 2"><g id="Слой_2-3" data-name="Слой 2"><g id="Слой_2-2-2" data-name="Слой 2-2"><path d="M17.91 1.37a5.57 5.57 0 00-7.85.55L10 2a5.58 5.58 0 00-7.84-.71.46.46 0 01-.07.07 6.8 6.8 0 00-.41 9.38L10 20l8.34-9.25a6.81 6.81 0 00-.43-9.38zm-2.06 8.06l-5.74 6.34c-.08.09-.14.09-.22 0L4.15 9.43a3.87 3.87 0 01.24-5.35 3.12 3.12 0 014.4.3l.06.07L10 5.72l1.14-1.27A3.13 3.13 0 0115.56 4a3.92 3.92 0 01.29 5.43z" fill="#fff"/><path d="M15.85 9.43l-5.74 6.34c-.08.09-.14.09-.22 0L4.15 9.43a3.87 3.87 0 01.24-5.35 3.12 3.12 0 014.4.3l.06.07L10 5.72l1.14-1.27A3.13 3.13 0 0115.56 4a3.92 3.92 0 01.29 5.43z" fill="none"/></g></g></g></g></svg>