<svg xmlns="http://www.w3.org/2000/svg" viewBox="0 0 70 70"><g id="Слой_2" data-name="Слой 2"><g id="Слой_1-2" data-name="Слой 1"><rect width="70" height="70" rx="17.43" fill="#2787f5"/><path d="M61.19 22.69c.38-1.25 0-2.17-1.8-2.17h-6a2.57 2.57 0 00-2.6 1.67s-3 7.3-7.33 12c-1.38 1.37-2 1.81-2.78 1.81-.38 0-.95-.44-.95-1.69V22.69c0-1.5-.43-2.17-1.68-2.17h-9.34a1.43 1.43 0 00-1.52 1.35c0 1.42 2.15 1.75 2.37 5.75v8.67c0 1.9-.35 2.25-1.11 2.25-2 0-6.94-7.34-9.86-15.73-.59-1.63-1.16-2.29-2.69-2.29h-6c-1.7 0-2 .79-2 1.67 0 1.56 2 9.3 9.42 19.54 4.94 7 11.88 10.77 18.2 10.77 3.8 0 4.27-.84 4.27-2.29 0-6.68-.35-7.3 1.56-7.3.88 0 2.4.43 5.94 3.8 4 4 4.72 5.79 7 5.79h6c1.7 0 2.56-.84 2.07-2.5-1.14-3.49-8.8-10.66-9.15-11.14-.88-1.12-.62-1.62 0-2.62-.05-.01 7.24-10.12 7.98-13.55z" fill="#fff"/></g></g></svg>