<svg width="30" height="30" fill="none" xmlns="http://www.w3.org/2000/svg"><path fill-rule="evenodd" clip-rule="evenodd" d="M29.31 7.208c.21-.71 0-1.208-.985-1.208h-3.283c-.844 0-1.22.45-1.43.947 0 0-1.665 4.121-4.033 6.774-.774.782-1.102 1.018-1.524 1.018-.212 0-.516-.236-.516-.947V7.208c0-.853-.235-1.208-.938-1.208h-5.159c-.515 0-.844.403-.844.758 0 .805 1.173.995 1.313 3.22v4.88c0 1.066-.187 1.255-.61 1.255-1.101 0-3.821-4.12-5.416-8.858C5.557 6.38 5.252 6 4.408 6H1.125C.188 6 0 6.45 0 6.947c0 .877 1.102 5.235 5.182 10.99C7.902 21.868 11.724 24 15.194 24c2.087 0 2.345-.474 2.345-1.279v-2.984c0-.947.187-1.137.867-1.137.493 0 1.313.237 3.26 2.132C23.892 22.982 24.267 24 25.51 24h3.282c.938 0 1.407-.474 1.126-1.397-.305-.924-1.36-2.274-2.767-3.885-.774-.923-1.923-1.894-2.25-2.392-.493-.64-.353-.923 0-1.468 0-.024 4.009-5.708 4.407-7.65z" fill="#fff"/></svg>