<svg width="105" height="20" fill="none" xmlns="http://www.w3.org/2000/svg"><g clip-path="url(#clip0)"><path d="M3.88 14.813a20.2 20.2 0 011.579 2.324c.403.762.57 1.28.865 2.197.18.508.344.659.694.659.383 0 .556-.258.69-.656.278-.867.497-1.529.841-2.154.676-1.207 1.516-2.28 2.341-3.311.223-.292 1.668-1.992 2.318-3.333 0 0 .8-1.474.8-3.532 0-1.924-.789-3.26-.789-3.26l-2.269.607-1.378 3.622-.341.499-.068.09-.09.114-.16.18-.228.228-1.227.997-3.068 1.768-.51 2.961z" fill="#34A853"/><path d="M.713 10.291c.749 1.707 2.193 3.207 3.17 4.523l5.189-6.133s-.731.954-2.058.954a2.655 2.655 0 01-2.67-2.66c0-1.019.614-1.718.614-1.718L1.435 6.2l-.722 4.092z" fill="#FBBC04"/><path d="M9.13.311c1.723.555 3.198 1.719 4.09 3.435L9.075 8.678s.613-.712.613-1.724c0-1.518-1.281-2.653-2.666-2.653-1.31 0-2.061.953-2.061.953V2.147L9.13.311z" fill="#4285F4"/><path d="M1.664 2.49c1.03-1.228 2.84-2.494 5.338-2.494 1.211 0 2.124.317 2.124.317l-4.17 4.943H2.002L1.664 2.49z" fill="#1A73E8"/><path d="M.713 10.291S.024 8.945.024 6.995c0-1.843.718-3.454 1.64-4.505l3.294 2.767L.713 10.29z" fill="#EA4335"/><path d="M71.604 16.215V5.705h1.353l3.663 6.4h.06l3.662-6.4h1.354v10.51h-1.354V9.976l.06-1.761h-.06l-3.294 5.768h-.794l-3.295-5.768h-.06l.06 1.761v6.239h-1.355zm14.048.22c-.764 0-1.404-.22-1.919-.66-.514-.44-.772-1.023-.772-1.747 0-.787.303-1.397.912-1.842.608-.446 1.358-.668 2.246-.668.794 0 1.446.147 1.957.44v-.205c0-.529-.182-.952-.544-1.27-.363-.318-.81-.477-1.34-.477-.391 0-.746.093-1.065.276-.32.182-.537.44-.654.762l-1.236-.528c.166-.43.495-.825.985-1.196.49-.37 1.137-.55 1.942-.55.922 0 1.686.269 2.294.807.609.538.912 1.297.912 2.275v4.35h-1.294v-1h-.059c-.54.826-1.33 1.233-2.365 1.233zm.221-1.232c.559 0 1.066-.209 1.522-.624.457-.415.685-.905.685-1.475-.383-.313-.956-.47-1.721-.47-.658 0-1.153.142-1.486.426-.333.284-.5.617-.5.998 0 .353.151.631.455.837a1.82 1.82 0 001.045.308zm8.569 1.232a3.073 3.073 0 01-1.478-.352c-.436-.234-.763-.528-.978-.88h-.059l.06.997v3.17h-1.354V9.009h1.295v.998h.06c.215-.352.54-.645.977-.88a3.05 3.05 0 011.477-.353c.932 0 1.736.367 2.413 1.101.677.734 1.015 1.644 1.015 2.73 0 1.087-.339 1.997-1.015 2.73-.676.734-1.481 1.102-2.413 1.102zm-.221-1.232c.628 0 1.166-.238 1.618-.708.452-.47.677-1.104.677-1.887 0-.783-.226-1.415-.677-1.886-.451-.47-.99-.708-1.618-.708a2.16 2.16 0 00-1.626.705c-.446.47-.669 1.1-.669 1.893 0 .793.224 1.424.67 1.894.445.47.987.704 1.625.704v-.008zm7.245 1.232c-.804 0-1.468-.195-1.993-.587a3.497 3.497 0 01-1.155-1.468l1.206-.5c.382.905 1.035 1.35 1.957 1.35.422 0 .768-.092 1.038-.274.269-.183.404-.431.404-.734 0-.47-.328-.788-.986-.954l-1.456-.352a3.467 3.467 0 01-1.31-.668c-.411-.327-.617-.77-.617-1.328 0-.636.282-1.152.846-1.55.564-.396 1.233-.594 2.008-.594.637 0 1.206.145 1.706.433.49.277.87.716 1.074 1.24l-1.177.485c-.264-.636-.814-.954-1.648-.954-.402 0-.74.083-1.014.249-.274.166-.412.392-.412.675 0 .411.315.69.956.837l1.427.338c.676.156 1.176.425 1.5.807.323.381.485.812.485 1.292 0 .646-.264 1.18-.794 1.615-.53.435-1.211.646-2.049.646l.004-.004zM31.499 9.95h-5.551v1.644h3.94c-.194 2.304-2.116 3.287-3.93 3.287a4.335 4.335 0 01-3.093-1.278 4.316 4.316 0 01-1.253-3.098c0-2.488 1.93-4.404 4.35-4.404 1.869 0 2.968 1.188 2.968 1.188l1.154-1.191s-1.48-1.644-4.18-1.644c-3.438 0-6.098 2.895-6.098 6.023 0 3.064 2.502 6.053 6.185 6.053 3.24 0 5.612-2.215 5.612-5.49 0-.69-.1-1.09-.1-1.09h-.004zm4.557-1.17c-2.278 0-3.91 1.776-3.91 3.849 0 2.103 1.583 3.912 3.94 3.912 2.131 0 3.877-1.624 3.877-3.867 0-2.571-2.031-3.895-3.903-3.895h-.004zm.022 1.524c1.12 0 2.182.904 2.182 2.36 0 1.425-1.057 2.355-2.187 2.355-1.242 0-2.221-.992-2.221-2.366 0-1.344.968-2.348 2.226-2.348zM44.52 8.78c-2.278 0-3.91 1.776-3.91 3.849 0 2.103 1.583 3.912 3.94 3.912 2.131 0 3.877-1.624 3.877-3.867 0-2.571-2.031-3.895-3.904-3.895h-.003zm.022 1.524c1.12 0 2.182.904 2.182 2.36 0 1.425-1.058 2.355-2.188 2.355-1.24 0-2.22-.992-2.22-2.366 0-1.344.967-2.348 2.226-2.348zm8.312-1.524c-2.091 0-3.735 1.827-3.735 3.878 0 2.336 1.905 3.885 3.698 3.885 1.108 0 1.698-.44 2.134-.944v.765c0 1.34-.815 2.142-2.05 2.142-1.188 0-1.783-.882-1.99-1.382l-1.495.623c.53 1.12 1.597 2.286 3.498 2.286 2.08 0 3.664-1.306 3.664-4.05V9.011h-1.631v.657c-.501-.538-1.187-.89-2.097-.89l.004.002zm.15 1.522c1.026 0 2.079.873 2.079 2.364 0 1.516-1.05 2.352-2.1 2.352-1.115 0-2.153-.903-2.153-2.338 0-1.494 1.077-2.379 2.175-2.379zM63.857 8.78c-1.972 0-3.629 1.565-3.629 3.876 0 2.444 1.846 3.894 3.818 3.894 1.646 0 2.656-.898 3.258-1.703l-1.34-.893c-.348.54-.932 1.07-1.905 1.07-1.094 0-1.596-.598-1.907-1.177l5.215-2.163-.27-.63c-.505-1.239-1.68-2.274-3.232-2.274h-.008zm.068 1.493c.71 0 1.221.377 1.44.828l-3.484 1.453c-.15-1.125.918-2.281 2.044-2.281zm-6.188 6.046h1.713V4.876h-1.713V16.32z" fill="#767676"/></g><defs><clipPath id="clip0"><path fill="#fff" d="M0 0h104.286v20H0z"/></clipPath></defs></svg>