<svg width="10" height="10" fill="none" xmlns="http://www.w3.org/2000/svg"><path d="M9.167 5a.417.417 0 00-.417.417v2.916c0 .23-.186.417-.416.417H1.667a.417.417 0 01-.417-.417V1.667c0-.23.187-.417.417-.417h2.917a.417.417 0 100-.833H1.667c-.69 0-1.25.56-1.25 1.25v6.666c0 .69.56 1.25 1.25 1.25h6.667c.69 0 1.25-.56 1.25-1.25V5.417A.417.417 0 009.167 5z" fill="#333"/><path d="M9.583.829a.419.419 0 00-.008-.077C9.573.74 9.568.729 9.565.718a.322.322 0 00-.014-.044C9.546.66 9.54.65 9.533.638l-.02-.036A.423.423 0 009.471.55L9.46.539 9.451.53a.417.417 0 00-.053-.043c-.011-.008-.024-.013-.035-.02L9.326.45c-.014-.006-.03-.01-.044-.014C9.27.432 9.26.427 9.248.425a.412.412 0 00-.081-.008h-2.5a.417.417 0 100 .833H8.16L4.747 4.664a.417.417 0 10.59.589L8.75 1.839v1.494a.417.417 0 10.833 0V.83z" fill="#333"/></svg>