<svg version="1.0" xmlns="http://www.w3.org/2000/svg" width="933.333" height="933.333" viewBox="0 0 700 700"><path d="M156.7.6c-.1.1-5.3.4-11.5.7-6.3.3-11.6.8-11.9 1-.2.3 4.9 8.5 11.5 18.4 19.3 28.8 43.7 65.7 44.1 66.7.2.5 2.8 4.3 5.7 8.5 2.9 4.2 29.5 43.8 59.1 88.1s54 80.7 54.3 81c.3.3 9.3 13.7 19.9 29.7 10.7 16.1 19.7 29.3 20 29.3.4 0 1.5-1.6 2.6-3.4 1.1-1.9 14.8-23.9 30.5-49 32.4-51.8 31-49.6 40.8-65.3 4-6.5 10.8-17.3 15-24.1 4.2-6.7 11.3-18 15.6-25 4.4-7 28.1-45 52.8-84.5C529.8 33.1 550 .6 550 .4c0-1.1-19.2-.2-23.6 1-2.7.8-7.1 1.8-9.9 2.1-19.8 2.7-39.3 10-53.4 19.9C445.7 35.7 426.8 58.2 409 88c-10.2 17.1-17.2 25.2-30.5 35.2-20.2 15.4-35.7 15.1-57-1-9.4-7-12.8-10.6-29.5-30.7-6.8-8.3-16.7-20.2-22-26.5-11.8-14.3-27.3-30-36.5-37.1C213.9 12.7 193.1 2.8 178 1.4 172.9.9 157.1.3 156.7.6zM687 152.8c-6.3 3.8-20 11.9-30.3 18-10.4 6.2-19 11.2-19.3 11.2-.2 0-2.3 1.2-4.7 2.7-2.3 1.5-11 6.8-19.4 11.8-8.3 4.9-27.9 16.7-43.5 26.1-15.5 9.5-29.7 18-31.5 19-1.7 1.1-5.7 3.5-9 5.4-3.2 1.9-7 4.1-8.4 5-1.5.8-13.5 8-26.8 16s-25.6 15.3-27.3 16.4c-6.8 3.8-45.4 26.9-48.8 29.1-1.9 1.2-14.4 8.7-27.7 16.6C376.9 338 366 344.7 366 345c0 .4 1.8 1.7 4 3 2.2 1.4 6.2 4.1 8.9 6 2.7 1.9 15.4 10.5 28.2 19.2 12.9 8.6 34.7 23.2 48.4 32.5 13.8 9.3 32 21.6 40.5 27.3 8.5 5.7 15.7 10.8 15.8 11.2.2.4.8.8 1.3.8s6.2 3.6 12.7 8c6.4 4.4 12.4 8.4 13.2 9 .8.5 5.3 3.6 10 6.8 4.7 3.2 21.6 14.6 37.5 25.3 16 10.8 44.1 29.8 62.7 42.2 18.5 12.5 33.8 22.7 34 22.7.3 0 .6-2.6.7-5.8.2-3.1.4-6.8.5-8.2.1-1.4-.4-5-1.1-8-.6-3-1.4-8-1.7-11-2.4-22.3-7.9-39-18.3-54.9-4.9-7.6-21.6-25.5-30.4-32.7-9.5-7.8-17.2-13.3-30.4-22-17-11.1-28-21.3-36.2-33.6-15-22.5-12.5-39 8.9-60.9 3.5-3.6 18.1-15.3 32.4-26 36.6-27.4 41.4-31.2 52.9-42.4 14.5-14.2 29-35 34.2-49.3 2.2-6.2 2.7-7.9 3.9-14.2.8-4.5 1.4-44 .6-44-.4 0-5.9 3.1-12.2 6.8zM.3 157.7c.3 6 1.2 13.5 2 16.8.8 3.3 1.8 7.9 2.1 10.2 1.3 9.9 5.9 24.4 11.2 35.4 10.6 21.8 34.5 43.9 70.9 65.4 19.7 11.6 28.2 18.8 38.2 31.9 13.7 18.1 14.4 33.2 2.5 51-4.4 6.4-15.5 18.6-21.2 23.2-3 2.3-16.3 13.2-28.1 22.9-4.7 3.8-10.3 8.5-12.5 10.2-3.8 3.1-7.6 6.3-13.4 11.3-26.2 22.6-46.1 53.2-50.5 77.5-1.1 6-.4 46.2.8 47.1.1.1 10.6-6.6 23.2-14.8 12.7-8.2 29.7-19.3 38-24.6 29.5-19.1 34.1-22.2 42-27.7 7.6-5.4 21.9-14.9 84.3-55.8 14.4-9.4 35.1-23.1 46-30.2 43-28.3 69.2-45.5 80-52.5 6.2-4 10.9-7.7 10.5-8.1-.7-.6-13-8.3-66.3-40.9-7.1-4.3-14.1-8.6-17-10.5-1.9-1.3-15.9-9.8-31-19-15.1-9.3-30.1-18.4-33.3-20.4-3.2-2-7.3-4.5-9.1-5.6-1.8-1.1-19.4-11.9-39-24s-36.9-22.7-38.4-23.6c-1.5-.9-22.6-13.8-46.9-28.7C21.1 159.2.9 147 .5 147c-.4 0-.5 4.8-.2 10.7zm345 217.6c-2.3 3.4-6.8 10-10 14.7-3.2 4.7-9.9 14.3-14.7 21.5-14.5 21.2-30.4 44.3-36.8 53.5-7.3 10.6-70.2 102.1-71.3 103.7-1.2 1.9-29.7 43.5-53.5 78.3-4.4 6.3-8.4 12.2-8.9 13-.6.8-4.4 6.3-8.5 12.2-4.1 5.9-7.1 11-6.6 11.3 1.6 1 19.5.8 23.5-.3 2.2-.6 6.9-1.3 10.4-1.7 10.2-.9 22.3-3.4 29.6-5.9.6-.2 2.1-.7 3.4-1.1 5.9-1.9 20.2-9.7 26.6-14.4 10.7-8 24.5-22.6 39.8-42.1.7-.9 5.5-8.1 10.9-16 13.4-20.2 25.6-31.8 41.8-39.8 7.1-3.5 8-3.7 17-3.7 8.7.1 10 .4 15.6 3.2 7.9 4.1 19.5 13.4 26 20.9 2.8 3.3 13.6 17.1 24 30.9 19.5 25.8 20.5 27 26.4 33.9 23.4 27.5 51 46.2 75.5 51.1 5.4 1.1 44.4 1.5 45 .5.3-.5-.3-2.2-1.4-3.7-1.1-1.6-14.5-23.7-29.9-49.3-15.4-25.6-31-51.5-34.9-57.5-5.6-9-18.1-29.3-22.8-37.3-6.9-11.6-22.3-37.1-25-41.2-1.2-1.9-15.9-26-32.5-53.5-16.7-27.5-33.4-55.2-37.3-61.5-3.9-6.3-7.5-12.4-8.2-13.5-2.9-5.3-7.7-12.5-8.3-12.5-.4 0-2.6 2.8-4.9 6.3z"/></svg>