<svg width="150" height="169" xmlns="http://www.w3.org/2000/svg" viewBox="0 0 150 168.85"><defs><style>.cls-5{fill:#c08383}.cls-6{fill:#408d6e}.cls-7{fill:#b19d74}</style></defs><g id="Слой_2" data-name="Слой 2"><g id="Слой_1-2" data-name="Слой 1"><g id="Слой_1-2-2" data-name="Слой 1-2"><path d="M143 37.05L82 1.86a14.1 14.1 0 00-14 0L7 37.05a14 14 0 00-7 12.17v70.37a14.05 14.05 0 007 12.18L68 167a14.05 14.05 0 0014 0l61-35.21a14.05 14.05 0 007-12.18V49.22a14 14 0 00-7-12.17zm-7.82 74a14 14 0 01-7 12.17L82 149.82a14 14 0 01-14.06 0l-46.06-26.61a14 14 0 01-7-12.17V57.81a14.1 14.1 0 017-12.18L68 19a14.1 14.1 0 0114 0l46.09 26.61a14.1 14.1 0 017 12.18z" fill="none"/><path d="M113.16 47.34H36.77a7.3 7.3 0 00-7.3 7.3V114a7.3 7.3 0 007.3 7.3h76.39a7.29 7.29 0 007.3-7.28V54.64a7.29 7.29 0 00-7.28-7.3zM118 112a7.3 7.3 0 01-7.3 7.3H39.26A7.29 7.29 0 0132 112V56.66a7.29 7.29 0 017.29-7.29h71.42a7.3 7.3 0 017.3 7.28z" fill="#11262d"/><path d="M118 58.55V112a7.3 7.3 0 01-7.3 7.3H39.26A7.29 7.29 0 0132 112V58.55z" fill="#303841"/><path d="M118 56.66v1.89H32v-1.89a7.29 7.29 0 017.29-7.29h71.42a7.29 7.29 0 017.29 7.29z" fill="#e9edee"/><circle class="cls-5" cx="49.21" cy="54.61" r="1.66"/><circle class="cls-6" cx="38.82" cy="54.61" r="1.66"/><circle class="cls-7" cx="44.22" cy="54.61" r="1.66"/><path fill="#325263" d="M36.95 61.88h15.37v4.15H36.95z"/><path fill="#b1b5b9" d="M41.52 66.87h27.84v2.49H41.52z"/><path class="cls-5" d="M47.75 70.61h21.19v2.49H47.75z"/><path fill="#d1dbe5" d="M47.75 74.76h27.01v2.49H47.75z"/><path class="cls-7" d="M41.52 78.92h28.25v2.49H41.52z"/><path fill="#377b96" d="M36.95 83.49h24.93v2.08H36.95z"/><path class="cls-6" d="M37.36 87.22h24.1v2.08h-24.1z"/></g></g></g></svg>