<svg width="150" height="169" xmlns="http://www.w3.org/2000/svg" viewBox="0 0 150 168.85"><g id="Слой_2" data-name="Слой 2"><g id="Слой_1-2" data-name="Слой 1"><g id="Слой_2-2" data-name="Слой 2"><g id="Слой_1-2-2" data-name="Слой 1-2"><path d="M143 37.05L82 1.86a14.1 14.1 0 00-14 0L7 37.05a14 14 0 00-7 12.17v70.37a14.05 14.05 0 007 12.18L68 167a14.05 14.05 0 0014 0l61-35.21a14.05 14.05 0 007-12.18V49.22a14 14 0 00-7-12.17zm-7.82 74a14 14 0 01-7 12.17L82 149.82a14 14 0 01-14.06 0l-46.06-26.61a14 14 0 01-7-12.17V57.81a14.1 14.1 0 017-12.18L68 19a14.1 14.1 0 0114 0l46.09 26.61a14.1 14.1 0 017 12.18z" fill="none"/><path d="M87.1 80.24l-20-5.85a5.47 5.47 0 011.54-10.72H80.9a11.42 11.42 0 016.35 2 2.88 2.88 0 003.61-.37l6.45-6.3a3 3 0 00.08-4.24 4.32 4.32 0 00-.39-.36 26.29 26.29 0 00-16-5.56V40a3 3 0 00-3-3h-6a3 3 0 00-3 3v8.9h-.47a20.32 20.32 0 00-20.21 20.4c0 .56 0 1.12.08 1.68.78 8.55 7.31 15.5 15.54 17.91l19 5.56a5.47 5.47 0 01-1.53 10.72h-12.3a11.24 11.24 0 01-6.34-2 2.9 2.9 0 00-3.61.37L52.71 110a3 3 0 000 4.25 2.37 2.37 0 00.34.29 26.16 26.16 0 0016 5.56v8.9a3 3 0 003 3h6a3 3 0 003-3v-9c8.64-.16 16.74-5.3 19.6-13.47a20.37 20.37 0 00-12.58-25.97z" fill="#d1dbe5"/></g></g></g></g></svg>