<svg width="150" height="169" xmlns="http://www.w3.org/2000/svg" viewBox="0 0 150 168.85"><g id="Слой_2" data-name="Слой 2"><g id="Слой_1-2" data-name="Слой 1"><g id="Слой_2-2" data-name="Слой 2"><g id="Слой_1-2-2" data-name="Слой 1-2"><path d="M143 37.05L82 1.86a14.1 14.1 0 00-14 0L7 37.05a14 14 0 00-7 12.17v70.37a14.05 14.05 0 007 12.18L68 167a14.05 14.05 0 0014 0l61-35.21a14.05 14.05 0 007-12.18V49.22a14 14 0 00-7-12.17zm-7.82 74a14 14 0 01-7 12.17L82 149.82a14 14 0 01-14.06 0l-46.06-26.61a14 14 0 01-7-12.17V57.81a14.1 14.1 0 017-12.18L68 19a14.1 14.1 0 0114 0l46.09 26.61a14.1 14.1 0 017 12.18z" fill="none"/><path d="M102.44 39.72A111.84 111.84 0 0086.11 43a42.51 42.51 0 00-14.65 7.37c-7 5.81-11.17 13.83-13.92 22.75l-16.89 4.59a8.86 8.86 0 00-5.77 6.2l-3.63 18.2C30.41 106.59 30 109 30 109l6.32-2.23 16.82-4.6-2.65 4.63-5.25 3.92 7.26 3.42 10.51 6 4.83 4.1 2.5-6.11 2.66-4.64 4.61 16.83 2.28 5.47 4.29-3.53 13.76-12.38a8.83 8.83 0 002.4-8.13L95.7 94.83c6.33-7 11.18-14.74 12.53-23.9.9-6.14-.39-12-1.15-16a73 73 0 00-4.64-15.21zM89.91 77.07c-5.33 2.5-12.44 0-14.49-5.65a10.57 10.57 0 015.89-13c5.39-2.35 12.29.26 14.25 5.89 1.75 4.99-1.04 10.6-5.65 12.76z" fill="#d1dbe5"/></g></g></g></g></svg>