<svg width="150" height="169" xmlns="http://www.w3.org/2000/svg" viewBox="0 0 150 168.85"><g id="Слой_2" data-name="Слой 2"><g id="Слой_1-2" data-name="Слой 1"><g id="Слой_2-2" data-name="Слой 2"><path d="M143 37.05L82 1.86a14.1 14.1 0 00-14 0L7 37.05a14 14 0 00-7 12.17v70.37a14.05 14.05 0 007 12.18L68 167a14.05 14.05 0 0014 0l61-35.21a14.05 14.05 0 007-12.18V49.22a14 14 0 00-7-12.17zm-7.82 74a14 14 0 01-7 12.17L82 149.82a14 14 0 01-14.06 0l-46.06-26.61a14 14 0 01-7-12.17V57.81a14.1 14.1 0 017-12.18L68 19a14.1 14.1 0 0114 0l46.09 26.61a14.1 14.1 0 017 12.18z" fill="#13bfd1" id="Слой_1-2-2" data-name="Слой 1-2"/></g></g></g></svg>