<svg width="29" height="26"><path fill="#fff" d="M27.476 2.378H10.794C10.336.998 9.047 0 7.532 0S4.73.997 4.27 2.378H1.667c-.605 0-1.096.497-1.096 1.11 0 .613.49 1.11 1.096 1.11H4.27c.458 1.38 1.747 2.378 3.261 2.378 1.515 0 2.804-.997 3.262-2.378h16.682c.605 0 1.095-.497 1.095-1.11 0-.613-.49-1.11-1.095-1.11zM7.532 4.756a1.26 1.26 0 01-1.25-1.268c0-.7.56-1.268 1.25-1.268s1.251.569 1.251 1.268c0 .7-.56 1.268-1.25 1.268zm19.944 7.134h-2.604c-.459-1.38-1.747-2.378-3.262-2.378s-2.803.998-3.262 2.378H1.667C1.062 11.89.57 12.387.57 13c0 .613.49 1.11 1.096 1.11h16.681c.459 1.38 1.747 2.378 3.262 2.378s2.803-.997 3.262-2.378h2.604c.605 0 1.095-.497 1.095-1.11 0-.613-.49-1.11-1.095-1.11zm-5.866 2.378A1.26 1.26 0 0120.36 13c0-.699.56-1.268 1.25-1.268s1.251.57 1.251 1.268c0 .7-.561 1.268-1.25 1.268zm5.866 7.134h-11.99c-.458-1.38-1.746-2.378-3.261-2.378-1.515 0-2.803.997-3.262 2.378H1.667c-.605 0-1.096.497-1.096 1.11 0 .613.49 1.11 1.096 1.11h7.296C9.422 25.002 10.71 26 12.225 26s2.803-.997 3.262-2.378h11.989c.605 0 1.095-.497 1.095-1.11 0-.613-.49-1.11-1.095-1.11zM12.225 23.78c-.69 0-1.251-.569-1.251-1.268 0-.7.561-1.268 1.251-1.268.69 0 1.251.569 1.251 1.268 0 .7-.561 1.268-1.251 1.268z"/></svg>