<svg width="18" height="18" fill="none" xmlns="http://www.w3.org/2000/svg"><path d="M8.898.743c-3.417 0-6.661-.304-7.9 2.874C.485 4.93.56 6.634.56 9.075c0 2.142-.069 4.155.437 5.458 1.237 3.18 4.508 2.875 7.9 2.875 3.271 0 6.645.34 7.9-2.875.512-1.326.437-3.005.437-5.458 0-3.255.18-5.356-1.4-6.934C14.233.543 12.07.743 8.893.743h.004zm-.747 1.501c7.127-.01 8.034-.803 7.534 10.196-.178 3.89-3.142 3.463-6.786 3.463-6.643 0-6.834-.19-6.834-6.831 0-6.719.527-6.824 6.086-6.83v.002zm5.198 1.384a1 1 0 100 2 1 1 0 000-2zM8.9 4.796a4.28 4.28 0 100 8.557 4.279 4.279 0 100-8.557zm0 1.502c3.674 0 3.679 5.555 0 5.555-3.674 0-3.68-5.555 0-5.555z" fill="#BD2D43"/></svg>