<svg width="17" height="16" fill="none" xmlns="http://www.w3.org/2000/svg"><path fill-rule="evenodd" clip-rule="evenodd" d="M13.774 2.354A7.78 7.78 0 008.223.041C3.895.04.374 3.579.372 7.928c0 1.39.36 2.747 1.048 3.944L.306 15.959l4.161-1.097a7.81 7.81 0 003.752.96h.003c4.326 0 7.848-3.538 7.85-7.888a7.86 7.86 0 00-2.297-5.58zM8.223 14.49H8.22a6.492 6.492 0 01-3.32-.914l-.239-.142-2.47.651.66-2.42-.155-.247a6.564 6.564 0 01-.998-3.49C1.7 4.315 4.626 1.374 8.224 1.374a6.46 6.46 0 014.613 1.923 6.533 6.533 0 011.91 4.638c-.002 3.615-2.93 6.556-6.525 6.556zM11.8 9.58c-.197-.099-1.16-.575-1.34-.641-.18-.066-.311-.099-.442.098-.13.198-.507.642-.621.773-.115.132-.229.148-.425.05-.196-.1-.828-.307-1.577-.979-.583-.522-.977-1.168-1.091-1.365-.115-.198-.001-.294.086-.402.212-.265.425-.543.49-.675.065-.131.033-.246-.017-.345-.048-.098-.44-1.069-.604-1.463-.16-.384-.321-.333-.441-.339a7.791 7.791 0 00-.376-.006.717.717 0 00-.523.246c-.18.198-.687.674-.687 1.644 0 .97.703 1.908.801 2.04.098.13 1.383 2.122 3.35 2.975.469.204.834.325 1.119.415.47.15.897.13 1.235.079.377-.057 1.16-.477 1.324-.938.164-.46.164-.855.114-.937-.049-.082-.18-.131-.376-.23z" fill="#BD2D43"/></svg>