<svg width="40" height="40" xmlns="http://www.w3.org/2000/svg"><defs><style>.cls-1{fill:#1f2326}.cls-2{fill:none}</style></defs><g id="Слой_2" data-name="Слой 2"><g id="Слой_1-2" data-name="Слой 1"><path class="cls-1" d="M18.59 15.37l-3.32 5.75a7.06 7.06 0 00-1.61-1.26l3-5.24a6.56 6.56 0 001.93.75zm7.98 4.49a6.81 6.81 0 00-1.66 1.31l-3.34-5.78a6.47 6.47 0 002-.77zm-3.09 3.68a6.72 6.72 0 00-.39 2.29h-5.95a6.72 6.72 0 00-.39-2.29z"/><path class="cls-2" d="M23.09 25.83a6.72 6.72 0 01.39-2.29h-6.73a6.72 6.72 0 01.39 2.29h-6.92l3.44-6a7.06 7.06 0 011.61 1.26l3.32-5.75a6.56 6.56 0 01-1.9-.75l3.42-5.93 3.43 5.93a6.47 6.47 0 01-2 .77l3.34 5.78a6.81 6.81 0 011.66-1.31l3.44 6z"/><path class="cls-2" d="M26.28 23.54H13.87l1.4-2.41 3.32-5.76 1.48-2.57 1.5 2.58 3.34 5.79v.01l1.37 2.36z"/><path class="cls-1" d="M36.8 25.83a6.86 6.86 0 11-13.71 0 6.72 6.72 0 01.39-2.29 6.84 6.84 0 011.43-2.37 6.86 6.86 0 0111.89 4.66zm-19.66 0A6.86 6.86 0 1110.29 19a6.75 6.75 0 013.37.89 7.06 7.06 0 011.61 1.26 6.84 6.84 0 011.48 2.42 6.72 6.72 0 01.39 2.26zM27 8.69a6.84 6.84 0 01-3.43 5.93 6.47 6.47 0 01-2 .77 7 7 0 01-1.46.15 6.94 6.94 0 01-1.52-.17 6.56 6.56 0 01-1.9-.75A6.85 6.85 0 1127 8.69z"/><path class="cls-2" d="M40 20a20 20 0 01-10 17.31 19.11 19.11 0 01-5.76 2.23 19.67 19.67 0 01-8.68 0A19.29 19.29 0 0110 37.31 20 20 0 1140 20z"/></g></g></svg>