<svg width="25" height="25" xmlns="http://www.w3.org/2000/svg" viewBox="0 0 22.64 22.65"><defs><style>.cls-1{fill:#fff}</style></defs><g id="Слой_2" data-name="Слой 2"><g id="Слой_2-2" data-name="Слой 2"><path class="cls-1" d="M1.08 22.32l-.94-1c-.26-.27-.15-.8.25-1.19l20-19.6c.4-.39.93-.48 1.19-.21l.94 1c.26.28.15.81-.24 1.2l-20 19.6c-.41.37-.94.47-1.2.2z"/><path class="cls-1" d="M.33 1.09l1-.95A.9.9 0 012.5.38l19.61 20c.38.39.48.92.21 1.18l-1 1c-.27.26-.8.15-1.19-.25L.54 2.27c-.39-.4-.48-.92-.21-1.18z"/></g></g></svg>