<svg xmlns="http://www.w3.org/2000/svg" viewBox="0 0 50 50"><defs><style>.cls-1{fill:#1f2326}</style></defs><g id="Слой_2" data-name="Слой 2"><g id="Слой_1-2" data-name="Слой 1"><path class="cls-1" d="M3.31 31.92a46 46 0 005 4.82c3.87 3.23 6.78 5.66 11.21 6.44a18.52 18.52 0 008.67-.54c.93-.31 4.13-1.5 4.13-1.5A12.74 12.74 0 0035.57 44a13 13 0 003.59 1.5l-4.65 2.57c-5.07 2.72-12 1.74-12.9 1.61-2.05-.31-10.81-1.64-15.55-9.33a19.45 19.45 0 01-2.75-8.43zM29.24 1.73a43.76 43.76 0 00-6.58 2C18 5.61 14.48 7 11.64 10.54a19 19 0 00-3.77 7.93c-.19 1-.73 4.38-.73 4.38a12.43 12.43 0 00-4.09 1.48 12.69 12.69 0 00-3 2.45s0-4.65.06-5.37C.19 15.59 4.43 9.94 5 9.21 6.25 7.56 11.68.46 20.61 0a18.63 18.63 0 018.63 1.73zm12.69 38.35a47.59 47.59 0 001.68-6.77c.86-5 1.5-8.77 0-13.06a19.12 19.12 0 00-4.74-7.38c-.72-.66-3.33-2.89-3.33-2.89a13 13 0 00.87-4.32 13.27 13.27 0 00-.49-3.91s3.9 2.44 4.5 2.83c4.85 3.13 7.43 9.72 7.75 10.58.75 1.95 3.93 10.33-.32 18.31a19.13 19.13 0 01-5.92 6.61zM15.9 25.6l-.3-.28m5.69-9.27l-.13-.05m7.76.1l-.34.11m5.68 9.35l-.13.1"/><path class="cls-1" d="M39.08 16.55a20.07 20.07 0 00-4.79-4.71 10.73 10.73 0 01-5.37 4.26 9.29 9.29 0 00-7.76-.1 13 13 0 01-3.57-2.2 13.13 13.13 0 01-2.75-3.32A20 20 0 0011 16.16a20.5 20.5 0 00-1.66 6.54 10.43 10.43 0 013.49.86 10.36 10.36 0 012.77 1.76 9.51 9.51 0 004.09 7.22 13.51 13.51 0 01-.14 4.08 13.17 13.17 0 01-1.49 4.06 19.39 19.39 0 006.75.55 19.64 19.64 0 006.45-1.75 10.75 10.75 0 01-1-3.5 11 11 0 01.21-3.65 9.52 9.52 0 003.78-6.77 12.79 12.79 0 017.83-2.85 20.37 20.37 0 00-3-6.16zM24.94 31.17a6.6 6.6 0 116.5-6.59 6.55 6.55 0 01-6.5 6.59zm-5.25 1.37v-.3"/></g></g></svg>