<svg xmlns="http://www.w3.org/2000/svg" viewBox="0 0 1920 1080"><defs><style>.cls-2{fill:#5b5b5b}.cls-3{fill:#26353f}.cls-4{fill:#959595}</style></defs><g id="Слой_2" data-name="Слой 2"><g id="Слой_2-2" data-name="Слой 2"><path fill="#1f2326" d="M0 0h1920v1080H0z"/><circle class="cls-2" cx="128.78" cy="269.87" r="2.5"/><circle class="cls-2" cx="128.78" cy="289.87" r="2.5"/><circle class="cls-2" cx="128.78" cy="309.87" r="2.5"/><circle class="cls-2" cx="148.78" cy="269.87" r="2.5"/><circle class="cls-2" cx="148.78" cy="289.87" r="2.5"/><circle class="cls-2" cx="148.78" cy="309.87" r="2.5"/><circle class="cls-2" cx="168.78" cy="269.87" r="2.5"/><circle class="cls-2" cx="168.78" cy="289.87" r="2.5"/><circle class="cls-2" cx="168.78" cy="309.87" r="2.5"/><circle class="cls-2" cx="128.78" cy="329.87" r="2.5"/><circle class="cls-2" cx="128.78" cy="349.87" r="2.5"/><circle class="cls-2" cx="128.78" cy="369.87" r="2.5"/><circle class="cls-2" cx="148.78" cy="329.87" r="2.5"/><circle class="cls-2" cx="148.78" cy="349.87" r="2.5"/><circle class="cls-2" cx="148.78" cy="369.87" r="2.5"/><circle class="cls-2" cx="168.78" cy="329.87" r="2.5"/><circle class="cls-2" cx="168.78" cy="349.87" r="2.5"/><circle class="cls-2" cx="168.78" cy="369.87" r="2.5"/><circle class="cls-2" cx="128.78" cy="389.87" r="2.5"/><circle class="cls-2" cx="128.78" cy="409.87" r="2.5"/><circle class="cls-2" cx="128.78" cy="429.87" r="2.5"/><circle class="cls-2" cx="148.78" cy="389.87" r="2.5"/><circle class="cls-2" cx="148.78" cy="409.87" r="2.5"/><circle class="cls-2" cx="148.78" cy="429.87" r="2.5"/><circle class="cls-2" cx="168.78" cy="389.87" r="2.5"/><circle class="cls-2" cx="168.78" cy="409.87" r="2.5"/><circle class="cls-2" cx="168.78" cy="429.87" r="2.5"/><circle class="cls-2" cx="128.78" cy="449.87" r="2.5"/><circle class="cls-2" cx="128.78" cy="469.87" r="2.5"/><circle class="cls-2" cx="128.78" cy="489.87" r="2.5"/><circle class="cls-2" cx="148.78" cy="449.87" r="2.5"/><circle class="cls-2" cx="148.78" cy="469.87" r="2.5"/><circle class="cls-2" cx="148.78" cy="489.87" r="2.5"/><circle class="cls-2" cx="168.78" cy="449.87" r="2.5"/><circle class="cls-2" cx="168.78" cy="469.87" r="2.5"/><circle class="cls-2" cx="168.78" cy="489.87" r="2.5"/><circle class="cls-2" cx="128.78" cy="189.87" r="2.5"/><circle class="cls-2" cx="148.78" cy="189.87" r="2.5"/><circle class="cls-2" cx="168.78" cy="189.87" r="2.5"/><circle class="cls-2" cx="128.78" cy="209.87" r="2.5"/><circle class="cls-2" cx="128.78" cy="229.87" r="2.5"/><circle class="cls-2" cx="128.78" cy="249.87" r="2.5"/><circle class="cls-2" cx="148.78" cy="209.87" r="2.5"/><circle class="cls-2" cx="148.78" cy="229.87" r="2.5"/><circle class="cls-2" cx="148.78" cy="249.87" r="2.5"/><circle class="cls-2" cx="168.78" cy="209.87" r="2.5"/><circle class="cls-2" cx="168.78" cy="229.87" r="2.5"/><circle class="cls-2" cx="168.78" cy="249.87" r="2.5"/><circle class="cls-3" cx="311.35" cy="956.57" r="8"/><circle class="cls-3" cx="215.35" cy="970.57" r="7"/><circle class="cls-3" cx="232.35" cy="873.57" r="8"/><path class="cls-3" d="M197.59 902.74a9.76 9.76 0 109.76 9.76 9.75 9.75 0 00-9.76-9.76zm-.24 15.26a5.42 5.42 0 115.33-5.51v.09a5.38 5.38 0 01-5.32 5.42z"/><path class="cls-3" d="M331.85 912.57a14.23 14.23 0 00-5.54 1.1l-14.47-14.47a15.5 15.5 0 10-27.8-1.68l-15.25 15.25a28 28 0 00-41.25 8.41l-8.62-4a22.24 22.24 0 00.43-4.3 21.36 21.36 0 10-3.58 11.83l8.8 4a28 28 0 1050.43-9.48l14.81-14.81a15.5 15.5 0 0015.53.92l14.13 14.23a14.5 14.5 0 1012.39-7zm-134.35 13.7a13.86 13.86 0 1113.85-13.87 13.86 13.86 0 01-13.85 13.87zm54.35 25.8a17 17 0 1117-17 17 17 0 01-17 17zM299 901.14a9.76 9.76 0 119.76-9.76 9.76 9.76 0 01-9.76 9.76z"/><circle class="cls-3" cx="251.35" cy="935.57" r="8"/><path class="cls-3" d="M302.35 891.63a3.67 3.67 0 11-3.67-3.8 3.73 3.73 0 013.67 3.8z"/><circle class="cls-4" cx="1717.04" cy="818.17" r="3.5"/><circle class="cls-4" cx="1717.04" cy="838.17" r="3.5"/><circle class="cls-4" cx="1717.04" cy="858.17" r="3.5"/><circle class="cls-4" cx="1737.04" cy="818.17" r="3.5"/><circle class="cls-4" cx="1737.04" cy="838.17" r="3.5"/><circle class="cls-4" cx="1737.04" cy="858.17" r="3.5"/><circle class="cls-4" cx="1757.04" cy="818.17" r="3.5"/><circle class="cls-4" cx="1757.04" cy="838.17" r="3.5"/><circle class="cls-4" cx="1757.04" cy="858.17" r="3.5"/><path class="cls-4" d="M506 163h4v38h-4z"/><path class="cls-4" transform="rotate(90 508 182)" d="M506 163h4v38h-4z"/><path class="cls-4" d="M373 689h4v38h-4z"/><path class="cls-4" transform="rotate(90 375 708)" d="M373 689h4v38h-4z"/><path class="cls-4" d="M866 559h4v38h-4z"/><path class="cls-4" transform="rotate(90 868 578)" d="M866 559h4v38h-4z"/><path class="cls-4" d="M1084 193h4v38h-4z"/><path class="cls-4" transform="rotate(90 1086 212)" d="M1084 193h4v38h-4z"/><path class="cls-4" d="M1716 352h4v38h-4z"/><path class="cls-4" transform="rotate(90 1718 371)" d="M1716 352h4v38h-4z"/></g></g></svg>