<svg xmlns="http://www.w3.org/2000/svg" xmlns:xlink="http://www.w3.org/1999/xlink" viewBox="0 0 1920.18 1080.38"><defs><linearGradient id="Безымянный_градиент_11" x1="909.32" y1="1075.55" x2="1011.5" y2=".39" gradientUnits="userSpaceOnUse"><stop offset="0" stop-color="#1f2326"/><stop offset=".4" stop-color="#161e29"/><stop offset="1" stop-color="#00102f"/></linearGradient><linearGradient id="Безымянный_градиент_164" x1="947.37" y1="656.29" x2="948.64" y2="651.49" gradientUnits="userSpaceOnUse"><stop offset="0" stop-color="#0d222f"/><stop offset=".23" stop-color="#122433"/><stop offset=".52" stop-color="#222a3f"/><stop offset=".84" stop-color="#3b3552"/><stop offset="1" stop-color="#4a3b5d"/></linearGradient><linearGradient id="Безымянный_градиент_164-2" x1="1034.27" y1="5.76" x2="1035.53" y2=".96" xlink:href="#Безымянный_градиент_164"/><linearGradient id="Безымянный_градиент_8" x1="1700.18" y1="319.88" x2="1700.18" y2="184.88" gradientTransform="rotate(.35 1709.836 253.429)" gradientUnits="userSpaceOnUse"><stop offset="0" stop-color="#1f2326"/><stop offset="1" stop-color="#1d242a"/></linearGradient><style>.cls-2{fill:#b5b5c9}.cls-2,.cls-3,.cls-6{stroke:#7c7c93;stroke-miterlimit:10}.cls-2,.cls-3{stroke-width:.75px}.cls-3,.cls-6{fill:none}</style></defs><g id="Слой_2" data-name="Слой 2"><g id="Слой_1-2" data-name="Слой 1"><path fill="url(#Безымянный_градиент_11)" d="M.18.38h1920v1080H.18z"/><ellipse class="cls-2" cx="256.37" cy="306.31" rx="2.5" ry="2.48"/><ellipse class="cls-2" cx="369.72" cy="165" rx="2.5" ry="2.48"/><ellipse class="cls-2" cx="374.72" cy="235.41" rx="2.5" ry="2.48"/><ellipse class="cls-2" cx="208.92" cy="165" rx="2.5" ry="2.48"/><ellipse class="cls-2" cx="93.07" cy="240.37" rx="2.5" ry="2.48"/><ellipse class="cls-2" cx="118.04" cy="59.88" rx="2.5" ry="2.48"/><ellipse class="cls-2" cx="353.74" cy="51.95" rx="2.5" ry="2.48"/><ellipse class="cls-2" cx="549.5" cy="110.46" rx="2.5" ry="2.48"/><ellipse class="cls-2" cx="624.41" cy="308.79" rx="2.5" ry="2.48"/><ellipse class="cls-3" cx="563.48" cy="481.34" rx="2.5" ry="2.48"/><ellipse class="cls-2" cx="144" cy="607.28" rx="2.5" ry="2.48"/><ellipse class="cls-2" cx="164.98" cy="481.34" rx="2.5" ry="2.48"/><ellipse class="cls-2" cx="423.66" cy="664.8" rx="2.5" ry="2.48"/><ellipse class="cls-2" cx="379.71" cy="486.3" rx="2.5" ry="2.48"/><ellipse class="cls-2" cx="169.97" cy="907.76" rx="2.5" ry="2.48"/><ellipse class="cls-2" cx="53.12" cy="792.72" rx="2.5" ry="2.48"/><ellipse class="cls-2" cx="39.13" cy="1049.57" rx="2.5" ry="2.48"/><ellipse class="cls-2" cx="368.73" cy="1054.52" rx="2.5" ry="2.48"/><ellipse class="cls-2" cx="568.48" cy="890.9" rx="2.5" ry="2.48"/><ellipse class="cls-2" cx="780.22" cy="1051.55" rx="2.5" ry="2.48"/><ellipse class="cls-2" cx="681.34" cy="737.19" rx="2.5" ry="2.48"/><ellipse cx="948.01" cy="653.89" rx="2.5" ry="2.48" fill="url(#Безымянный_градиент_164)" stroke-width=".75" stroke="#7c7c93" stroke-miterlimit="10"/><ellipse class="cls-2" cx="789.2" cy="553.73" rx="2.5" ry="2.48"/><ellipse class="cls-2" cx="961.99" cy="397.05" rx="2.5" ry="2.48"/><ellipse class="cls-2" cx="1034.9" cy="930.57" rx="2.5" ry="2.48"/><ellipse class="cls-2" cx="869.1" cy="127.32" rx="2.5" ry="2.48"/><ellipse class="cls-2" cx="791.2" cy="294.91" rx="2.5" ry="2.48"/><ellipse class="cls-2" cx="1163.74" cy="218.55" rx="2.5" ry="2.48"/><ellipse class="cls-2" cx="1182.61" cy="712.15" rx="2.5" ry="2.48"/><ellipse class="cls-2" cx="808.18" cy="890.9" rx="2.5" ry="2.48"/><ellipse class="cls-2" cx="1403.44" cy="538.86" rx="2.5" ry="2.48"/><ellipse class="cls-2" cx="1196.7" cy="518.03" rx="2.5" ry="2.48"/><ellipse class="cls-2" cx="1403.44" cy="201.69" rx="2.5" ry="2.48"/><ellipse class="cls-2" cx="1276.6" cy="64.84" rx="2.5" ry="2.48"/><ellipse cx="1034.9" cy="3.36" rx="2.5" ry="2.48" fill="url(#Безымянный_градиент_164-2)" stroke-width=".75" stroke="#7c7c93" stroke-miterlimit="10"/><ellipse class="cls-2" cx="1375.48" cy="1018.82" rx="2.5" ry="2.48"/><ellipse class="cls-2" cx="1753.01" cy="737.19" rx="2.5" ry="2.48"/><ellipse class="cls-2" cx="1719.28" cy="185.22" rx="2.5" ry="2.48"/><ellipse class="cls-2" cx="1680.88" cy="319.77" rx="2.5" ry="2.48"/><ellipse class="cls-2" cx="1513.31" cy="87.65" rx="2.5" ry="2.48"/><ellipse class="cls-2" cx="1722.05" cy="51.95" rx="2.5" ry="2.48"/><ellipse class="cls-2" cx="1841.9" cy="127.32" rx="2.5" ry="2.48"/><ellipse class="cls-2" cx="1844.89" cy="245.32" rx="2.5" ry="2.48"/><ellipse class="cls-2" cx="1867.87" cy="464.48" rx="2.5" ry="2.48"/><ellipse class="cls-2" cx="1534.28" cy="386.14" rx="2.5" ry="2.48"/><ellipse class="cls-2" cx="1800.14" cy="988.88" rx="2.5" ry="2.48"/><ellipse class="cls-2" cx="1591.4" cy="816.33" rx="2.5" ry="2.48"/><ellipse class="cls-2" cx="1380.47" cy="865.12" rx="2.5" ry="2.48"/><ellipse class="cls-2" cx="1645.33" cy="1059.29" rx="2.5" ry="2.48"/><ellipse class="cls-2" cx="1356.5" cy="348.46" rx="2.5" ry="2.48"/><ellipse class="cls-2" cx="1684.09" cy="565.63" rx="1.5" ry="1.49"/><ellipse class="cls-2" cx="1571.23" cy="542.82" rx="1.5" ry="1.49"/><ellipse class="cls-2" cx="224.4" cy="1006.43" rx="1.5" ry="1.49"/><path class="cls-3" d="M39.13 1049.57l13.99-256.84L144 607.28l20.98-125.94-71.91-240.97L.18 286.26"/><path class="cls-3" d="M423.66 664.8l257.68 72.39L808.18 890.9l-439.45 163.62q-21-90.81-42.05-181.64l241.8 18-279.66-179.53L170 907.76l54.93 99.16 143.83 47.6L568.48 890.9l211.74 160.65 28-160.65 226.72 39.67 340.58 88.25 269.66 40.66L1800 989.07l-47-251.88-161.8 79.33 92.88-250.89 183.78-101.15-23-219.16-3-118L1722.05 52l-208.74 35.7-236.71-22.86-241.7-61.48-165.8 124-319.6-16.9L353.74 52l-236.2 7.44-25 180.48 115.88-75.42 48.44 141.32L165 481.34l214.73 5L144 607.28l279.66 57.52L53.12 792.72 170 907.76 39.13 1049.57.18 1071.38"/><path class="cls-3" d="M789.2 553.73L624.41 308.79l337.58 88.26-13.98 256.84L789.2 553.73zm374.54-335.18L1034.9 3.36l368.54 198.33-534.34-74.37C836.1 60.51 805.45-.43 803.73.38c-.11.06-.07.36-.05.5 1.16 7.82 225.79 139.51 360.06 217.67zm-789.06 17.33l175-125 75 200-61.2 170.46L423.66 664.8l-43.95-178.5-123.34-177.51-163.3-68.42"/><path class="cls-3" d="M1182.68 709.88l198 155 210.53-48.36-215.73 202.31-340.58-88.26 345.57-65.45 22.97-326.26-46.94-190.4 46.68-147.08-239 17-202 179-93-270"/><path class="cls-3" d="M961.68 396.88l235 121 207 21 167.55 3.95 109.72-222.7-167.64-232.48-6 170.57 139.24 14.2"/><ellipse class="cls-2" cx="1506.81" cy="258.71" rx="1.5" ry="1.49"/><path class="cls-3" d="M1917.8 640.16l-164.79 97.03 114.86-272.71 49.93 41.16m-346.12 37.24l112 23 161.21-320.56 73.41-59.95"/><path class="cls-3" d="M1694.8.38l27.25 51.57-2.37 130.93 122-56-161 193 3 246"/><path class="cls-3" d="M1505.32.88l7.99 86.77 206.37 100.23M1301.11.38l-24.51 64.46 127.08 137.04 105 57 23 127-128 153-221 171 14-192 160-169M1034.9 3.36l4.82-2.98m-669.54 165l179.32-54.92L593.47.38m-384.29 165L353.74 51.95 351.25.38M164.98 481.34L.18 474.85M144 607.28L.18 552.07m52.94 240.65L.18 790.25m1752.83-53.06l164.79 136.83m0 197.36l-117.85-82.3-208.27-173.2 54 243"/><ellipse class="cls-2" cx="326.31" cy="873.26" rx="1.5" ry="1.49"/><path class="cls-3" d="M549.5 112.94l242.18 181.94-167 14-250-73-5-71h-161l-91-105-115-57"/><path class="cls-6" d="M380.18 486.38l183-5-307-175 114-141"/><path class="cls-6" d="M375.18 235.38l188 246 118 256-392.5-26.5 519 180h-239"/><path class="cls-6" d="M807.68 890.88l-18-337 245 377 148-221-235-56 249.5-135.5-33-300-295-91-77 168 170 102-173 156-108 184"/><path class="cls-3" d="M1403.68 538.88l188 277m-811 236l254-121 101 131 240-43m466-892l77-124"/><path fill="url(#Безымянный_градиент_8)" stroke-width=".75" stroke="#7c7c93" stroke-miterlimit="10" d="M1720.1 185l-39.83 134.76"/><path class="cls-3" d="M224.68 1006.88l102-134-38-162m-119 197l155.35-32.83"/></g></g></svg>