<svg xmlns="http://www.w3.org/2000/svg" xmlns:xlink="http://www.w3.org/1999/xlink" viewBox="0 0 1920 1080"><defs><linearGradient id="Безымянный_градиент_171" x1="807.44" y1="1117.87" x2="1113.67" y2="-42.09" gradientUnits="userSpaceOnUse"><stop offset="0" stop-color="#0d222f"/><stop offset=".16" stop-color="#162636"/><stop offset=".43" stop-color="#2e3048"/><stop offset=".76" stop-color="#564065"/><stop offset="1" stop-color="#774e7e"/></linearGradient><linearGradient id="Безымянный_градиент_164" x1="947.35" y1="659.54" x2="948.6" y2="654.79" gradientUnits="userSpaceOnUse"><stop offset="0" stop-color="#0d222f"/><stop offset=".23" stop-color="#122433"/><stop offset=".52" stop-color="#222a3f"/><stop offset=".84" stop-color="#3b3552"/><stop offset="1" stop-color="#4a3b5d"/></linearGradient><linearGradient id="Безымянный_градиент_164-2" x1="1033.05" y1="14.71" x2="1034.31" y2="9.96" xlink:href="#Безымянный_градиент_164"/><style>.cls-2,.cls-3{fill:#b5b5c9;stroke:#636384;stroke-miterlimit:10;stroke-width:.75px}.cls-3{fill:none}</style></defs><g id="Слой_2" data-name="Слой 2"><g id="Слой_1-2" data-name="Слой 1"><path fill="url(#Безымянный_градиент_171)" d="M0 0h1920v1080H0z"/><circle class="cls-2" cx="265.8" cy="312.63" r="2.46"/><circle class="cls-2" cx="377.61" cy="172.56" r="2.46"/><circle class="cls-2" cx="382.53" cy="242.35" r="2.46"/><circle class="cls-2" cx="219" cy="172.56" r="2.46"/><circle class="cls-2" cx="104.73" cy="247.26" r="2.46"/><circle class="cls-2" cx="129.36" cy="68.36" r="2.46"/><circle class="cls-2" cx="361.84" cy="60.5" r="2.46"/><circle class="cls-2" cx="554.92" cy="118.49" r="2.46"/><circle class="cls-2" cx="628.81" cy="315.09" r="2.46"/><circle class="cls-3" cx="568.71" cy="486.13" r="2.46"/><circle class="cls-2" cx="154.97" cy="610.97" r="2.46"/><circle class="cls-2" cx="175.66" cy="486.13" r="2.46"/><circle class="cls-2" cx="430.8" cy="667.98" r="2.46"/><circle class="cls-2" cx="387.46" cy="491.04" r="2.46"/><circle class="cls-2" cx="180.59" cy="908.81" r="2.46"/><circle class="cls-2" cx="65.33" cy="794.78" r="2.46"/><circle class="cls-2" cx="51.54" cy="1049.37" r="2.46"/><circle class="cls-2" cx="376.62" cy="1054.29" r="2.46"/><circle class="cls-2" cx="573.64" cy="892.1" r="2.46"/><circle class="cls-2" cx="782.48" cy="1051.34" r="2.46"/><circle class="cls-2" cx="684.96" cy="739.74" r="2.46"/><circle cx="947.98" cy="657.17" fill="url(#Безымянный_градиент_164)" stroke="#636384" stroke-miterlimit="10" stroke-width=".75" r="2.46"/><circle class="cls-2" cx="791.35" cy="557.89" r="2.46"/><circle class="cls-2" cx="961.77" cy="402.57" r="2.46"/><circle class="cls-2" cx="1033.68" cy="931.42" r="2.46"/><circle class="cls-2" cx="870.15" cy="135.2" r="2.46"/><circle class="cls-2" cx="793.32" cy="301.33" r="2.46"/><circle class="cls-2" cx="1160.76" cy="225.64" r="2.46"/><circle class="cls-2" cx="1267.15" cy="744.65" r="2.46"/><circle class="cls-2" cx="810.06" cy="892.1" r="2.46"/><circle class="cls-2" cx="1397.18" cy="543.14" r="2.46"/><circle class="cls-2" cx="1193.27" cy="522.5" r="2.46"/><circle class="cls-2" cx="1397.18" cy="208.93" r="2.46"/><circle class="cls-2" cx="1272.07" cy="73.28" r="2.46"/><circle cx="1033.68" cy="12.33" fill="url(#Безымянный_градиент_164-2)" stroke="#636384" stroke-miterlimit="10" stroke-width=".75" r="2.46"/><circle class="cls-2" cx="1369.6" cy="1018.9" r="2.46"/><circle class="cls-2" cx="1741.97" cy="739.74" r="2.46"/><circle class="cls-2" cx="1668.08" cy="437.96" r="2.46"/><circle class="cls-2" cx="1673.2" cy="242.16" r="2.46"/><circle class="cls-2" cx="1505.54" cy="95.89" r="2.46"/><circle class="cls-2" cx="1711.43" cy="60.5" r="2.46"/><circle class="cls-2" cx="1829.64" cy="135.2" r="2.46"/><circle class="cls-2" cx="1832.6" cy="252.18" r="2.46"/><circle class="cls-2" cx="1855.25" cy="469.42" r="2.46"/><circle class="cls-2" cx="1526.23" cy="391.76" r="2.46"/><circle class="cls-2" cx="1788.45" cy="989.22" r="2.46"/><circle class="cls-2" cx="1582.57" cy="818.19" r="2.46"/><circle class="cls-2" cx="1374.52" cy="866.54" r="2.46"/><circle class="cls-2" cx="1635.76" cy="1059.02" r="2.46"/><circle class="cls-2" cx="1350.88" cy="354.41" r="2.46"/><circle class="cls-2" cx="1673.99" cy="569.68" r="1.48"/><circle class="cls-2" cx="1562.68" cy="547.07" r="1.48"/><circle class="cls-3" cx="979.5" cy="524.46" r="1.48"/><circle class="cls-3" cx="1128.25" cy="614.9" r="1.48"/><circle class="cls-2" cx="234.27" cy="1006.61" r="1.48"/><path class="cls-3" d="M51.54 1049.37l13.79-254.59 89.64-183.81 20.69-124.84-70.93-238.87-91.61 45.5"/><path class="cls-3" d="M430.8 667.98l254.16 71.76 125.1 152.36-433.44 162.19-78.81-256.56 275.83 94.37-275.83-177.98-117.22 194.69 54.18 98.3 141.85 47.18L573.64 892.1l208.84 159.24 27.58-159.24 223.62 39.32 335.92 87.48 265.98 40.3 152.69-69.79-46.3-249.67-159.59 78.64 91.61-248.7 181.26-100.26-22.65-217.24-2.96-116.97-118.21-74.71-205.89 35.39-233.46-22.61-238.4-60.95-163.53 122.88-315.23-16.72L361.84 60.5l-232.97 7.37-24.63 178.9 114.27-74.7 47.78 140.07-90.63 173.99 211.8 4.91-232.49 119.93 275.83 57.01-365.47 126.8 115.26 114.03-129.05 140.56L13.12 1071"/><path class="cls-3" d="M298.45 799.8l-2.33-85.09-61.62 291.91 63.95-206.82zm89.01-308.76l241.35-175.95L361.84 60.5 219 172.56l163.53 69.79-116.24 69.79L129.36 68.36l92.11 104.2h156.14l249.23 142.53 166.48-13.76-238.4-182.84 73.89 195.62"/><path class="cls-3" d="M791.35 557.88L628.81 315.09l332.96 87.48-13.79 254.6-156.63-99.29z"/><path class="cls-3" d="M1710.96 60.58l193.55-51.2-74.87 125.83-156.63 107.14-4.93 195.61-105.4 109.11-36.45-155.31-129.05-182.83-46.3 145.48-190.12-128.77-198.99 176.93 435.41 140.57-268.93 71.76-180.27 42.27 31.52-132.71-188.15 33.42 170.42-155.31 231.5 119.93 73.88 222.15-233.47 186.77-251.2 119.92 587.12-32.44 4.93-152.36 207.85-48.16 53.2 240.82 106.39-319.46 46.3 249.67-114.28-419.73-276.81-26.54 129.05-151.38-175.35-37.35-157.61 168.09 203.91 20.64-130.03 201.51 107.38 121.89 299.46-296.86-111.31-22.61 292.57-77.65-187.17-31.46 164.52-185.78L1711.43 60.5l-38.42 181.85-167.47-146.46-108.36 113.04-125.1-135.65-111.32 152.36-367.44 75.69 76.83-166.12 91.62 267.36 17.73 121.89 148.75 90.44-94.57 316.52-85.7-274.25L810.06 892.1l-18.71-334.22-360.55 110.1L573.64 892.1l111.32-152.36-56.15-424.65-60.09 171.04-181.26 4.91-4.93-248.69-4.92-69.79-248.25-104.2L45.91 9.38"/><path class="cls-3" d="M1225.79 487.81l-65.03-262.17-127.08-213.31 363.5 196.6-527.03-73.72L805.67 9.38M568.72 486.13L430.8 667.98l-43.34-176.94L265.8 315.09l-161.07-67.83m1246.15 107.15l46.3 188.73-22.65 323.4-340.85 64.88 335.92 87.48 212.78-200.52m-19.7-271.31l108.21-220.74-165.35-230.44-5.91 169.07 137.33 14.08"/><circle class="cls-2" cx="1499.14" cy="265.45" r="1.48"/><path class="cls-3" d="M1693.41 145.78l-194.76 119.18 174.36-22.61m231.5 401.2l-162.54 96.19 113.28-270.32 49.26 40.79m-71.91-258.03l72.4-59.43M1711.43 60.5l-26.88-51.12m-179.01 86.51l-7.88-86.01m-225.59 63.4l24.18-63.9m-262.57 2.95l4.75-2.95M554.92 118.49L598.29 9.38M361.84 60.5l-2.46-51.12M175.66 486.13L13.12 479.7m141.85 131.27L13.12 556.24m52.21 238.54l-52.21-2.45m1728.85-52.59l162.54 135.63m-116.24 114.04l116.24 81.59"/><path class="cls-3" d="M1587.74 210.44l-190.56-1.51 102.45 57.01 26.6 125.82 146.78-149.41 159.59 9.83-304.4 139.58-20.19-295.87 272.07 73.22"/></g></g></svg>