<svg xmlns="http://www.w3.org/2000/svg" xmlns:xlink="http://www.w3.org/1999/xlink" viewBox="0 0 1920.18 1080.6"><defs><linearGradient id="Безымянный_градиент_8" x1="960.18" y1="1080.6" x2="960.18" y2=".6" gradientUnits="userSpaceOnUse"><stop offset="0" stop-color="#1f2326"/><stop offset="1" stop-color="#1d242a"/></linearGradient><linearGradient id="Безымянный_градиент_164" x1="947.37" y1="656.5" x2="948.64" y2="651.71" gradientUnits="userSpaceOnUse"><stop offset="0" stop-color="#0d222f"/><stop offset=".23" stop-color="#122433"/><stop offset=".52" stop-color="#222a3f"/><stop offset=".84" stop-color="#3b3552"/><stop offset="1" stop-color="#4a3b5d"/></linearGradient><linearGradient id="Безымянный_градиент_164-2" x1="1034.27" y1="5.97" x2="1035.53" y2="1.17" xlink:href="#Безымянный_градиент_164"/><style>.cls-2,.cls-3{fill:#b5b5c9;stroke:#7c7c93;stroke-miterlimit:10;stroke-width:.75px}.cls-3{fill:none}</style></defs><g id="Слой_2" data-name="Слой 2"><g id="Слой_1-2" data-name="Слой 1"><path fill="url(#Безымянный_градиент_8)" d="M.18.6h1920v1080H.18z"/><ellipse class="cls-2" cx="256.37" cy="306.53" rx="2.5" ry="2.48"/><ellipse class="cls-2" cx="369.72" cy="165.21" rx="2.5" ry="2.48"/><ellipse class="cls-2" cx="374.72" cy="235.62" rx="2.5" ry="2.48"/><ellipse class="cls-2" cx="208.92" cy="165.21" rx="2.5" ry="2.48"/><ellipse class="cls-2" cx="93.07" cy="240.58" rx="2.5" ry="2.48"/><ellipse class="cls-2" cx="118.04" cy="60.1" rx="2.5" ry="2.48"/><ellipse class="cls-2" cx="353.74" cy="52.16" rx="2.5" ry="2.48"/><ellipse class="cls-2" cx="549.5" cy="110.67" rx="2.5" ry="2.48"/><ellipse class="cls-2" cx="624.41" cy="309.01" rx="2.5" ry="2.48"/><ellipse class="cls-3" cx="563.48" cy="481.56" rx="2.5" ry="2.48"/><ellipse class="cls-2" cx="144" cy="607.5" rx="2.5" ry="2.48"/><ellipse class="cls-2" cx="164.98" cy="481.56" rx="2.5" ry="2.48"/><ellipse class="cls-2" cx="423.66" cy="665.01" rx="2.5" ry="2.48"/><ellipse class="cls-2" cx="379.71" cy="486.51" rx="2.5" ry="2.48"/><ellipse class="cls-2" cx="169.97" cy="907.97" rx="2.5" ry="2.48"/><ellipse class="cls-2" cx="53.12" cy="792.94" rx="2.5" ry="2.48"/><ellipse class="cls-2" cx="39.13" cy="1049.78" rx="2.5" ry="2.48"/><ellipse class="cls-2" cx="368.73" cy="1054.74" rx="2.5" ry="2.48"/><ellipse class="cls-2" cx="568.48" cy="891.11" rx="2.5" ry="2.48"/><ellipse class="cls-2" cx="780.22" cy="1051.76" rx="2.5" ry="2.48"/><ellipse class="cls-2" cx="681.34" cy="737.41" rx="2.5" ry="2.48"/><ellipse cx="948.01" cy="654.11" rx="2.5" ry="2.48" fill="url(#Безымянный_градиент_164)" stroke="#7c7c93" stroke-miterlimit="10" stroke-width=".75"/><ellipse class="cls-2" cx="789.2" cy="553.95" rx="2.5" ry="2.48"/><ellipse class="cls-2" cx="961.99" cy="397.26" rx="2.5" ry="2.48"/><ellipse class="cls-2" cx="1034.9" cy="930.78" rx="2.5" ry="2.48"/><ellipse class="cls-2" cx="869.1" cy="127.53" rx="2.5" ry="2.48"/><ellipse class="cls-2" cx="791.2" cy="295.12" rx="2.5" ry="2.48"/><ellipse class="cls-2" cx="1163.74" cy="218.76" rx="2.5" ry="2.48"/><ellipse class="cls-2" cx="1271.61" cy="742.36" rx="2.5" ry="2.48"/><ellipse class="cls-2" cx="808.18" cy="891.11" rx="2.5" ry="2.48"/><ellipse class="cls-2" cx="1403.44" cy="539.07" rx="2.5" ry="2.48"/><ellipse class="cls-2" cx="1196.7" cy="518.25" rx="2.5" ry="2.48"/><ellipse class="cls-2" cx="1403.44" cy="201.91" rx="2.5" ry="2.48"/><ellipse class="cls-2" cx="1276.6" cy="65.06" rx="2.5" ry="2.48"/><ellipse cx="1034.9" cy="3.57" rx="2.5" ry="2.48" fill="url(#Безымянный_градиент_164-2)" stroke="#7c7c93" stroke-miterlimit="10" stroke-width=".75"/><ellipse class="cls-2" cx="1375.48" cy="1019.04" rx="2.5" ry="2.48"/><ellipse class="cls-2" cx="1753.01" cy="737.41" rx="2.5" ry="2.48"/><ellipse class="cls-2" cx="1678.1" cy="432.96" rx="2.5" ry="2.48"/><ellipse class="cls-2" cx="1683.28" cy="235.43" rx="2.5" ry="2.48"/><ellipse class="cls-2" cx="1513.31" cy="87.86" rx="2.5" ry="2.48"/><ellipse class="cls-2" cx="1722.05" cy="52.16" rx="2.5" ry="2.48"/><ellipse class="cls-2" cx="1841.9" cy="127.53" rx="2.5" ry="2.48"/><ellipse class="cls-2" cx="1844.89" cy="245.54" rx="2.5" ry="2.48"/><ellipse class="cls-2" cx="1867.87" cy="464.7" rx="2.5" ry="2.48"/><ellipse class="cls-2" cx="1534.28" cy="386.36" rx="2.5" ry="2.48"/><ellipse class="cls-2" cx="1800.14" cy="989.1" rx="2.5" ry="2.48"/><ellipse class="cls-2" cx="1591.4" cy="816.55" rx="2.5" ry="2.48"/><ellipse class="cls-2" cx="1380.47" cy="865.33" rx="2.5" ry="2.48"/><ellipse class="cls-2" cx="1645.33" cy="1059.51" rx="2.5" ry="2.48"/><ellipse class="cls-2" cx="1356.5" cy="348.67" rx="2.5" ry="2.48"/><ellipse class="cls-2" cx="1684.09" cy="565.85" rx="1.5" ry="1.49"/><ellipse class="cls-2" cx="1571.23" cy="543.04" rx="1.5" ry="1.49"/><ellipse class="cls-3" cx="979.97" cy="520.23" rx="1.5" ry="1.49"/><ellipse class="cls-3" cx="1130.78" cy="611.46" rx="1.5" ry="1.49"/><ellipse class="cls-2" cx="224.4" cy="1006.64" rx="1.5" ry="1.49"/><path class="cls-3" d="M39.13 1049.78l13.99-256.84L144 607.5l20.98-125.94-71.91-240.98-92.89 45.9"/><path class="cls-3" d="M423.66 665.01l257.68 72.39 126.84 153.71-439.45 163.63-79.91-258.83 279.66 95.2-279.66-179.55-118.85 196.41 54.93 99.17 143.83 47.6 199.75-163.63 211.74 160.65 27.96-160.65 226.72 39.67 340.58 88.26 269.66 40.66 154.81-70.41-46.94-251.89-161.8 79.34 92.88-250.89 183.78-101.15-22.98-219.16-2.99-118.01-119.85-75.37-208.74 35.7-236.71-22.8-241.7-61.49-165.79 123.96-319.61-16.86-195.76-58.51-236.2 7.44-24.97 180.48 115.86-75.36 48.44 141.31-91.89 175.53 214.73 4.95L144 607.5l279.66 57.51L53.12 792.94l116.85 115.03-130.84 141.81L.18 1071.6"/><path class="cls-3" d="M289.47 798l-2.36-85.85-62.48 294.49L289.47 798zm90.24-311.49L624.41 309 353.74 52.16 208.92 165.21l165.8 70.41-117.85 70.41L118.04 60.1l93.38 105.11h158.31L622.41 309l168.79-13.88-241.7-184.45 74.91 197.34"/><path class="cls-3" d="M789.2 553.95L624.41 309l337.58 88.26-13.98 256.85L789.2 553.95z"/><path class="cls-3" d="M1721.57 52.24L1917.8.6l-75.9 126.93-158.81 108.09-4.99 197.34-106.87 110.08-36.95-156.68-130.84-184.45-46.94 146.76-192.76-129.91-201.75 178.5 441.45 141.81-272.66 72.39-182.77 42.65 31.96-133.88-190.77 33.72 172.79-156.69 234.71 120.99 74.91 224.11-236.71 188.42-254.68 120.98 595.26-32.72 4.99-153.71 210.74-48.59 53.93 242.96 107.87-322.3 46.94 251.89-115.86-423.44-280.65-26.78 130.84-152.71-177.78-37.69-159.8 169.58 206.74 20.82-131.83 203.29 108.86 122.97 303.62-299.48-112.86-22.81 296.64-78.34-189.77-31.74 166.79-187.42-122.84-193.38-38.96 183.46-169.78-147.76-109.87 114.05L1276.6 65.06l-112.86 153.7-372.54 76.36 77.91-167.59 92.88 269.73 17.98 122.97 150.81 91.23-95.88 319.32-86.89-276.67-139.83 237-18.98-337.16-365.54 111.06 144.82 226.1L681.34 737.4 624.41 309l-60.93 172.56-183.77 4.95-4.99-250.89-4.99-70.41L118.04 60.1 33.42.6"/><path class="cls-3" d="M1229.67 483.25l-65.93-264.49L1034.9 3.57l368.54 198.34-534.33-74.38L803.73.6M563.48 481.56L423.66 665.01l-43.95-178.5L256.37 309l-163.3-68.42M1356.5 348.67l46.94 190.4-22.97 326.26-345.57 65.45 340.58 88.26 215.73-202.3m-19.98-273.7l109.72-222.7-167.64-232.48-6 170.57 139.24 14.21"/><ellipse class="cls-2" cx="1506.81" cy="258.93" rx="1.5" ry="1.49"/><path class="cls-3" d="M1703.78 138.2l-197.47 120.23 176.78-22.81m234.71 404.75l-164.79 97.03 114.86-272.7 49.93 41.15m-72.91-260.31l73.41-59.95M1722.05 52.16L1694.8.6m-181.49 87.26l-7.99-86.77M1276.6 65.06L1301.11.6M1034.9 3.57l4.82-2.97M549.5 110.67L593.47.6M353.74 52.16L351.25.6M164.98 481.56L.18 475.07M144 607.5L.18 552.29m52.94 240.65L.18 790.46m1752.83-53.05l164.79 136.82m-117.85 115.06l117.85 82.31"/><path class="cls-3" d="M1596.64 203.43l-193.2-1.52 103.87 57.51 26.97 126.94 148.81-150.74 161.8 9.92-308.61 140.82-20.48-298.5 275.85 73.87"/></g></g></svg>