<svg xmlns="http://www.w3.org/2000/svg" viewBox="0 0 375 800"><defs><style>.cls-1,.cls-3{fill:#1d242a}.cls-2{fill:#26353f}.cls-3{stroke:#1f3647;stroke-miterlimit:10;stroke-width:2px}.cls-5{fill:#182933}.cls-6{fill:#959595}</style></defs><g id="Слой_2" data-name="Слой 2"><g id="Слой_2-2" data-name="Слой 2"><path class="cls-1" d="M0 0h375v800H0z"/><circle class="cls-2" cx="351.61" cy="168.08" r="3.52"/><circle class="cls-2" cx="309.32" cy="174.25" r="3.08"/><circle class="cls-2" cx="316.81" cy="131.52" r="3.52"/><path class="cls-2" d="M301.5 144.37a4.3 4.3 0 104.3 4.3 4.31 4.31 0 00-4.3-4.3zm-.1 6.72a2.39 2.39 0 112.34-2.43 2.35 2.35 0 01-2.34 2.39z"/><path class="cls-2" d="M360.64 148.7a6.44 6.44 0 00-2.44.49l-6.37-6.38a6.83 6.83 0 10-12.25-.74l-6.71 6.72a12.35 12.35 0 00-17.29 2.36 14.82 14.82 0 00-.89 1.34l-3.79-1.76a10 10 0 00.19-1.89 9.41 9.41 0 10-1.58 5.21l3.88 1.76a12.33 12.33 0 1022.21-4.17l6.52-6.53a6.81 6.81 0 006.84.41l6.23 6.27a6.38 6.38 0 108.77-2.17 6.46 6.46 0 00-3.32-.92zm-59.18 6a6.11 6.11 0 116.1-6.11 6.1 6.1 0 01-6.1 6.15zm23.94 11.4a7.49 7.49 0 117.49-7.49 7.49 7.49 0 01-7.49 7.49zm20.76-22.43a4.3 4.3 0 114.29-4.3 4.3 4.3 0 01-4.29 4.3z"/><circle class="cls-2" cx="325.18" cy="158.83" r="3.52"/><path class="cls-2" d="M347.65 139.48a1.62 1.62 0 11-1.65-1.68 1.66 1.66 0 011.65 1.68z"/><path class="cls-1" d="M163.36 667.17A92.17 92.17 0 011 726.9V607.43a92.17 92.17 0 01162.36 59.74z"/><path class="cls-3" d="M157.81 667.17A86.64 86.64 0 011 718V616.35a86.64 86.64 0 01156.81 50.82z"/><path class="cls-3" d="M152.3 667.17A81.12 81.12 0 011 707.84V626.5a81.12 81.12 0 01151.3 40.67z"/><path class="cls-3" d="M146.77 667.17A75.59 75.59 0 011 695.25v-56.16a75.59 75.59 0 01145.77 28.08z"/><circle class="cls-3" cx="71.19" cy="667.17" r="70.05"/><circle class="cls-3" cx="71.19" cy="667.17" r="64.52"/><path d="M83 660.11c-.23-.37-.71-.48-.94-1.05a1.4 1.4 0 01-.11-.53c0-.79-3.54-7.95-10.63-8s-10.74 6.84-10.74 7.79a1.53 1.53 0 01-.11.63c-.25.61-.79.67-1.05 1.16a1.71 1.71 0 000 1.26 61.39 61.39 0 011 6.74 24.68 24.68 0 01.32 2.84c0 1.85-.3 2.45-.22 3.9a9.62 9.62 0 00.85 3.37c1.35 3.17 3.93 5 5 5.26l1.26.32c.41-7.16.27-8.46 0-11.06-.07-.69-.21-1.37-.21-1.37a6.26 6.26 0 00-.42-1.58c-.6-1.21-2-.92-3-2a3.67 3.67 0 01-.84-2.63l3.16 1.37 2.74 1a6 6 0 01.31 1.26 6.93 6.93 0 01-1.26 4.73l3 3.37 3-3.15a9.41 9.41 0 01-1-4.74 9.25 9.25 0 01.21-1.48l2.85-1 2.95-1.47a3 3 0 01-.32 2.42c-.85 1.22-2.58.91-3.26 2.31a7.27 7.27 0 00-.42 1.27 14.81 14.81 0 00-.32 1.47c-.37 2.33 0 11.41 0 11.38l1.48-.42c1.56-.46 4.23-3.18 5.25-6.73a9 9 0 00.42-2.63c0-1.22-.26-1.69-.31-3a15.83 15.83 0 01.31-2.84c.34-2.21.18-4.54.95-6.64.1-.33.4-1.02.1-1.53zm-21.16-2.53a11.21 11.21 0 016.31-5.79 10.25 10.25 0 012.64-.31 10.82 10.82 0 013.26.31 11.57 11.57 0 016.32 5.37l.21.37c.11.18.21.37.21.37L76 655.53l-4.79-2.37L61.6 658zm20.32 3.47a12.48 12.48 0 00-.74 3.16c-.25 1.62-.1 1.48-.42 4.22-.12 1.06-.18 1.44-.21 2.21a23.79 23.79 0 00.11 2.53 11.74 11.74 0 01-.42 4 9 9 0 01-2.95 4.42c-.48.33-1.9 1.16-1.9 1.16-.1-3.1-.11-5.34-.11-5.89 0-3.43.14-2.15.11-3.69a7.48 7.48 0 01.63-2.95 1.3 1.3 0 01.32-.42 1.53 1.53 0 01.84-.32 3.89 3.89 0 002.42-2.21 5.7 5.7 0 00-.1-3.47c-3.17 1.63-4.11 2-4.11 2a19.61 19.61 0 01-3.26 1 13.28 13.28 0 00-.11 3.15 23.16 23.16 0 001.16 3.69l-2.21 2.1-2.21-2.26a14.84 14.84 0 001.15-3.68 7.89 7.89 0 00-.21-3.06c-3.09-.93-3.68-1.16-3.68-1.16a17 17 0 01-3.58-1.89c-.37 3.11-.11 3.68-.11 3.68a4.85 4.85 0 002.22 2.11c.6.28.81.21 1.16.53.63.57.67 1.47.73 2.63.21 3.92.24 2.61.22 3.58-.07 2.21-.14 4.32-.22 6.53-.8-.49-1.57-1-2.31-1.58a8.47 8.47 0 01-2.63-4.32 14.15 14.15 0 01-.32-3.47c0-2 .14-2.09.11-3.79a45.52 45.52 0 00-.63-5.27 16.55 16.55 0 00-.64-3.27.84.84 0 01-.1-.42 1.34 1.34 0 01.63-.94 52.55 52.55 0 018.32-4.63l2.1-.95 2.32 1a45.54 45.54 0 018.21 4.74 1.12 1.12 0 01.53.84.68.68 0 01-.13.36z" fill="#313131"/><path class="cls-5" d="M305.47 763.59A3.94 3.94 0 00307 762c1-2-.78-4.36-.87-4.48a7.43 7.43 0 00-.14-1 5.93 5.93 0 00-.79-1.92c1.11 1.44 2.24 3 3.37 4.71 1 1.47 1.87 2.91 2.68 4.3a3.31 3.31 0 01-.14.36 2.57 2.57 0 01-.55.78 27.16 27.16 0 00-7.43 4.53 4.59 4.59 0 002.4 4.3c2.08.91 5.3-.48 6.32-3.7a9.46 9.46 0 011.24.5 9.21 9.21 0 011.25.73 5.37 5.37 0 01-.92.73 4.36 4.36 0 01-.7.37.44.44 0 000-.23.65.65 0 00-.27-.37 5.63 5.63 0 01-2 2.8c-1.28.91-2.64.9-3 1.87a1.89 1.89 0 00.19 1.46 1.44 1.44 0 00-.09.33 2.41 2.41 0 00-.05.5l-.37.27a4.23 4.23 0 00-.46.32 1.31 1.31 0 00-.28.37 3 3 0 00-.09.69 2.76 2.76 0 000 .54 1.87 1.87 0 00-.28.32 1.82 1.82 0 00-.14.28 2.24 2.24 0 00-.09.5 2.28 2.28 0 000 .37.62.62 0 01-.09.23.71.71 0 01-.28.23 4.21 4.21 0 01-.51-1.38c-.05-.32 0-.45-.09-.73a3.67 3.67 0 00-.69-1.46 19.5 19.5 0 00-1.52-2 7.05 7.05 0 00.6-1.1l.09-.23a8.42 8.42 0 00-.65-2.15 5.34 5.34 0 00-.87-1.32.86.86 0 00-.6-.37.85.85 0 00-.59.35 4.79 4.79 0 00-.87 1.33 8.29 8.29 0 00-.65 2.15l.09.22a6.62 6.62 0 00.6 1.1 19.5 19.5 0 00-1.52 2 3.79 3.79 0 00-.69 1.46c0 .29 0 .42-.09.74a4.23 4.23 0 01-.51 1.37.71.71 0 01-.28-.23.57.57 0 01-.09-.23 2.28 2.28 0 000-.37 2.24 2.24 0 00-.09-.5 1.76 1.76 0 00-.14-.27 1.14 1.14 0 00-.28-.32 3 3 0 00.05-.55 3 3 0 00-.09-.69 1.25 1.25 0 00-.28-.36 2.54 2.54 0 00-.46-.32c-.15-.11-.28-.2-.37-.28a2.41 2.41 0 000-.5 1.35 1.35 0 00-.09-.32 1.93 1.93 0 00.19-1.47c-.36-1-1.72-1-3-1.87a5.64 5.64 0 01-2-2.79.58.58 0 00-.27.36.44.44 0 000 .23 5.2 5.2 0 01-.7-.36 5.9 5.9 0 01-.92-.74 10.39 10.39 0 011.25-.73 9.46 9.46 0 011.24-.5c1 3.22 4.24 4.61 6.32 3.7a4.59 4.59 0 002.4-4.3 27.16 27.16 0 00-4.15-2.92 28.07 28.07 0 00-3.28-1.61 2.83 2.83 0 01-.55-.77c-.06-.13-.1-.26-.14-.37q1.22-2.09 2.68-4.3c1.13-1.7 2.26-3.27 3.37-4.71a6.27 6.27 0 00-.79 1.92 7.63 7.63 0 00-.14 1c-.09.12-1.85 2.48-.87 4.49a3.91 3.91 0 001.57 1.55 10.39 10.39 0 008.37 0z"/><path class="cls-5" d="M301.25 750a18.6 18.6 0 1018.61 18.6 18.6 18.6 0 00-18.61-18.6zm0 36.59a18 18 0 1118-18 18 18 0 01-18 18z"/><path class="cls-5" d="M301.24 751.44a17.18 17.18 0 1017.17 17.17 17.18 17.18 0 00-17.17-17.17zm0 33.26a16.09 16.09 0 1116.08-16.09 16.09 16.09 0 01-16.08 16.09z"/><path class="cls-5" d="M315.05 768.6l2.38 1.38v-2.76l-2.38 1.38zm-27.6-.02l-2.38-1.38v2.76l2.38-1.38zm20.69-11.89l2.39-1.38-2.39-1.38v2.76zm-13.8 23.82l-2.39 1.38 2.39 1.37v-2.75zm.08-23.83l.01-2.76-2.39 1.37 2.38 1.39zm13.67 23.9l-.01 2.75 2.39-1.37-2.38-1.38z"/><path class="cls-6" d="M65.13 114.62h12v1.2h-12z"/><path class="cls-6" d="M70.53 109.22h1.2v12h-1.2zm23.6 185.4h12v1.2h-12z"/><path class="cls-6" d="M99.53 289.22h1.2v12h-1.2zM23.76 477.68h12v1.2h-12z"/><path class="cls-6" d="M29.16 472.28h1.2v12h-1.2zm204.6 149.88h12v1.2h-12z"/><path class="cls-6" d="M239.16 616.76h1.2v12h-1.2zm104.86-152.6h12v1.2h-12z"/><path class="cls-6" d="M349.42 458.76h1.2v12h-1.2zm-77.4-123.6h12v1.2h-12z"/><path class="cls-6" d="M277.42 329.76h1.2v12h-1.2zm-37.4-130.95h12v1.2h-12z"/><path class="cls-6" d="M245.42 193.41h1.2v12h-1.2z"/><path class="cls-1" d="M.03 610.52h3v126h-3z"/><path class="cls-6" d="M159.05 436.44h12v1.2h-12z"/><path class="cls-6" d="M164.45 431.04h1.2v12h-1.2zm191.21-206.82h12v1.2h-12z"/><path class="cls-6" d="M361.06 218.82h1.2v12h-1.2z"/></g></g></svg>