<svg xmlns="http://www.w3.org/2000/svg" viewBox="0 0 1920 1080"><defs><style>.cls-2{fill:#1d242a;stroke:#1f3647;stroke-miterlimit:10;stroke-width:2px}.cls-3{fill:#26353f}.cls-4{fill:#262f33}.cls-6{fill:#959595}.cls-7{fill:#5b5b5b}</style></defs><g id="Слой_2" data-name="Слой 2"><g id="Слой_1-2" data-name="Слой 1"><path fill="#1d242a" d="M0 0h1920v1080H0z"/><circle class="cls-2" cx="316" cy="760" r="250"/><circle class="cls-2" cx="315.95" cy="760" r="235"/><circle class="cls-2" cx="316" cy="760" r="220"/><circle class="cls-2" cx="316" cy="760" r="205"/><circle class="cls-2" cx="316" cy="760" r="190"/><circle class="cls-2" cx="316" cy="760" r="175"/><circle class="cls-3" cx="1698" cy="327" r="8"/><circle class="cls-3" cx="1602" cy="341" r="7"/><circle class="cls-3" cx="1619" cy="244" r="8"/><path class="cls-3" d="M1584.24 273.17a9.76 9.76 0 109.76 9.76 9.76 9.76 0 00-9.76-9.76zm-.24 15.25a5.42 5.42 0 115.33-5.42 5.37 5.37 0 01-5.33 5.42z"/><path class="cls-3" d="M1718.5 283a14.37 14.37 0 00-5.54 1.1l-14.47-14.47a15.5 15.5 0 10-27.8-1.68l-15.25 15.25a28 28 0 00-41.25 8.41l-8.62-4a21.77 21.77 0 00.43-4.3 21.36 21.36 0 10-3.58 11.83l8.8 4a28 28 0 1050.42-9.48l14.81-14.81a15.48 15.48 0 0015.53.92l14.13 14.23a14.5 14.5 0 1012.39-7zm-134.35 13.7a13.86 13.86 0 1113.85-13.85 13.85 13.85 0 01-13.85 13.85zm54.35 25.8a17 17 0 1117-17 17 17 0 01-17 17zm47.11-50.93a9.76 9.76 0 119.76-9.76 9.76 9.76 0 01-9.76 9.76z"/><circle class="cls-3" cx="1638" cy="306" r="8"/><path class="cls-3" d="M1689 262.06a3.67 3.67 0 11-3.67-3.8 3.74 3.74 0 013.67 3.8z"/><path class="cls-4" d="M1470.42 931a28.83 28.83 0 01-4.07 14.83 11.1 11.1 0 00-4.29-5 22.61 22.61 0 10-40.68 0 12.15 12.15 0 00-2.73 2.32 11.57 11.57 0 00-1.94 3.08 29 29 0 1153.71-15.2zm-19.27 27.33a29.11 29.11 0 01-19.09.14 18.71 18.71 0 013.22-5.88 22.76 22.76 0 0012.88 0c.32.81.7 1.69 1.16 2.6a28.7 28.7 0 001.83 3.14zm15.98 43.93a24 24 0 00-2 2 26.34 26.34 0 00-4.67 7.91 42.87 42.87 0 00-2.38 7.5 18.66 18.66 0 11-18.26-32.54l1.34 7.35a11.86 11.86 0 1015.71.37v-7.88a18.67 18.67 0 0110.26 15.29zm-10.24-15.53"/><path class="cls-4" d="M1450.75 948.45q5.55 11.92 11 24.34t10.7 24.71l1.91-1.42a22 22 0 013.52-2 39.17 39.17 0 015.88-2.23l-21.5-46a21.71 21.71 0 00-2.64-2c-1.89-1.09-5-1.23-6.69.2s-2.18 4.4-2.18 4.4zm-10.55 15h10.8l3 28.6a8.2 8.2 0 01-3.65 2.64c-2.55.62-5.68-1.62-5.68-1.62l-4.46-29.62zm-31.44 31.04a29.87 29.87 0 00-4.66-3.65 33 33 0 00-6.09-2l23.99-44.25s5-2.31 7.91-.61c1.88 1.12 3 4.06 3 4.06l-24.14 46.45zm-20.67-3.66a31 31 0 1031 31 31 31 0 00-31-31zm0 54a23 23 0 1123-23 23 23 0 01-23 23zm103.41-49.33a31 31 0 1031 31 31 31 0 00-31-31zm0 54a23 23 0 1123-23 23 23 0 01-23 23z"/><path d="M348 740.85c-.65-1-1.94-1.3-2.57-2.85a3.86 3.86 0 01-.28-1.43c-.12-2.14-9.61-21.55-28.85-21.7-19-.16-29.12 18.55-29.13 21.13a4.06 4.06 0 01-.29 1.71c-.68 1.67-2.14 1.82-2.85 3.14a4.61 4.61 0 000 3.43c1.57 6 1.69 12.19 2.57 18.28a63.68 63.68 0 01.86 7.71c.08 5-.79 6.65-.58 10.57a26.26 26.26 0 002.29 9.14c3.68 8.59 10.68 13.5 13.71 14.28l3.43.85c1.1-19.41.73-22.93 0-30-.2-1.87-.58-3.71-.58-3.71a17.92 17.92 0 00-1.14-4.28c-1.63-3.29-5.3-2.5-8-5.43-1.05-1.15-2.27-3.22-2.28-7.14l8.57 3.71 7.42 2.58a16 16 0 01.86 3.42c.81 6-2.1 10.91-3.43 12.85q4.14 4.57 8.29 9.14l8-8.56a25.18 25.18 0 01-2.85-12.86 22.93 22.93 0 01.57-4l7.71-2.58 8-4c.68 3.54-.1 5.48-.85 6.57-2.31 3.32-7 2.46-8.86 6.28a22.6 22.6 0 00-1.14 3.43 39 39 0 00-.85 4c-1 6.31 0 30.94 0 30.85l4-1.14C334 803 341.24 795.62 344 786a24.61 24.61 0 001.15-7.14c0-3.32-.73-4.59-.86-8 0-1.36 0-2.25.86-7.71.91-6 .49-12.3 2.57-18 .36-1.03 1.13-2.92.28-4.3zM290.59 734c6.39-12.73 17.13-15.71 17.13-15.71a28 28 0 017.14-.85 30.24 30.24 0 018.86.85s10.42 2.85 17.13 14.57l.58 1c.29.49.56 1 .56 1l-13-6.43L316 722l-26 13.14zm55.12 9.42c-.89 1.44-1.54 5.62-2 8.57-.68 4.38-.29 4-1.14 11.43-.34 2.89-.51 3.92-.58 6a66.15 66.15 0 00.29 6.86 31.55 31.55 0 01-1.14 10.85c-1.91 6.23-6 10.68-8 12-1.3.88-5.14 3.15-5.14 3.15-.27-8.41-.29-14.5-.29-16 0-9.28.38-5.81.29-10a20 20 0 011.71-8 3.41 3.41 0 01.86-1.14 3.94 3.94 0 012.29-.86c2.14-.22 5.4-3.14 6.56-6 1.66-4-.28-9.42-.28-9.42-8.6 4.43-11.14 5.43-11.14 5.43a52.39 52.39 0 01-8.85 2.57 35.87 35.87 0 00-.29 8.56s.23 2 3.14 10l-6 5.71-6-6a39.68 39.68 0 003.14-10 21.31 21.31 0 00-.57-8.28c-8.4-2.53-10-3.15-10-3.15a46.69 46.69 0 01-9.71-5.14c-1 8.44-.28 10-.28 10 1.53 3.55 5.61 5.53 6 5.71 1.64.77 2.2.58 3.15 1.43 1.73 1.55 1.83 4 2 7.14.55 10.64.65 7.08.58 9.71-.18 6-.36 11.73-.58 17.71a70.09 70.09 0 01-6.28-4.29c-5.09-4.19-6.72-10.19-7.14-11.71-.68-2.5-.74-4.81-.85-9.42-.14-5.54.38-5.65.28-10.28-.07-3.37-.62-7-1.71-14.28-.79-5.22-1.18-7.83-1.72-8.86a2.31 2.31 0 01-.28-1.14 3.72 3.72 0 011.71-2.57c7.86-6 22.56-12.56 22.56-12.56l5.72-2.57c2.77 1.28 5 2.27 6.28 2.85 0 0 14.11 6.28 22.27 12.85a3.06 3.06 0 011.43 2.29 1.82 1.82 0 01-.29.85z" fill="#313131"/><circle class="cls-6" cx="1550.5" cy="740.5" r="3.5"/><circle class="cls-6" cx="1550.5" cy="760.5" r="3.5"/><circle class="cls-6" cx="1550.5" cy="780.5" r="3.5"/><circle class="cls-6" cx="1570.5" cy="740.5" r="3.5"/><circle class="cls-6" cx="1570.5" cy="760.5" r="3.5"/><circle class="cls-6" cx="1570.5" cy="780.5" r="3.5"/><circle class="cls-6" cx="1590.5" cy="740.5" r="3.5"/><circle class="cls-6" cx="1590.5" cy="760.5" r="3.5"/><circle class="cls-6" cx="1590.5" cy="780.5" r="3.5"/><path class="cls-6" d="M1389 326h20v2h-20z"/><path class="cls-6" d="M1398 317h2v20h-2zM746 860h20v2h-20z"/><path class="cls-6" d="M755 851h2v20h-2zM415 360h20v2h-20z"/><path class="cls-6" d="M424 351h2v20h-2zm273 87h20v2h-20z"/><path class="cls-6" d="M706 429h2v20h-2zm428 165h20v2h-20z"/><path class="cls-6" d="M1143 585h2v20h-2zM993 354h20v2h-20z"/><path class="cls-6" d="M1002 345h2v20h-2zm296 604h20v2h-20z"/><path class="cls-6" d="M1307 940h2v20h-2z"/><circle class="cls-7" cx="1849.5" cy="334.5" r="2.5"/><circle class="cls-7" cx="1849.5" cy="354.5" r="2.5"/><circle class="cls-7" cx="1849.5" cy="374.5" r="2.5"/><circle class="cls-7" cx="1869.5" cy="334.5" r="2.5"/><circle class="cls-7" cx="1869.5" cy="354.5" r="2.5"/><circle class="cls-7" cx="1869.5" cy="374.5" r="2.5"/><circle class="cls-7" cx="1889.5" cy="334.5" r="2.5"/><circle class="cls-7" cx="1889.5" cy="354.5" r="2.5"/><circle class="cls-7" cx="1889.5" cy="374.5" r="2.5"/><circle class="cls-7" cx="1849.5" cy="394.5" r="2.5"/><circle class="cls-7" cx="1849.5" cy="414.5" r="2.5"/><circle class="cls-7" cx="1849.5" cy="434.5" r="2.5"/><circle class="cls-7" cx="1869.5" cy="394.5" r="2.5"/><circle class="cls-7" cx="1869.5" cy="414.5" r="2.5"/><circle class="cls-7" cx="1869.5" cy="434.5" r="2.5"/><circle class="cls-7" cx="1889.5" cy="394.5" r="2.5"/><circle class="cls-7" cx="1889.5" cy="414.5" r="2.5"/><circle class="cls-7" cx="1889.5" cy="434.5" r="2.5"/><circle class="cls-7" cx="1849.5" cy="454.5" r="2.5"/><circle class="cls-7" cx="1849.5" cy="474.5" r="2.5"/><circle class="cls-7" cx="1849.5" cy="494.5" r="2.5"/><circle class="cls-7" cx="1869.5" cy="454.5" r="2.5"/><circle class="cls-7" cx="1869.5" cy="474.5" r="2.5"/><circle class="cls-7" cx="1869.5" cy="494.5" r="2.5"/><circle class="cls-7" cx="1889.5" cy="454.5" r="2.5"/><circle class="cls-7" cx="1889.5" cy="474.5" r="2.5"/><circle class="cls-7" cx="1889.5" cy="494.5" r="2.5"/><circle class="cls-7" cx="1849.5" cy="514.5" r="2.5"/><circle class="cls-7" cx="1849.5" cy="534.5" r="2.5"/><circle class="cls-7" cx="1849.5" cy="554.5" r="2.5"/><circle class="cls-7" cx="1869.5" cy="514.5" r="2.5"/><circle class="cls-7" cx="1869.5" cy="534.5" r="2.5"/><circle class="cls-7" cx="1869.5" cy="554.5" r="2.5"/><circle class="cls-7" cx="1889.5" cy="514.5" r="2.5"/><circle class="cls-7" cx="1889.5" cy="534.5" r="2.5"/><circle class="cls-7" cx="1889.5" cy="554.5" r="2.5"/><circle class="cls-7" cx="1849.5" cy="254.5" r="2.5"/><circle class="cls-7" cx="1869.5" cy="254.5" r="2.5"/><circle class="cls-7" cx="1889.5" cy="254.5" r="2.5"/><circle class="cls-7" cx="1849.5" cy="274.5" r="2.5"/><circle class="cls-7" cx="1849.5" cy="294.5" r="2.5"/><circle class="cls-7" cx="1849.5" cy="314.5" r="2.5"/><circle class="cls-7" cx="1869.5" cy="274.5" r="2.5"/><circle class="cls-7" cx="1869.5" cy="294.5" r="2.5"/><circle class="cls-7" cx="1869.5" cy="314.5" r="2.5"/><circle class="cls-7" cx="1889.5" cy="274.5" r="2.5"/><circle class="cls-7" cx="1889.5" cy="294.5" r="2.5"/><circle class="cls-7" cx="1889.5" cy="314.5" r="2.5"/><circle class="cls-6" cx="170.5" cy="214.5" r="2.5"/><circle class="cls-6" cx="190.5" cy="214.5" r="2.5"/><circle class="cls-6" cx="210.5" cy="214.5" r="2.5"/><circle class="cls-6" cx="170.5" cy="194.5" r="2.5"/><circle class="cls-6" cx="190.5" cy="194.5" r="2.5"/><circle class="cls-6" cx="210.5" cy="194.5" r="2.5"/><circle class="cls-6" cx="170.5" cy="174.5" r="2.5"/><circle class="cls-6" cx="190.5" cy="174.5" r="2.5"/><circle class="cls-6" cx="210.5" cy="174.5" r="2.5"/><circle class="cls-6" cx="230.5" cy="214.5" r="2.5"/><circle class="cls-6" cx="250.5" cy="214.5" r="2.5"/><circle class="cls-6" cx="270.5" cy="214.5" r="2.5"/><circle class="cls-6" cx="230.5" cy="194.5" r="2.5"/><circle class="cls-6" cx="250.5" cy="194.5" r="2.5"/><circle class="cls-6" cx="270.5" cy="194.5" r="2.5"/><circle class="cls-6" cx="230.5" cy="174.5" r="2.5"/><circle class="cls-6" cx="250.5" cy="174.5" r="2.5"/><circle class="cls-6" cx="270.5" cy="174.5" r="2.5"/><circle class="cls-6" cx="290.5" cy="214.5" r="2.5"/><circle class="cls-6" cx="310.5" cy="214.5" r="2.5"/><circle class="cls-6" cx="330.5" cy="214.5" r="2.5"/><circle class="cls-6" cx="290.5" cy="194.5" r="2.5"/><circle class="cls-6" cx="310.5" cy="194.5" r="2.5"/><circle class="cls-6" cx="330.5" cy="194.5" r="2.5"/><circle class="cls-6" cx="290.5" cy="174.5" r="2.5"/><circle class="cls-6" cx="310.5" cy="174.5" r="2.5"/><circle class="cls-6" cx="330.5" cy="174.5" r="2.5"/><circle class="cls-6" cx="350.5" cy="214.5" r="2.5"/><circle class="cls-6" cx="370.5" cy="214.5" r="2.5"/><circle class="cls-6" cx="390.5" cy="214.5" r="2.5"/><circle class="cls-6" cx="350.5" cy="194.5" r="2.5"/><circle class="cls-6" cx="370.5" cy="194.5" r="2.5"/><circle class="cls-6" cx="390.5" cy="194.5" r="2.5"/><circle class="cls-6" cx="350.5" cy="174.5" r="2.5"/><circle class="cls-6" cx="370.5" cy="174.5" r="2.5"/><circle class="cls-6" cx="390.5" cy="174.5" r="2.5"/><circle class="cls-6" cx="90.5" cy="214.5" r="2.5"/><circle class="cls-6" cx="90.5" cy="194.5" r="2.5"/><circle class="cls-6" cx="90.5" cy="174.5" r="2.5"/><circle class="cls-6" cx="110.5" cy="214.5" r="2.5"/><circle class="cls-6" cx="130.5" cy="214.5" r="2.5"/><circle class="cls-6" cx="150.5" cy="214.5" r="2.5"/><circle class="cls-6" cx="110.5" cy="194.5" r="2.5"/><circle class="cls-6" cx="130.5" cy="194.5" r="2.5"/><circle class="cls-6" cx="150.5" cy="194.5" r="2.5"/><circle class="cls-6" cx="110.5" cy="174.5" r="2.5"/><circle class="cls-6" cx="130.5" cy="174.5" r="2.5"/><circle class="cls-6" cx="150.5" cy="174.5" r="2.5"/></g></g></svg>