<svg xmlns="http://www.w3.org/2000/svg" viewBox="0 0 112.91 73.11"><defs><linearGradient id="Безымянный_градиент_189" x1="95.5" y1="40.37" x2="103.41" y2="20.68" gradientTransform="matrix(1.14 .52 -.41 .91 -11.39 -48.25)" gradientUnits="userSpaceOnUse"><stop offset="0" stop-color="#dc5b4d"/><stop offset=".37" stop-color="#f29742"/><stop offset=".56" stop-color="#ecab3e"/><stop offset=".8" stop-color="#e7bd39"/><stop offset=".97" stop-color="#e5c438"/></linearGradient><linearGradient id="Безымянный_градиент_3" x1="414.64" y1="33.93" x2="450.5" y2="44.87" gradientTransform="matrix(-1 0 0 1 497.2 0)" gradientUnits="userSpaceOnUse"><stop offset=".15" stop-color="#f29742"/><stop offset=".16" stop-color="#ea8545"/><stop offset=".17" stop-color="#dd694a"/><stop offset=".18" stop-color="#d3534e"/><stop offset=".19" stop-color="#cc4351"/><stop offset=".21" stop-color="#c73a52"/><stop offset=".23" stop-color="#c63753"/><stop offset=".29" stop-color="#b02e4a"/><stop offset=".4" stop-color="#861b38"/><stop offset=".72" stop-color="#6f112e"/></linearGradient><linearGradient id="Безымянный_градиент_227" x1="53.14" y1="80.23" x2="72.08" y2="27.86" gradientUnits="userSpaceOnUse"><stop offset="0" stop-color="#69172f"/><stop offset=".16" stop-color="#741b33"/><stop offset=".43" stop-color="#90243d"/><stop offset=".79" stop-color="#bd334d"/><stop offset=".92" stop-color="#cf3953"/></linearGradient><linearGradient id="Безымянный_градиент_15" x1="26.32" y1="79.01" x2="34.22" y2="59.32" gradientTransform="matrix(-1.14 .52 .41 .91 29.7 -48.25)" gradientUnits="userSpaceOnUse"><stop offset="0" stop-color="#a82c45"/><stop offset=".37" stop-color="#bf344d"/><stop offset=".5" stop-color="#cc4c4b"/><stop offset=".69" stop-color="#dc6b48"/><stop offset=".85" stop-color="#e67d46"/><stop offset=".97" stop-color="#e98445"/></linearGradient></defs><g id="Слой_2" data-name="Слой 2"><g id="Слой_1-2" data-name="Слой 1" stroke="#fff" stroke-miterlimit="10" stroke-width="2"><path d="M78.41 28.13a7.1 7.1 0 00-1 3.57c-.05.93-.25 5.27 3 7.78 1.09.82 3.44 1.44 8.06 1.69 3.38.19 5.08.29 6.58-.56 1.73-1 1.27-2.06 2.83-4.87l8.47-6.31h0s-1.75.48-2.71.7a22.35 22.35 0 01-4.07.54A6.76 6.76 0 0196 32.46c-2.14.34-4.61-.29-8.92-1.39h.08s1.9-.71 5-3.85a15.64 15.64 0 001.63.25 8.92 8.92 0 002.71 0 14 14 0 002.5-1.14c1.91-1 1.78-.77 2.61-1.26.38-.22.67-.43.86-.56.93-.68 2.21-1.81 2.69-2.23a39.52 39.52 0 01-3.75 2 10.63 10.63 0 01-3.58.89 14.5 14.5 0 01-4.83-.89l1.89-3.81-.89-8.19c-2.13 8.58-5 11-5 11-3.69 3.07-9.19 2.63-10.59 4.85z" fill="url(#Безымянный_градиент_189)"/><path d="M29.6 54.15c0 .06 1.46-2.65 3.74-6.16 5.64-8.65 14-21.55 22.56-21.21 7.1.28 11.94 9.63 13.2 12.09 4.51 8.72-.23 11.33 4.9 20.25 0 0 5.61 9.72 14.31 11.35a15.38 15.38 0 003.81.23 2.88 2.88 0 00-.49-1.62C79.38 47.33 69.07 24.28 57 2.43l-.18-.32C45.47 23.75 36 42 29.6 54.15z" fill="url(#Безымянный_градиент_3)"/><path d="M21.11 71.17c.31.89 2.69.9 3.52.92 10.91.28 16-3 16-3 8-5.14 8.76-16.79 13.2-21.14a4.62 4.62 0 013.05-1.51 4.33 4.33 0 013 1.51c4.46 4.37 6.48 15.66 14.21 20.39 6.11 3.74 16.93 4.06 17.86 2.61a.46.46 0 00.08-.23 15.38 15.38 0 01-3.81-.23C79.58 68.83 74 59.12 74 59.12c-5.27-9.19-.15-12-4.9-20.25-.73-1.29-6.46-11.29-14.21-11.33-8.14-.05-15.3 10.9-21.55 20.45a43.64 43.64 0 00-3.74 6.16C24.92 63.12 22 68.77 21.31 70a1.62 1.62 0 00-.2 1.17z" fill="url(#Безымянный_градиент_227)"/><path fill="none" d="M92.12 70.7h0"/><path d="M34.5 27.45a7.13 7.13 0 011 3.58c.05.92.25 5.26-3 7.77-1.09.83-3.44 1.44-8.06 1.7-3.38.19-5.08.28-6.59-.56-1.72-1-1.26-2.06-2.82-4.88l-8.6-6.63h0s1.72.7 2.84 1a14.16 14.16 0 004.03.57 6.65 6.65 0 003.58 1.78c2.14.35 4.61-.28 8.92-1.38h0-.08s-1.9-.71-5-3.85a8 8 0 01-4 .28 13.74 13.74 0 01-2.88-1.14c-.37-.2-.9-.46-1.45-.71a8.63 8.63 0 01-1.16-.55 9.07 9.07 0 01-.86-.57c-.93-.67-2.21-1.8-2.69-2.22a36.19 36.19 0 003.75 2 10.18 10.18 0 003.58.89 22.1 22.1 0 004.85-.88l-1.8-3.85.87-8.19c2.13 8.58 4.95 11 4.95 11 3.72 3.07 9.22 2.63 10.62 4.84z" fill="url(#Безымянный_градиент_15)"/></g></g></svg>