<svg xmlns="http://www.w3.org/2000/svg" viewBox="0 0 71.62 72.34"><defs><linearGradient id="Безымянный_градиент_3" x1="-901.31" y1="33.51" x2="-866.04" y2="44.27" gradientTransform="matrix(-1 0 0 1 -840.13 0)" gradientUnits="userSpaceOnUse"><stop offset=".15" stop-color="#f29742"/><stop offset=".16" stop-color="#ea8545"/><stop offset=".17" stop-color="#dd694a"/><stop offset=".18" stop-color="#d3534e"/><stop offset=".19" stop-color="#cc4351"/><stop offset=".21" stop-color="#c73a52"/><stop offset=".23" stop-color="#c63753"/><stop offset=".29" stop-color="#b02e4a"/><stop offset=".4" stop-color="#861b38"/><stop offset=".72" stop-color="#6f112e"/></linearGradient><linearGradient id="Безымянный_градиент_227" x1="32.3" y1="79.71" x2="50.26" y2="30.02" gradientUnits="userSpaceOnUse"><stop offset="0" stop-color="#69172f"/><stop offset=".16" stop-color="#741b33"/><stop offset=".43" stop-color="#90243d"/><stop offset=".79" stop-color="#bd334d"/><stop offset=".92" stop-color="#cf3953"/></linearGradient></defs><g id="Слой_2" data-name="Слой 2"><g id="Слой_1-2" data-name="Слой 1" stroke="#fff" stroke-miterlimit="10" stroke-width="1.5"><path d="M9.17 53.65a67.9 67.9 0 013.68-6.16c4.82-7.16 12.55-18.66 21.45-17.84 6.44.59 10.83 7.38 12.05 9.27 4.86 7.5 1.47 11.19 6.54 19.69 1 1.63 5.84 9.8 14.1 11.36a14.87 14.87 0 003.74.23 2.8 2.8 0 00-.48-1.62C58.19 46.83 48 23.77 36.11 1.92l-.17-.32C24.8 23.24 15.41 41.5 9.17 53.65z" fill="url(#Безымянный_градиент_3)"/><path d="M.8 70.67c.1.3.59 1 3.47.92a17.76 17.76 0 008.1-1.72c8.73-4.54 15.18-20.56 20-23.55a6.92 6.92 0 013.2-1 6.43 6.43 0 013.43 1c5.06 3.08 8.66 13 16.54 19.3.87.7 1.55 1.15 1.83 1.34 5.38 3.68 12.45 5.22 13.28 3.47a.62.62 0 00.07-.23A14.87 14.87 0 0167 70c-8.26-1.56-13.13-9.73-14.1-11.36-5.07-8.5-1.68-12.19-6.54-19.69-1.23-1.95-5.62-8.71-12.06-9.3-8.9-.82-16.63 10.68-21.45 17.84a67.9 67.9 0 00-3.68 6.16C4.55 62.62 1.65 68.27 1 69.51a1.62 1.62 0 00-.2 1.16z" fill="url(#Безымянный_градиент_227)"/><path fill="none" d="M70.74 70.2h-.01"/></g></g></svg>