<svg width="40" height="40" xmlns="http://www.w3.org/2000/svg" xmlns:xlink="http://www.w3.org/1999/xlink" viewBox="0 0 121.05 122.05"><defs><linearGradient id="Безымянный_градиент_31" x1="91.67" y1="-288.15" x2="50.39" y2="-247.92" gradientTransform="rotate(178.65 66.537 -125.049)" gradientUnits="userSpaceOnUse"><stop offset=".04" stop-color="#5f1026"/><stop offset=".15" stop-color="#841e35"/><stop offset=".28" stop-color="#ab2d45"/><stop offset=".41" stop-color="#c73751"/><stop offset=".51" stop-color="#d83e58"/><stop offset=".6" stop-color="#de405a"/><stop offset=".86" stop-color="#ed854a"/><stop offset="1" stop-color="#f4a343"/></linearGradient><linearGradient id="Безымянный_градиент_17" x1="56.67" y1="-275.14" x2="95.89" y2="-230.51" gradientTransform="matrix(-1.01 .02 -.02 -1.03 131.54 -255.22)" gradientUnits="userSpaceOnUse"><stop offset="0" stop-color="#630d26"/><stop offset=".19" stop-color="#801932"/><stop offset=".73" stop-color="#cc3852"/><stop offset=".97" stop-color="#ea445f"/></linearGradient><linearGradient id="Безымянный_градиент_31-2" x1="94.67" y1="-331.2" x2="53.39" y2="-290.97" gradientTransform="rotate(1.13 -20907.259 -1135.545)" xlink:href="#Безымянный_градиент_31"/><linearGradient id="Безымянный_градиент_17-2" x1="59.62" y1="-317.08" x2="98.85" y2="-272.45" gradientTransform="matrix(1.01 .02 -.02 1.03 -28.03 415.62)" xlink:href="#Безымянный_градиент_17"/><linearGradient id="Безымянный_градиент_31-3" x1="195.79" y1="-265.76" x2="154.52" y2="-225.53" gradientTransform="rotate(88.65 -57.48 -175.612)" xlink:href="#Безымянный_градиент_31"/><linearGradient id="Безымянный_градиент_17-3" x1="159.33" y1="-253.33" x2="198.55" y2="-208.7" gradientTransform="matrix(.02 1.01 -1.03 .02 -235.28 -115.43)" xlink:href="#Безымянный_градиент_17"/><linearGradient id="Безымянный_градиент_31-4" x1="194.86" y1="-354.12" x2="153.58" y2="-313.89" gradientTransform="rotate(-88.87 342.388 -96.413)" xlink:href="#Безымянный_градиент_31"/><linearGradient id="Безымянный_градиент_17-4" x1="158.4" y1="-339.41" x2="197.63" y2="-294.78" gradientTransform="matrix(.02 -1.01 1.03 .02 435.56 249.39)" xlink:href="#Безымянный_градиент_17"/></defs><g id="Слой_2" data-name="Слой 2"><g id="Слой_1-2" data-name="Слой 1"><path d="M33.87 16.93c.58.75 1.42 1.79 2.48 3C41 25 49.08 34.06 58 33.53c6.11-.36 10.36-5.05 11.82-6.66 6.1-6.75 3-12.42 8.3-18.92C80.3 5.29 84.22 2 92 0h3.21l-35 56.56z" fill="url(#Безымянный_градиент_31)"/><path d="M22.93.37s2-.2 4.33-.24c.52 0 2.33 0 3.57.09.74.08 3.29.4 7.27 3a34.72 34.72 0 017.83 7.2c1.28 1.49 3 3.74 6.83 8.27A17.41 17.41 0 0055.17 21c2.22 1.82 3.83 2.46 5.44 2.47s3.32-.71 5.42-2.43c4.47-3.64 4.27-6.16 8.44-11.35 2.15-2.69 4.3-5.28 8.13-7.13A22.11 22.11 0 0192 .48c-7.23 1.94-11 5.06-13.08 7.6-5.46 6.62-2.27 12.53-8.42 19.42-1.48 1.65-5.78 6.47-12 6.84-9.08.54-17.32-8.74-22-14a52.724 52.724 0 01-2.52-3.05z" fill="url(#Безымянный_градиент_17)"/><path d="M85.15 105c-.55-.78-1.34-1.85-2.35-3.07-4.37-5.31-12.1-14.69-21.06-14.55-6.12.1-10.56 4.6-12.09 6.15-6.4 6.47-3.59 12.22-9.12 18.47-2.26 2.57-6.32 5.66-14.16 7.33-1.81 0-3.2-.17-3.2-.17l37.43-55S74.9 87.93 85.15 105z" fill="url(#Безымянный_градиент_31-2)"/><path d="M95.37 122s-2 .11-4.34.06c-.52 0-2.33-.08-3.56-.26-.74-.1-3.27-.53-7.14-3.29a34.75 34.75 0 01-7.51-7.51c-1.21-1.55-2.87-3.87-6.46-8.56a18.42 18.42 0 00-2.31-2.47c-2.14-1.91-3.72-2.62-5.33-2.69s-3.35.56-5.52 2.19c-4.62 3.44-4.53 6-8.93 11-2.26 2.58-4.52 5.12-8.42 6.8a22.3 22.3 0 01-9.47 1.68c7.3-1.63 11.18-4.58 13.39-7 5.74-6.38 2.8-12.43 9.24-19 1.55-1.59 6.06-6.21 12.27-6.31 9.09-.15 16.93 9.48 21.36 14.92 1 1.26 1.82 2.36 2.38 3.16z" fill="url(#Безымянный_градиент_17-2)"/><path d="M16.93 86.86c.75-.58 1.79-1.42 3-2.48C25 79.77 34.06 71.65 33.53 62.7c-.36-6.11-5.05-10.36-6.66-11.81-6.75-6.11-12.42-3-18.92-8.31C5.29 40.43 2 36.51 0 28.75v-3.21l56.56 35z" fill="url(#Безымянный_градиент_31-3)"/><path d="M.37 97.8s-.2-2-.24-4.33c0-.52 0-2.33.09-3.57.08-.74.4-3.29 3-7.27a34.72 34.72 0 017.2-7.83c1.49-1.28 3.74-3 8.27-6.82A18.26 18.26 0 0021 65.56c1.82-2.22 2.46-3.83 2.47-5.44s-.71-3.32-2.43-5.42c-3.64-4.47-6.16-4.27-11.35-8.44C7 44.11 4.41 42 2.56 38.13a22.1 22.1 0 01-2.08-9.38c1.94 7.22 5.06 11 7.6 13.07 6.62 5.46 12.53 2.26 19.42 8.41 1.65 1.48 6.47 5.78 6.84 12 .54 9.08-8.74 17.32-14 22a58.266 58.266 0 01-3.05 2.53z" fill="url(#Безымянный_градиент_17-3)"/><path d="M104 35.58c-.78.55-1.85 1.34-3.07 2.35C95.57 42.31 86.19 50 86.33 59c.1 6.12 4.6 10.56 6.15 12.09C99 77.48 104.75 74.67 111 80.2c2.57 2.27 5.66 6.32 7.33 14.16 0 1.81-.17 3.2-.17 3.2l-55-37.43z" fill="url(#Безымянный_градиент_31-4)"/><path d="M121 25.36s.11 2 .06 4.34c0 .52-.08 2.33-.26 3.56-.1.74-.53 3.28-3.29 7.14a34.75 34.75 0 01-7.51 7.51c-1.55 1.21-3.87 2.87-8.56 6.46a18.42 18.42 0 00-2.47 2.31C97 58.82 96.32 60.4 96.25 62s.56 3.35 2.19 5.52c3.44 4.62 6 4.53 11 8.93 2.58 2.26 5.12 4.52 6.8 8.42a22.3 22.3 0 011.68 9.47c-1.63-7.3-4.58-11.18-7-13.39-6.38-5.74-12.43-2.8-19-9.24-1.59-1.55-6.21-6.06-6.31-12.27-.15-9.09 9.48-16.93 14.92-21.36 1.26-1 2.36-1.82 3.16-2.38z" fill="url(#Безымянный_градиент_17-4)"/></g></g></svg>