<svg xmlns="http://www.w3.org/2000/svg" viewBox="0 0 76.21 82.23"><defs><linearGradient id="Безымянный_градиент_95" x1="31.13" y1="-43.23" x2="42.14" y2="-58.12" gradientTransform="matrix(1.08 -1.2 .89 .81 43.52 105.7)" gradientUnits="userSpaceOnUse"><stop offset=".04" stop-color="#a82943"/><stop offset=".07" stop-color="#ac2f43"/><stop offset=".51" stop-color="#f29742"/><stop offset=".65" stop-color="#ecab3e"/><stop offset=".84" stop-color="#e7bd39"/><stop offset=".97" stop-color="#e5c438"/></linearGradient><linearGradient id="Безымянный_градиент_34" x1="-290.57" y1="41.95" x2="-331.85" y2="82.18" gradientTransform="rotate(177.28 -133.266 56.32)" gradientUnits="userSpaceOnUse"><stop offset=".04" stop-color="#5f1026"/><stop offset=".15" stop-color="#841e35"/><stop offset=".28" stop-color="#ab2d45"/><stop offset=".41" stop-color="#c73751"/><stop offset=".51" stop-color="#d83e58"/><stop offset=".6" stop-color="#de405a"/><stop offset=".86" stop-color="#ed854a"/><stop offset="1" stop-color="#f4a343"/></linearGradient><linearGradient id="Безымянный_градиент_17" x1="-322.98" y1="51.11" x2="-283.76" y2="95.74" gradientTransform="matrix(-1.01 .05 -.05 -1.03 -264.97 120.23)" gradientUnits="userSpaceOnUse"><stop offset="0" stop-color="#630d26"/><stop offset=".19" stop-color="#801932"/><stop offset=".73" stop-color="#cc3852"/><stop offset=".97" stop-color="#ea445f"/></linearGradient></defs><g id="Слой_2" data-name="Слой 2"><g id="Слой_1-2" data-name="Слой 1" stroke="#fff" stroke-miterlimit="10"><path d="M39.92 36.35c3.88-.92 5.51-5.7 6.34-8.14 1.4-4.11.26-4.64 1.63-6 2.31-2.35 7.73-3.08 8.45-4.33a11 11 0 00.87-2v0a21.88 21.88 0 01-8.7 1.31 15.57 15.57 0 01-3.13-.62 36.8 36.8 0 01.14-6.22 35.59 35.59 0 01.65-4 16.36 16.36 0 00-4 4.12 15.13 15.13 0 00-1.55 3.05 6.59 6.59 0 01.56 1.7 7.16 7.16 0 01-.3 3.23 16 16 0 01-1.75 4 14.13 14.13 0 01-1.55-3.92 19.88 19.88 0 01-.34-3A16.87 16.87 0 0035.22 9a15.83 15.83 0 00-3.58-4.16 9.72 9.72 0 011.66 4.91 14.42 14.42 0 01-.64 4c-.46 1.9-.94 3.45-1.31 4.54L28 15.39c-1.23-.16-2.6-.29-4.08-.34a39.19 39.19 0 00-5.5.2A20.07 20.07 0 0124.3 18a15.57 15.57 0 014.53 4.51c1.54 2.47.69 3.08 2 6.5.86 2.17 2.56 6.47 6.34 7.33a6.08 6.08 0 002.75.01z" stroke-width="2" fill="url(#Безымянный_градиент_95)"/><path d="M12.65 41.8h0c.61.75 1.47 1.76 2.56 2.92 4.71 5 13.06 13.83 22 13.09 6.1-.51 10.23-5.3 11.65-7C54.8 44 51.61 38.39 56.7 31.76c2.09-2.71 5.93-6.07 13.64-8.26h0c1.81-.1 3.2 0 3.2-.05L39.9 80.84z" fill="url(#Безымянный_градиент_34)" stroke-width="1.5"/><path d="M1.32 25.51s2-.24 4.32-.34a32.46 32.46 0 013.57 0c.74.05 3.31.32 7.34 2.8a34.78 34.78 0 018 7c1.32 1.47 3.13 3.67 7 8.11a18 18 0 002.47 2.31c2.26 1.76 3.88 2.36 5.49 2.33s3.31-.79 5.37-2.56c4.38-3.75 4.12-6.26 8.16-11.55 2.09-2.73 4.17-5.41 8-7.35A22 22 0 0170.36 24c-7.18 2.12-10.85 5.32-12.89 7.91-5.29 6.75-2 12.59-7.94 19.62-1.44 1.69-5.63 6.61-11.81 7.12-9.06.76-17.53-8.32-22.32-13.45-1.1-1.19-2-2.23-2.59-3h0z" fill="url(#Безымянный_градиент_17)" stroke-width="1.5"/></g></g></svg>