<svg xmlns="http://www.w3.org/2000/svg" viewBox="0 0 140 84"><defs><linearGradient id="Безымянный_градиент_3" x1="69.89" y1="7384.53" x2="69.89" y2="7328.08" gradientTransform="matrix(1 0 0 -1 0 7384.53)" gradientUnits="userSpaceOnUse"><stop offset="0" stop-color="#7c99a4"/><stop offset="1" stop-color="#003a4d"/></linearGradient></defs><g id="Слой_2" data-name="Слой 2"><g id="Слой_1-2" data-name="Слой 1"><g id="Слой_2-2" data-name="Слой 2"><g id="Слой_2-2-2" data-name="Слой 2-2"><path d="M69.89 0L34.32 33.93 57.9 56.37l23.9.08 23.67-22.56zM62.1 49.4l7.75-7.4 7.78 7.42zm17.64-2l-9.91-9.44-9.9 9.4-6.33-6-.41-.43-2.12-2-.29-.29-7.35-7 12.74-12.27V38l.16-.17L59 35.34l11-10.46 13.83 13.25 2.79 2.67zM70 20.86L59 31.34V16.69L69.84 6.31l.06.06v-.06.06l26.43 25.18-7.58 7.23z" fill="url(#Безымянный_градиент_3)"/><g style="isolation:isolate" font-size="18.45" fill="#023b4e" font-family="Gabriola"><text transform="matrix(1.26 0 0 1 0 71.55)" style="isolation:isolate" letter-spacing=".11em">Mebel -</text><text transform="matrix(1.26 0 0 1 64.49 71.55)" style="isolation:isolate" letter-spacing=".1em"><tspan>R</tspan></text><text transform="matrix(1.26 0 0 1 77.92 71.55)" style="isolation:isolate" letter-spacing=".11em"><tspan>ussia</tspan></text></g></g></g></g></g></svg>