<svg xmlns="http://www.w3.org/2000/svg" viewBox="0 0 70 70"><defs><linearGradient id="Безымянный_градиент_30" x1="5.11" y1="5.11" x2="64.89" y2="64.89" gradientUnits="userSpaceOnUse"><stop offset="0" stop-color="#6a6e8b"/><stop offset="1" stop-color="#9fa6c3"/></linearGradient></defs><g id="Слой_2" data-name="Слой 2"><g id="Слой_1-2" data-name="Слой 1"><path d="M57 15H14a5 5 0 00-5 5v29.78a5 5 0 005 5h43a5 5 0 005-5V20a5 5 0 00-5-5zm0 5v4.22c-2.32 1.89-6 4.83-13.93 11-1.74 1.37-5.2 4.66-7.6 4.62s-5.86-3.25-7.6-4.62C20 29 16.29 26.08 14 24.19V20zM14 49.78V30.57c2.37 1.89 5.73 4.54 10.86 8.55 2.26 1.78 6.23 5.72 10.67 5.69s8.3-3.81 10.64-5.69c5.12-4 8.49-6.66 10.86-8.55v19.21z" fill="#e2ebed"/><path d="M52.57 0H17.43A17.44 17.44 0 000 17.43v35.14A17.44 17.44 0 0017.43 70h35.14A17.44 17.44 0 0070 52.57V17.43A17.44 17.44 0 0052.57 0zM65 53a12 12 0 01-12 12H17A12 12 0 015 53V17A12 12 0 0117 5h36a12 12 0 0112 12z" fill="url(#Безымянный_градиент_30)"/></g></g></svg>