<svg xmlns="http://www.w3.org/2000/svg" viewBox="0 0 70 70"><defs><linearGradient id="Безымянный_градиент_30" x1="5.11" y1="5.11" x2="64.89" y2="64.89" gradientUnits="userSpaceOnUse"><stop offset="0" stop-color="#6a6e8b"/><stop offset="1" stop-color="#9fa6c3"/></linearGradient></defs><g id="Слой_2" data-name="Слой 2"><g id="Слой_1-2" data-name="Слой 1"><path d="M52.57 0H17.43A17.44 17.44 0 000 17.43v35.14A17.44 17.44 0 0017.43 70h35.14A17.44 17.44 0 0070 52.57V17.43A17.44 17.44 0 0052.57 0zM65 53a12 12 0 01-12 12H17A12 12 0 015 53V17A12 12 0 0117 5h36a12 12 0 0112 12z" fill="url(#Безымянный_градиент_30)"/><path d="M35.2 22.11a12.72 12.72 0 1012.72 12.72A12.7 12.7 0 0035.2 22.11zm0 21a8.27 8.27 0 118.27-8.27 8.29 8.29 0 01-8.27 8.26zm16.2-21.52a3 3 0 11-3-3 2.95 2.95 0 013 3zm8.43 3c-.19-4-1.1-7.5-4-10.4s-6.42-3.8-10.39-4S29.06 10 25 10.2s-7.48 1.09-10.39 4-3.81 6.42-4 10.4-.24 16.37 0 20.46 1.09 7.5 4 10.4 6.39 3.8 10.39 4 16.37.23 20.47 0 7.49-1.1 10.39-4 3.81-6.42 4-10.4.2-16.37-.03-20.46zm-5.29 24.86a8.38 8.38 0 01-4.72 4.71c-3.26 1.3-11 1-14.62 1s-11.36.29-14.62-1a8.33 8.33 0 01-4.71-4.71c-1.3-3.27-1-11-1-14.62s-.29-11.37 1-14.63a8.33 8.33 0 014.71-4.71c3.27-1.3 11-1 14.62-1s11.37-.29 14.62 1a8.38 8.38 0 014.72 4.71c1.29 3.27 1 11 1 14.63s.29 11.36-1 14.62z" fill="#fff"/></g></g></svg>