<svg xmlns="http://www.w3.org/2000/svg" viewBox="0 0 70 70"><defs><style>.cls-1{fill:#222}</style></defs><g id="Слой_2" data-name="Слой 2"><g id="Слой_1-2" data-name="Слой 1"><path class="cls-1" d="M52.57 0H17.43A17.44 17.44 0 000 17.43v35.14A17.44 17.44 0 0017.43 70h35.14A17.44 17.44 0 0070 52.57V17.43A17.44 17.44 0 0052.57 0zM65 53a12 12 0 01-12 12H17A12 12 0 015 53V17A12 12 0 0117 5h36a12 12 0 0112 12z"/><path class="cls-1" d="M60.85 17.88l-7.79 36c-.58 2.53-2.11 3.17-4.29 2L36.9 47.27l-5.72 5.39a3 3 0 01-2.39 1.14l.85-11.8 22-19.46c1-.84-.21-1.3-1.49-.47L23 38.8l-11.7-3.59c-2.55-.77-2.6-2.49.53-3.69l45.74-17.27c2.12-.78 3.97.46 3.28 3.63z"/></g></g></svg>