<svg xmlns="http://www.w3.org/2000/svg" viewBox="0 0 70 70"><defs><style>.cls-1{fill:#222}</style></defs><g id="Слой_2" data-name="Слой 2"><g id="Слой_1-2" data-name="Слой 1"><path class="cls-1" d="M51.29 14.87a22.87 22.87 0 00-32.35 32.35l15 15a1.73 1.73 0 002.42 0l15-15a22.85 22.85 0 00-.07-32.35zm-3.77 4.21a17.55 17.55 0 010 24.8l-12.4 12.4-12.4-12.4a17.54 17.54 0 0124.8-24.8z"/><path class="cls-1" d="M35.12 20.1A10.95 10.95 0 1046 31a10.9 10.9 0 00-10.88-10.9zm0 16.86a5.92 5.92 0 114.18-1.74A5.84 5.84 0 0135.12 37z"/><path class="cls-1" d="M52.57 0H17.43A17.44 17.44 0 000 17.43v35.14A17.44 17.44 0 0017.43 70h35.14A17.44 17.44 0 0070 52.57V17.43A17.44 17.44 0 0052.57 0zM65 53a12 12 0 01-12 12H17A12 12 0 015 53V17A12 12 0 0117 5h36a12 12 0 0112 12z"/></g></g></svg>