<svg width="184" height="184" fill="none" xmlns="http://www.w3.org/2000/svg"><path d="M146.422 88.993L95.929 38.5A18.898 18.898 0 0082.656 33H43.727C37.814 33 33 37.81 33 43.727v38.926a18.66 18.66 0 005.5 13.276l50.493 50.493A15.54 15.54 0 00100.045 151a15.54 15.54 0 0011.052-4.578l35.325-35.324A15.51 15.51 0 00151 100.046c0-4.178-1.624-8.104-4.578-11.053zm-3.792 18.312l-35.325 35.325c-3.886 3.876-10.633 3.876-14.52 0L42.293 92.136a13.322 13.322 0 01-3.928-9.483V43.727a5.369 5.369 0 015.363-5.363h38.929c3.53 0 6.987 1.432 9.48 3.928l50.494 50.494a10.198 10.198 0 013.006 7.26c0 2.744-1.068 5.321-3.006 7.259z" fill="#1ABC0F"/><path d="M96.175 99.967c.523.524 1.21.786 1.896.786a2.68 2.68 0 001.896-4.578l-3.793-3.793 3.793-3.794 5.689 5.69a2.68 2.68 0 103.792-3.791l-7.585-7.588a2.68 2.68 0 00-3.792 0L82.9 98.071a2.68 2.68 0 000 3.792l7.585 7.585c.524.524 1.21.786 1.896.786a2.68 2.68 0 001.896-4.578l-5.688-5.689 3.792-3.792 3.793 3.792zm20.857-1.897a2.68 2.68 0 00-3.792 0l-15.17 15.17a2.68 2.68 0 000 3.792l7.586 7.587c.523.524 1.21.786 1.896.786a2.68 2.68 0 001.896-4.578l-5.688-5.691 3.792-3.792 3.792 3.792c.524.524 1.21.786 1.896.786a2.68 2.68 0 001.896-4.578l-3.792-3.792 3.792-3.793 5.689 5.689a2.68 2.68 0 003.792 0 2.68 2.68 0 000-3.792l-7.585-7.585zM69.624 69.626a2.68 2.68 0 000-3.792l-3.792-3.794 3.792-3.793 5.688 5.688a2.68 2.68 0 103.792-3.792L71.52 52.56c-1.006-1.006-2.787-1.006-3.792 0l-7.581 7.581-.004.003-.001.002-7.584 7.585a2.68 2.68 0 103.793 3.792l5.689-5.69 3.792 3.794c.523.524 1.21.786 1.896.786.686 0 1.372-.262 1.896-.786zm15.614 15.617a7.978 7.978 0 005.248-2.344c3.138-3.137 3.138-8.24 0-11.377l-3.792-3.792a2.68 2.68 0 00-3.792 0l-7.517 7.514c-.026.024-.052.047-.073.07a.6.6 0 00-.068.074l-7.516 7.511a2.68 2.68 0 103.792 3.792l5.688-5.688 1.901 1.893a2.694 2.694 0 010 3.795l-3.797 3.795a2.68 2.68 0 103.793 3.792l3.797-3.794a8.019 8.019 0 002.336-5.24zm-.44-11.825l1.896 1.897a2.68 2.68 0 01-1.896 4.578h-.005a2.647 2.647 0 01-1.891-.789l-1.897-1.893 3.793-3.793z" fill="#1ABC0F"/></svg>