<svg width="184" height="184" fill="none" xmlns="http://www.w3.org/2000/svg"><path d="M138.094 52H45.906C38.79 52 33 57.78 33 64.886v55.228C33 127.219 38.79 133 45.906 133h92.188c7.116 0 12.906-5.781 12.906-12.886V64.886C151 57.781 145.21 52 138.094 52zm-92.188 7.364h92.188c3.05 0 5.531 2.477 5.531 5.522v7.364H40.375v-7.364c0-3.045 2.481-5.522 5.531-5.522zm92.188 66.272H45.906c-3.05 0-5.531-2.477-5.531-5.522v-40.5h103.25v40.5c0 3.045-2.481 5.522-5.531 5.522z" fill="#1ABC0F"/><path d="M58.813 114.591h-3.688a3.685 3.685 0 01-3.688-3.682v-3.682a3.685 3.685 0 013.688-3.682h3.688a3.685 3.685 0 013.687 3.682v3.682a3.685 3.685 0 01-3.688 3.682z" fill="#1ABC0F"/></svg>